{
.formatVersion = 3;
axes = (
{
name = Weight;
tag = wght;
},
{
name = Italic;
tag = ital;
}
);
classes = (
{
code = "A O Scedilla Tcedilla aacute abreve acircumflex adieresis agrave amacron aogonek aring atilde j o scedilla tcedilla u uacute ubreve ucircumflex udieresis ugrave uhungarumlaut umacron uogonek uring utilde acyr zero.numerator one.numerator two.numerator three.numerator four.numerator five.numerator six.numerator seven.numerator eight.numerator nine.numerator exclamdown questiondown hyphen softhyphen endash emdash quoteright guillemotleft guillemotright guilsinglleft guilsinglright cent dollar Euro hryvnia ruble sterling tenge yen cent.tab dollar.tab Euro.tab hryvnia.tab ruble.tab sterling.tab tenge.tab yen.tab at dieresiscomb dotaccentcomb gravecomb acutecomb hungarumlautcomb circumflexcomb caroncomb brevecomb ringcomb tildecomb macroncomb commaaccentcomb cedillacomb ogonekcomb brevecombcy descendercy.alt";
name = aalt;
},
{
code = "ordfeminine ordmasculine Scommaaccent Tcommaaccent dotlessj ordmasculine scommaaccent tcommaaccent zero.denominator one.denominator two.denominator three.denominator four.denominator five.denominator six.denominator seven.denominator eight.denominator nine.denominator exclamdown.case questiondown.case hyphen.case softhyphen.case endash.case emdash.case quoteright.case guillemotleft.case guillemotright.case guilsinglleft.case guilsinglright.case cent.tab dollar.tab Euro.tab hryvnia.tab ruble.tab sterling.tab tenge.tab yen.tab cent dollar Euro hryvnia ruble sterling tenge yen at.case dieresiscomb.case dotaccentcomb.case gravecomb.case acutecomb.case hungarumlautcomb.case circumflexcomb.case caroncomb.case brevecomb.case ringcomb.case tildecomb.case macroncomb.case commaaccentcomb.case cedillacomb.case ogonekcomb.case brevecombcy.case descendercy.alt.case";
name = aalt2;
},
{

glyphs = (
{
glyphname = .notdef;
layers = (
{
layerId = "84E89F29-712A-4FA0-8D04-7033136CE2AB";
shapes = (
{
closed = 1;
nodes = (
(394,-16,o),
(484,2,o),
(536,50,o),
(556,134,o),
(556,199,qs),
(556,491,ls),
(556,561,o),
(536,650,o),
(484,701,o),
(394,721,o),
(323,721,qs),
(253,721,o),
(163,702,o),
(111,652,o),
(90,564,o),
(90,496,qs),
(88,199,ls),
(88,134,o),
(107,50,o),
(160,2,o),
(251,-16,o),
(323,-16,qs)
);
},
{
closed = 1;
nodes = (
(209,97,l),
(209,277,l),
(223,279,o),
(249,281,o),
(263,281,qs),
(277,281,o),
(305,277,o),
(327,264,o),
(341,240,o),
(341,220,qs),
(341,202,o),
(329,178,o),
(310,163,o),
(285,156,o),
(271,156,qs),
(251,156,l),
(251,97,l)
);
},
{
closed = 1;
nodes = (
(264,192,ls),
(277,191,o),
(298,203,o),
(298,221,qs),
(298,236,o),
(278,246,o),
(265,246,qs),
(262,246,o),
(255,245,o),
(251,244,q),
(251,193,l)
);
},
{
closed = 1;
nodes = (
(362,94,o),
(347,106,o),
(347,118,qs),
(347,124,o),
(349,136,o),
(351,142,qs),
(370,210,l),
(351,210,l),
(351,221,l),
(357,226,o),
(371,235,o),
(377,238,q),
(382,257,l),
(389,264,o),
(409,269,o),
(415,269,q),
(420,265,l),
(412,238,l),
(443,238,l),
(445,234,o),
(439,214,o),
(436,210,q),
(406,210,l),
(390,151,ls),
(389,147,o),
(388,140,o),
(388,135,qs),
(388,130,o),
(394,123,o),
(399,123,qs),
(405,123,o),
(417,126,o),
(423,129,q),
(423,114,l),
(412,105,o),
(386,94,o),
(372,94,qs)
);
},
{
closed = 1;
nodes = (
(308,428,l),
(308,538,l),
(315,534,o),
(328,529,o),
(335,527,q),
(335,428,l)
);
},
{
closed = 1;
nodes = (
(293,364,o),
(242,386,o),
(205,424,o),
(183,475,o),
(183,504,qs),
(183,533,o),
(205,584,o),
(242,622,o),
(293,644,o),
(322,644,qs),
(351,644,o),
(401,622,o),
(439,584,o),
(461,533,o),
(461,504,qs),
(461,474,o),
(439,423,o),
(402,386,o),
(351,364,o),
(322,364,qs)
);
},
{
closed = 1;
nodes = (
(346,391,o),
(388,408,o),
(419,438,o),
(436,480,o),
(436,504,qs),
(436,528,o),
(418,569,o),
(388,599,o),
(346,617,o),
(322,617,qs),
(298,617,o),
(256,599,o),
(225,569,o),
(208,528,o),
(208,504,qs),
(208,480,o),
(225,439,o),
(256,408,o),
(298,391,o),
(322,391,qs)
);
},
{
closed = 1;
nodes = (
(257,535,l),
(256,558,o),
(275,579,o),
(291,579,qs),
(299,579,o),
(315,573,o),
(323,568,q),
(330,565,o),
(343,559,o),
(348,559,qs),
(356,559,o),
(362,570,o),
(362,581,q),
(383,581,l),
(385,555,o),
(366,535,o),
(351,535,qs),
(343,535,o),
(327,542,o),
(319,547,q),
(311,550,o),
(299,556,o),
(293,556,qs),
(286,556,o),
(278,547,o),
(278,535,q)
);
}
);
width = 643;
},
{
layerId = "947D3E97-14BA-4793-BB0D-B2B2C86BF4D4";
shapes = (
{
closed = 1;
nodes = (
(394,-16,o),
(484,2,o),
(536,50,o),
(556,134,o),
(556,199,qs),
(556,491,ls),
(556,561,o),
(536,650,o),
(484,701,o),
(394,721,o),
(323,721,qs),
(253,721,o),
(163,702,o),
(111,652,o),
(90,564,o),
(90,496,qs),
(88,199,ls),
(88,134,o),
(107,50,o),
(160,2,o),
(251,-16,o),
(323,-16,qs)
);
},
{
closed = 1;
nodes = (
(209,97,l),
(209,277,l),
(223,279,o),
(249,281,o),
(263,281,qs),
(277,281,o),
(305,277,o),
(327,264,o),
(341,240,o),
(341,220,qs),
(341,202,o),
(329,178,o),
(310,163,o),
(285,156,o),
(271,156,qs),
(251,156,l),
(251,97,l)
);
},
{
closed = 1;
nodes = (
(264,192,ls),
(277,191,o),
(298,203,o),
(298,221,qs),
(298,236,o),
(278,246,o),
(265,246,qs),
(262,246,o),
(255,245,o),
(251,244,q),
(251,193,l)
);
},
{
closed = 1;
nodes = (
(362,94,o),
(347,106,o),
(347,118,qs),
(347,124,o),
(349,136,o),
(351,142,qs),
(370,210,l),
(351,210,l),
(351,221,l),
(357,226,o),
(371,235,o),
(377,238,q),
(382,257,l),
(389,264,o),
(409,269,o),
(415,269,q),
(420,265,l),
(412,238,l),
(443,238,l),
(445,234,o),
(439,214,o),
(436,210,q),
(406,210,l),
(390,151,ls),
(389,147,o),
(388,140,o),
(388,135,qs),
(388,130,o),
(394,123,o),
(399,123,qs),
(405,123,o),
(417,126,o),
(423,129,q),
(423,114,l),
(412,105,o),
(386,94,o),
(372,94,qs)
);
},
{
closed = 1;
nodes = (
(308,428,l),
(308,538,l),
(315,534,o),
(328,529,o),
(335,527,q),
(335,428,l)
);
},
{
closed = 1;
nodes = (
(293,364,o),
(242,386,o),
(205,424,o),
(183,475,o),
(183,504,qs),
(183,533,o),
(205,584,o),
(242,622,o),
(293,644,o),
(322,644,qs),
(351,644,o),
(401,622,o),
(439,584,o),
(461,533,o),
(461,504,qs),
(461,474,o),
(439,423,o),
(402,386,o),
(351,364,o),
(322,364,qs)
);
},
{
closed = 1;
nodes = (
(346,391,o),
(388,408,o),
(419,438,o),
(436,480,o),
(436,504,qs),
(436,528,o),
(418,569,o),
(388,599,o),
(346,617,o),
(322,617,qs),
(298,617,o),
(256,599,o),
(225,569,o),
(208,528,o),
(208,504,qs),
(208,480,o),
(225,439,o),
(256,408,o),
(298,391,o),
(322,391,qs)
);
},
{
closed = 1;
nodes = (
(257,535,l),
(256,558,o),
(275,579,o),
(291,579,qs),
(299,579,o),
(315,573,o),
(323,568,q),
(330,565,o),
(343,559,o),
(348,559,qs),
(356,559,o),
(362,570,o),
(362,581,q),
(383,581,l),
(385,555,o),
(366,535,o),
(351,535,qs),
(343,535,o),
(327,542,o),
(319,547,q),
(311,550,o),
(299,556,o),
(293,556,qs),
(286,556,o),
(278,547,o),
(278,535,q)
);
}
);
width = 643;
},
{
layerId = "0E2BF6D7-5696-44D4-BEAE-B9A848D3BB08";
shapes = (
{
closed = 1;
nodes = (
(394,-16,o),
(484,2,o),
(536,50,o),
(556,134,o),
(556,199,qs),
(556,491,ls),
(556,561,o),
(536,650,o),
(484,701,o),
(394,721,o),
(323,721,qs),
(253,721,o),
(163,702,o),
(111,652,o),
(90,564,o),
(90,496,q),
(88,199,l),
(88,134,o),
(107,50,o),
(160,2,o),
(251,-16,o),
(323,-16,qs)
);
},
{
closed = 1;
nodes = (
(209,97,l),
(209,277,l),
(223,279,o),
(249,281,o),
(263,281,qs),
(277,281,o),
(305,277,o),
(327,264,o),
(341,240,o),
(341,220,qs),
(341,202,o),
(329,178,o),
(310,163,o),
(285,156,o),
(271,156,qs),
(251,156,l),
(251,97,l)
);
},
{
closed = 1;
nodes = (
(264,192,ls),
(277,191,o),
(298,203,o),
(298,221,qs),
(298,236,o),
(278,246,o),
(265,246,qs),
(262,246,o),
(255,245,o),
(251,244,q),
(251,193,l)
);
},
{
closed = 1;
nodes = (
(362,94,o),
(347,106,o),
(347,118,qs),
(347,124,o),
(349,136,o),
(351,142,qs),
(370,210,l),
(351,210,l),
(351,221,l),
(357,226,o),
(371,235,o),
(377,238,q),
(382,257,l),
(389,264,o),
(409,269,o),
(415,269,q),
(420,265,l),
(412,238,l),
(443,238,l),
(445,234,o),
(439,214,o),
(436,210,q),
(406,210,l),
(390,151,ls),
(389,147,o),
(388,140,o),
(388,135,qs),
(388,130,o),
(394,123,o),
(399,123,qs),
(405,123,o),
(417,126,o),
(423,129,q),
(423,114,l),
(412,105,o),
(386,94,o),
(372,94,qs)
);
},
{
closed = 1;
nodes = (
(308,428,l),
(308,538,l),
(315,534,o),
(328,529,o),
(335,527,q),
(335,428,l)
);
},
{
closed = 1;
nodes = (
(293,364,o),
(242,386,o),
(205,424,o),
(183,475,o),
(183,504,qs),
(183,533,o),
(205,584,o),
(242,622,o),
(293,644,o),
(322,644,qs),
(351,644,o),
(401,622,o),
(439,584,o),
(461,533,o),
(461,504,qs),
(461,474,o),
(439,423,o),
(402,386,o),
(351,364,o),
(322,364,qs)
);
},
{
closed = 1;
nodes = (
(346,391,o),
(388,408,o),
(419,438,o),
(436,480,o),
(436,504,qs),
(436,528,o),
(418,569,o),
(388,599,o),
(346,617,o),
(322,617,qs),
(298,617,o),
(256,599,o),
(225,569,o),
(208,528,o),
(208,504,qs),
(208,480,o),
(225,439,o),
(256,408,o),
(298,391,o),
(322,391,qs)
);
},
{
closed = 1;
nodes = (
(257,535,l),
(256,558,o),
(275,579,o),
(291,579,qs),
(299,579,o),
(315,573,o),
(323,568,q),
(330,565,o),
(343,559,o),
(348,559,qs),
(356,559,o),
(362,570,o),
(362,581,q),
(383,581,l),
(385,555,o),
(366,535,o),
(351,535,qs),
(343,535,o),
(327,542,o),
(319,547,q),
(311,550,o),
(299,556,o),
(293,556,qs),
(286,556,o),
(278,547,o),
(278,535,q)
);
}
);
width = 643;
},
{
layerId = "B8F76C44-C3C5-4DD7-B95D-04ADE237D0F5";
shapes = (
{
closed = 1;
nodes = (
(394,-16,o),
(484,2,o),
(536,50,o),
(556,134,o),
(556,199,qs),
(556,491,ls),
(556,561,o),
(536,650,o),
(484,701,o),
(394,721,o),
(323,721,qs),
(253,721,o),
(163,702,o),
(111,652,o),
(90,564,o),
(90,496,q),
(88,199,l),
(88,134,o),
(107,50,o),
(160,2,o),
(251,-16,o),
(323,-16,qs)
);
},
{
closed = 1;
nodes = (
(209,97,l),
(209,277,l),
(223,279,o),
(249,281,o),
(263,281,qs),
(277,281,o),
(305,277,o),
(327,264,o),
(341,240,o),
(341,220,qs),
(341,202,o),
(329,178,o),
(310,163,o),
(285,156,o),
(271,156,qs),
(251,156,l),
(251,97,l)
);
},
{
closed = 1;
nodes = (
(264,192,ls),
(277,191,o),
(298,203,o),
(298,221,qs),
(298,236,o),
(278,246,o),
(265,246,qs),
(262,246,o),
(255,245,o),
(251,244,q),
(251,193,l)
);
},
{
closed = 1;
nodes = (
(362,94,o),
(347,106,o),
(347,118,qs),
(347,124,o),
(349,136,o),
(351,142,qs),
(370,210,l),
(351,210,l),
(351,221,l),
(357,226,o),
(371,235,o),
(377,238,q),
(382,257,l),
(389,264,o),
(409,269,o),
(415,269,q),
(420,265,l),
(412,238,l),
(443,238,l),
(445,234,o),
(439,214,o),
(436,210,q),
(406,210,l),
(390,151,ls),
(389,147,o),
(388,140,o),
(388,135,qs),
(388,130,o),
(394,123,o),
(399,123,qs),
(405,123,o),
(417,126,o),
(423,129,q),
(423,114,l),
(412,105,o),
(386,94,o),
(372,94,qs)
);
},
{
closed = 1;
nodes = (
(308,428,l),
(308,538,l),
(315,534,o),
(328,529,o),
(335,527,q),
(335,428,l)
);
},
{
closed = 1;
nodes = (
(293,364,o),
(242,386,o),
(205,424,o),
(183,475,o),
(183,504,qs),
(183,533,o),
(205,584,o),
(242,622,o),
(293,644,o),
(322,644,qs),
(351,644,o),
(401,622,o),
(439,584,o),
(461,533,o),
(461,504,qs),
(461,474,o),
(439,423,o),
(402,386,o),
(351,364,o),
(322,364,qs)
);
},
{
closed = 1;
nodes = (
(346,391,o),
(388,408,o),
(419,438,o),
(436,480,o),
(436,504,qs),
(436,528,o),
(418,569,o),
(388,599,o),
(346,617,o),
(322,617,qs),
(298,617,o),
(256,599,o),
(225,569,o),
(208,528,o),
(208,504,qs),
(208,480,o),
(225,439,o),
(256,408,o),
(298,391,o),
(322,391,qs)
);
},
{
closed = 1;
nodes = (
(257,535,l),
(256,558,o),
(275,579,o),
(291,579,qs),
(299,579,o),
(315,573,o),
(323,568,q),
(330,565,o),
(343,559,o),
(348,559,qs),
(356,559,o),
(362,570,o),
(362,581,q),
(383,581,l),
(385,555,o),
(366,535,o),
(351,535,qs),
(343,535,o),
(327,542,o),
(319,547,q),
(311,550,o),
(299,556,o),
(293,556,qs),
(286,556,o),
(278,547,o),
(278,535,q)
);
}
);
width = 643;
}
);
},
{
glyphname = A;
layers = (
{
layerId = "B0F09294-F33C-4320-A79E-9223B78F399B";
shapes = (
{
closed = 1;
nodes = (
(-51,0,l),
(124,0,l),
(372,508,l),
(340,508,l),
(460,0,l),
(649,0,l),
(461,700,l),
(308,700,l)
);
},
{
closed = 1;
nodes = (
(150,123,l),
(468,123,l),
(486,262,l),
(168,262,l)
);
}
);
width = 666;
},
{
layerId = "84E89F29-712A-4FA0-8D04-7033136CE2AB";
shapes = (
{
closed = 1;
nodes = (
(-8,0,l),
(72,0,l),
(394,616,l),
(353,616,l),
(523,0,l),
(606,0,l),
(405,700,l),
(366,700,l)
);
},
{
closed = 1;
nodes = (
(152,192,l),
(488,192,l),
(497,262,l),
(161,262,l)
);
}
);
width = 666;
},
{
layerId = "947D3E97-14BA-4793-BB0D-B2B2C86BF4D4";
shapes = (
{
closed = 1;
nodes = (
(11,0,l),
(45,0,l),
(385,643,l),
(372,643,l),
(554,0,l),
(587,0,l),
(390,700,l),
(383,700,l)
);
},
{
closed = 1;
nodes = (
(154,233,l),
(498,233,l),
(502,265,l),
(158,265,l)
);
}
);
width = 666;
},
{
layerId = "082E40FD-8E35-4556-8ECC-8D6EB191F145";
shapes = (
{
closed = 1;
nodes = (
(-17,0,l),
(158,0,l),
(342,508,l),
(310,508,l),
(494,0,l),
(683,0,l),
(407,700,l),
(254,700,l)
);
},
{
closed = 1;
nodes = (
(169,123,l),
(487,123,l),
(487,262,l),
(169,262,l)
);
}
);
width = 666;
},
{
layerId = "0E2BF6D7-5696-44D4-BEAE-B9A848D3BB08";
shapes = (
{
closed = 1;
nodes = (
(26,0,l),
(106,0,l),
(351,616,l),
(310,616,l),
(557,0,l),
(640,0,l),
(351,700,l),
(312,700,l)
);
},
{
closed = 1;
nodes = (
(162,192,l),
(498,192,l),
(498,262,l),
(162,262,l)
);
}
);
width = 666;
},
{
layerId = "B8F76C44-C3C5-4DD7-B95D-04ADE237D0F5";
shapes = (
{
closed = 1;
nodes = (
(45,0,l),
(79,0,l),
(339,643,l),
(326,643,l),
(588,0,l),
(621,0,l),
(336,700,l),
(329,700,l)
);
},
{
closed = 1;
nodes = (
(159,233,l),
(503,233,l),
(503,265,l),
(159,265,l)
);
}
);
width = 666;
}
);
leftKerningGroup = A2;
rightKerningGroup = A;
unicode = 65;
},
{
glyphname = AE;
layers = (
{
layerId = "B0F09294-F33C-4320-A79E-9223B78F399B";
shapes = (
{
closed = 1;
nodes = (
(642,299,l),
(802,299,l),
(821,444,l),
(661,444,l),
(674,550,l),
(886,550,l),
(905,700,l),
(513,700,l),
(-6,0,l),
(166,0,l),
(479,433,l),
(425,0,l),
(827,0,l),
(846,150,l),
(624,150,l)
);
},
{
closed = 1;
nodes = (
(472,259,l),
(338,259,l),
(222,99,l),
(452,99,l)
);
}
);
width = 943;
},
{
layerId = "84E89F29-712A-4FA0-8D04-7033136CE2AB";
shapes = (
{
closed = 1;
nodes = (
(585,340,l),
(816,340,l),
(824,410,l),
(593,410,l),
(621,630,l),
(901,630,l),
(910,700,l),
(556,700,l),
(-12,0,l),
(78,0,l),
(540,576,l),
(468,0,l),
(832,0,l),
(841,70,l),
(551,70,l)
);
},
{
closed = 1;
nodes = (
(518,277,l),
(283,277,l),
(226,207,l),
(509,207,l)
);
}
);
width = 943;
},
{
layerId = "947D3E97-14BA-4793-BB0D-B2B2C86BF4D4";
shapes = (
{
closed = 1;
nodes = (
(548,364,l),
(810,364,l),
(814,397,l),
(552,397,l),
(586,669,l),
(899,669,l),
(903,700,l),
(559,700,l),
(-23,0,l),
(13,0,l),
(550,648,l),
(469,0,l),
(825,0,l),
(829,31,l),
(506,31,l)
);
},
{
closed = 1;
nodes = (
(517,260,l),
(218,260,l),
(192,228,l),
(513,228,l)
);
}
);
width = 943;
},
{
layerId = "082E40FD-8E35-4556-8ECC-8D6EB191F145";
shapes = (
{
closed = 1;
nodes = (
(639,299,l),
(799,299,l),
(799,444,l),
(639,444,l),
(639,550,l),
(851,550,l),
(851,700,l),
(459,700,l),
(28,0,l),
(200,0,l),
(459,433,l),
(459,0,l),
(861,0,l),
(861,150,l),
(639,150,l)
);
},
{
closed = 1;
nodes = (
(474,259,l),
(340,259,l),
(244,99,l),
(474,99,l)
);
}
);
width = 943;
},
{
layerId = "0E2BF6D7-5696-44D4-BEAE-B9A848D3BB08";
shapes = (
{
closed = 1;
nodes = (
(576,340,l),
(807,340,l),
(807,410,l),
(576,410,l),
(576,630,l),
(856,630,l),
(856,700,l),
(502,700,l),
(22,0,l),
(112,0,l),
(502,576,l),
(502,0,l),
(866,0,l),
(866,70,l),
(576,70,l)
);
},
{
closed = 1;
nodes = (
(517,277,l),
(282,277,l),
(234,207,l),
(517,207,l)
);
}
);
width = 943;
},
{
layerId = "B8F76C44-C3C5-4DD7-B95D-04ADE237D0F5";
shapes = (
{
closed = 1;
nodes = (
(536,364,l),
(798,364,l),
(798,397,l),
(536,397,l),
(536,669,l),
(849,669,l),
(849,700,l),
(505,700,l),
(11,0,l),
(47,0,l),
(503,648,l),
(503,0,l),
(859,0,l),
(859,31,l),
(536,31,l)
);
},
{
closed = 1;
nodes = (
(518,260,l),
(219,260,l),
(197,228,l),
(518,228,l)
);
}
);
width = 943;
}
);
rightKerningGroup = E;
unicode = 198;
},
{
glyphname = B;
layers = (
{
layerId = "E41D3D0D-E289-4871-BF0D-3D9777C34E64";
name = "#instance";
shapes = (
{
closed = 1;
nodes = (
(114,0,l),
(294,0,ls),
(420,0,o),
(540,69,o),
(540,208,cs),
(540,261,o),
(521,307,o),
(489,340,cs),
(457,372,o),
(413,391,o),
(362,394,c),
(368,382,l),
(437,403,o),
(479,465,o),
(479,536,cs),
(479,585,o),
(460,626,o),
(427,655,cs),
(394,683,o),
(345,700,o),
(288,700,cs),
(114,700,l)
);
},
{
closed = 1;
nodes = (
(186,32,l),
(186,668,l),
(159,630,l),
(262,630,ls),
(359,630,o),
(403,595,o),
(403,526,cs),
(403,443,o),
(335,413,o),
(262,413,cs),
(173,413,l),
(173,345,l),
(293,345,ls),
(342,345,o),
(385,335,o),
(416,313,cs),
(447,291,o),
(464,257,o),
(464,212,cs),
(464,103,o),
(370,70,o),
(276,70,cs),
(159,70,l)
);
}
);
width = 600;
},
{
layerId = "B0F09294-F33C-4320-A79E-9223B78F399B";
shapes = (
{
closed = 1;
nodes = (
(14,0,l),
(296,0,ls),
(437,0,o),
(559,67,o),
(578,215,cs),
(585,271,o),
(570,315,o),
(539,345,cs),
(507,375,o),
(457,391,o),
(393,392,c),
(376,357,l),
(486,364,o),
(561,418,o),
(575,530,cs),
(581,578,o),
(569,622,o),
(537,652,cs),
(503,682,o),
(450,700,o),
(371,700,cs),
(102,700,l)
);
},
{
closed = 1;
nodes = (
(203,72,l),
(271,614,l),
(196,550,l),
(332,550,ls),
(375,550,o),
(398,533,o),
(392,490,cs),
(386,442,o),
(360,422,o),
(313,422,cs),
(180,422,l),
(164,292,l),
(315,292,ls),
(344,292,o),
(365,286,o),
(377,274,cs),
(390,262,o),
(394,246,o),
(391,223,cs),
(383,159,o),
(329,150,o),
(275,150,cs),
(146,150,l)
);
}
);
width = 600;
},
{
layerId = "84E89F29-712A-4FA0-8D04-7033136CE2AB";
shapes = (
{
closed = 1;
nodes = (
(80,0,l),
(260,0,ls),
(396,0,o),
(514,63,o),
(532,208,cs),
(539,261,o),
(525,307,o),
(498,340,cs),
(470,372,o),
(428,391,o),
(377,394,c),
(382,382,l),
(461,405,o),
(502,457,o),
(512,536,cs),
(518,585,o),
(504,626,o),
(475,655,cs),
(445,683,o),
(399,700,o),
(342,700,cs),
(168,700,l)
);
},
{
closed = 1;
nodes = (
(156,32,l),
(236,668,l),
(204,630,l),
(307,630,ls),
(404,630,o),
(443,595,o),
(435,526,cs),
(424,441,o),
(358,413,o),
(280,413,cs),
(191,413,l),
(182,345,l),
(302,345,ls),
(351,345,o),
(393,335,o),
(421,313,cs),
(449,291,o),
(462,257,o),
(457,212,cs),
(443,101,o),
(352,70,o),
(251,70,cs),
(134,70,l)
);
}
);
width = 600;
},
{
layerId = "947D3E97-14BA-4793-BB0D-B2B2C86BF4D4";
shapes = (
{
closed = 1;
nodes = (
(103,0,l),
(243,0,ls),
(381,0,o),
(499,55,o),
(515,197,cs),
(523,266,o),
(500,315,o),
(460,345,cs),
(419,375,o),
(360,385,o),
(299,385,c),
(279,367,l),
(398,378,o),
(494,415,o),
(512,539,cs),
(519,588,o),
(506,629,o),
(474,657,cs),
(442,684,o),
(396,700,o),
(331,700,cs),
(191,700,l)
);
},
{
closed = 1;
nodes = (
(139,21,l),
(221,677,l),
(206,669,l),
(325,669,ls),
(448,669,o),
(490,618,o),
(479,535,cs),
(464,425,o),
(363,396,o),
(262,396,cs),
(180,396,l),
(176,364,l),
(284,364,ls),
(341,364,o),
(396,352,o),
(432,325,cs),
(468,297,o),
(489,254,o),
(481,193,c),
(469,72,o),
(355,31,o),
(243,31,cs),
(126,31,l)
);
}
);
width = 600;
},
{
layerId = "082E40FD-8E35-4556-8ECC-8D6EB191F145";
shapes = (
{
closed = 1;
nodes = (
(48,0,l),
(330,0,ls),
(460,0,o),
(585,73,o),
(585,215,cs),
(585,271,o),
(565,315,o),
(530,345,cs),
(494,375,o),
(442,391,o),
(378,392,c),
(365,357,l),
(466,363,o),
(543,424,o),
(543,530,cs),
(543,578,o),
(525,622,o),
(489,652,cs),
(452,682,o),
(396,700,o),
(317,700,cs),
(48,700,l)
);
},
{
closed = 1;
nodes = (
(228,72,l),
(228,614,l),
(161,550,l),
(297,550,ls),
(340,550,o),
(365,533,o),
(365,490,cs),
(365,445,o),
(338,422,o),
(294,422,cs),
(161,422,l),
(161,292,l),
(312,292,ls),
(341,292,o),
(363,286,o),
(377,274,cs),
(391,262,o),
(397,246,o),
(397,223,cs),
(397,160,o),
(341,150,o),
(290,150,cs),
(161,150,l)
);
}
);
width = 600;
},
{
layerId = "0E2BF6D7-5696-44D4-BEAE-B9A848D3BB08";
shapes = (
{
closed = 1;
nodes = (
(114,0,l),
(294,0,ls),
(420,0,o),
(540,69,o),
(540,208,cs),
(540,261,o),
(521,307,o),
(489,340,cs),
(457,372,o),
(413,391,o),
(362,394,c),
(368,382,l),
(437,403,o),
(479,465,o),
(479,536,cs),
(479,585,o),
(460,626,o),
(427,655,cs),
(394,683,o),
(345,700,o),
(288,700,cs),
(114,700,l)
);
},
{
closed = 1;
nodes = (
(186,32,l),
(186,668,l),
(159,630,l),
(262,630,ls),
(359,630,o),
(403,595,o),
(403,526,cs),
(403,443,o),
(335,413,o),
(262,413,cs),
(173,413,l),
(173,345,l),
(293,345,ls),
(342,345,o),
(385,335,o),
(416,313,cs),
(447,291,o),
(464,257,o),
(464,212,cs),
(464,103,o),
(370,70,o),
(276,70,cs),
(159,70,l)
);
}
);
width = 600;
},
{
layerId = "B8F76C44-C3C5-4DD7-B95D-04ADE237D0F5";
shapes = (
{
closed = 1;
nodes = (
(137,0,l),
(277,0,ls),
(399,0,o),
(524,59,o),
(524,197,cs),
(524,266,o),
(495,315,o),
(451,345,cs),
(406,375,o),
(346,385,o),
(285,385,c),
(267,367,l),
(368,377,o),
(479,418,o),
(479,539,cs),
(479,588,o),
(461,629,o),
(426,657,c),
(390,684,o),
(342,700,o),
(277,700,cs),
(137,700,l)
);
},
{
closed = 1;
nodes = (
(170,21,l),
(170,677,l),
(156,669,l),
(275,669,ls),
(398,669,o),
(446,618,o),
(446,535,cs),
(446,425,o),
(336,396,o),
(246,396,cs),
(164,396,l),
(164,364,l),
(272,364,ls),
(329,364,o),
(386,352,o),
(426,325,c),
(465,297,o),
(491,254,o),
(491,193,cs),
(491,73,o),
(375,31,o),
(273,31,cs),
(156,31,l)
);
}
);
width = 600;
}
);
unicode = 66;
},
{
glyphname = C;
layers = (
{
layerId = "B0F09294-F33C-4320-A79E-9223B78F399B";
shapes = (
{
closed = 1;
nodes = (
(437,-7,o),
(488,2,o),
(534,17,cs),
(579,32,o),
(617,53,o),
(645,77,c),
(589,200,l),
(563,179,o),
(536,165,o),
(508,158,cs),
(480,151,o),
(454,149,o),
(434,149,cs),
(306,149,o),
(229,222,o),
(245,354,cs),
(262,486,o),
(339,555,o),
(471,555,cs),
(518,555,o),
(571,542,o),
(614,511,c),
(697,634,l),
(642,682,o),
(570,710,o),
(474,710,cs),
(231,710,o),
(84,583,o),
(55,348,cs),
(27,125,o),
(164,-7,o),
(381,-7,cs)
);
}
);
width = 705;
},
{
layerId = "84E89F29-712A-4FA0-8D04-7033136CE2AB";
shapes = (
{
closed = 1;
nodes = (
(459,-10,o),
(506,-1,o),
(546,12,cs),
(585,25,o),
(618,44,o),
(644,63,c),
(613,126,l),
(583,103,o),
(551,88,o),
(518,77,cs),
(484,66,o),
(450,62,o),
(415,62,cs),
(248,62,o),
(125,177,o),
(147,349,cs),
(169,529,o),
(295,638,o),
(483,638,cs),
(552,638,o),
(612,618,o),
(659,582,c),
(703,647,l),
(652,684,o),
(581,710,o),
(489,710,cs),
(249,710,o),
(100,581,o),
(71,349,cs),
(43,130,o),
(191,-10,o),
(404,-10,cs)
);
}
);
width = 705;
},
{
layerId = "947D3E97-14BA-4793-BB0D-B2B2C86BF4D4";
shapes = (
{
closed = 1;
nodes = (
(429,-10,o),
(476,-1,o),
(519,14,cs),
(562,29,o),
(600,47,o),
(625,67,c),
(610,94,l),
(579,71,o),
(541,53,o),
(502,41,cs),
(463,29,o),
(422,22,o),
(379,22,cs),
(180,22,o),
(71,158,o),
(94,352,cs),
(120,568,o),
(249,678,o),
(473,678,cs),
(552,678,o),
(621,654,o),
(666,617,c),
(690,644,l),
(639,681,o),
(573,710,o),
(477,710,cs),
(236,710,o),
(88,583,o),
(60,352,cs),
(33,131,o),
(162,-10,o),
(384,-10,cs)
);
}
);
width = 705;
},
{
layerId = "082E40FD-8E35-4556-8ECC-8D6EB191F145";
shapes = (
{
closed = 1;
nodes = (
(472,-7,o),
(522,2,o),
(566,17,cs),
(609,32,o),
(644,53,o),
(669,77,c),
(598,200,l),
(575,179,o),
(549,165,o),
(522,158,cs),
(495,151,o),
(469,149,o),
(449,149,cs),
(321,149,o),
(235,222,o),
(235,354,cs),
(235,474,o),
(316,555,o),
(436,555,cs),
(483,555,o),
(537,542,o),
(584,511,c),
(652,634,l),
(591,682,o),
(515,710,o),
(419,710,cs),
(204,710,o),
(45,567,o),
(45,348,cs),
(45,125,o),
(199,-7,o),
(416,-7,cs)
);
}
);
width = 705;
},
{
layerId = "0E2BF6D7-5696-44D4-BEAE-B9A848D3BB08";
shapes = (
{
closed = 1;
nodes = (
(494,-10,o),
(540,-1,o),
(578,12,cs),
(616,25,o),
(646,44,o),
(670,63,c),
(631,126,l),
(604,103,o),
(574,88,o),
(542,77,cs),
(510,66,o),
(476,62,o),
(441,62,cs),
(274,62,o),
(137,177,o),
(137,349,cs),
(137,520,o),
(269,638,o),
(437,638,cs),
(506,638,o),
(569,618,o),
(620,582,c),
(656,647,l),
(600,684,o),
(526,710,o),
(434,710,cs),
(222,710,o),
(61,565,o),
(61,349,cs),
(61,130,o),
(226,-10,o),
(439,-10,cs)
);
}
);
width = 705;
},
{
layerId = "B8F76C44-C3C5-4DD7-B95D-04ADE237D0F5";
shapes = (
{
closed = 1;
nodes = (
(464,-10,o),
(511,-1,o),
(552,14,cs),
(592,29,o),
(627,47,o),
(651,67,c),
(632,94,l),
(604,71,o),
(568,53,o),
(531,41,cs),
(494,29,o),
(453,22,o),
(410,22,cs),
(215,22,o),
(84,158,o),
(84,352,cs),
(84,551,o),
(227,678,o),
(422,678,cs),
(501,678,o),
(572,654,o),
(623,617,c),
(643,644,l),
(588,681,o),
(518,710,o),
(422,710,cs),
(213,710,o),
(50,566,o),
(50,352,cs),
(50,130,o),
(200,-10,o),
(419,-10,cs)
);
}
);
width = 705;
}
);
leftKerningGroup = C2;
rightKerningGroup = C;
unicode = 67;
},
{
glyphname = D;
layers = (
{
layerId = "B0F09294-F33C-4320-A79E-9223B78F399B";
shapes = (
{
closed = 1;
nodes = (
(126,150,l),
(106,0,l),
(275,0,ls),
(535,0,o),
(680,118,o),
(709,354,cs),
(722,458,o),
(701,544,o),
(646,605,cs),
(590,665,o),
(503,700,o),
(383,700,cs),
(195,700,l),
(176,550,l),
(333,550,ls),
(394,550,o),
(446,536,o),
(479,505,cs),
(512,473,o),
(528,424,o),
(519,355,cs),
(501,209,o),
(431,150,o),
(277,150,cs)
);
},
{
closed = 1;
nodes = (
(298,700,l),
(118,700,l),
(30,0,l),
(210,0,l)
);
}
);
width = 729;
},
{
layerId = "84E89F29-712A-4FA0-8D04-7033136CE2AB";
shapes = (
{
closed = 1;
nodes = (
(126,70,l),
(116,0,l),
(261,0,ls),
(493,0,o),
(648,113,o),
(678,350,cs),
(691,454,o),
(666,541,o),
(609,603,cs),
(552,665,o),
(463,700,o),
(347,700,cs),
(205,700,l),
(196,630,l),
(335,630,ls),
(426,630,o),
(497,603,o),
(544,555,cs),
(591,507,o),
(613,437,o),
(602,349,cs),
(578,157,o),
(453,70,o),
(265,70,cs)
);
},
{
closed = 1;
nodes = (
(242,700,l),
(168,700,l),
(80,0,l),
(154,0,l)
);
}
);
width = 729;
},
{
layerId = "947D3E97-14BA-4793-BB0D-B2B2C86BF4D4";
shapes = (
{
closed = 1;
nodes = (
(125,31,l),
(120,0,l),
(260,0,ls),
(521,0,o),
(638,99,o),
(670,358,cs),
(683,462,o),
(655,548,o),
(598,608,cs),
(541,667,o),
(451,700,o),
(339,700,cs),
(209,700,l),
(205,669,l),
(336,669,ls),
(443,669,o),
(523,640,o),
(574,585,cs),
(625,529,o),
(647,450,o),
(635,353,cs),
(606,117,o),
(499,31,o),
(259,31,cs)
);
},
{
closed = 1;
nodes = (
(219,700,l),
(187,700,l),
(99,0,l),
(131,0,l)
);
}
);
width = 729;
},
{
layerId = "082E40FD-8E35-4556-8ECC-8D6EB191F145";
shapes = (
{
closed = 1;
nodes = (
(141,150,l),
(140,0,l),
(309,0,ls),
(532,0,o),
(699,117,o),
(699,354,cs),
(699,458,o),
(667,544,o),
(604,605,cs),
(541,665,o),
(449,700,o),
(329,700,cs),
(141,700,l),
(141,550,l),
(298,550,ls),
(359,550,o),
(413,536,o),
(450,505,cs),
(487,473,o),
(509,424,o),
(509,355,cs),
(509,212,o),
(429,150,o),
(292,150,cs)
);
},
{
closed = 1;
nodes = (
(244,700,l),
(64,700,l),
(64,0,l),
(244,0,l)
);
}
);
width = 729;
},
{
layerId = "0E2BF6D7-5696-44D4-BEAE-B9A848D3BB08";
shapes = (
{
closed = 1;
nodes = (
(151,70,l),
(150,0,l),
(295,0,ls),
(509,0,o),
(668,127,o),
(668,350,cs),
(668,454,o),
(632,541,o),
(568,603,cs),
(503,665,o),
(409,700,o),
(293,700,cs),
(151,700,l),
(151,630,l),
(290,630,ls),
(381,630,o),
(456,603,o),
(509,555,cs),
(562,507,o),
(592,437,o),
(592,349,cs),
(592,168,o),
(464,70,o),
(290,70,cs)
);
},
{
closed = 1;
nodes = (
(188,700,l),
(114,700,l),
(114,0,l),
(188,0,l)
);
}
);
width = 729;
},
{
layerId = "B8F76C44-C3C5-4DD7-B95D-04ADE237D0F5";
shapes = (
{
closed = 1;
nodes = (
(155,31,l),
(154,0,l),
(294,0,ls),
(512,0,o),
(659,137,o),
(659,358,cs),
(659,462,o),
(621,548,o),
(556,608,cs),
(491,667,o),
(397,700,o),
(285,700,cs),
(155,700,l),
(155,669,l),
(286,669,ls),
(393,669,o),
(478,640,o),
(535,585,cs),
(592,529,o),
(625,450,o),
(625,353,cs),
(625,150,o),
(488,31,o),
(289,31,cs)
);
},
{
closed = 1;
nodes = (
(165,700,l),
(133,700,l),
(133,0,l),
(165,0,l)
);
}
);
width = 729;
}
);
rightKerningGroup = D;
unicode = 68;
},
{
glyphname = Eth;
layers = (
{
layerId = "B0F09294-F33C-4320-A79E-9223B78F399B";
shapes = (
{
closed = 1;
nodes = (
(415,438,l),
(34,438,l),
(15,288,l),
(396,288,l)
);
},
{
closed = 1;
nodes = (
(126,150,l),
(106,0,l),
(275,0,ls),
(516,0,o),
(678,105,o),
(709,354,cs),
(722,458,o),
(701,544,o),
(646,605,cs),
(590,665,o),
(503,700,o),
(383,700,cs),
(195,700,l),
(176,550,l),
(333,550,ls),
(394,550,o),
(446,536,o),
(479,505,cs),
(512,473,o),
(528,424,o),
(519,355,cs),
(501,204,o),
(424,150,o),
(277,150,cs)
);
},
{
closed = 1;
nodes = (
(298,700,l),
(118,700,l),
(30,0,l),
(210,0,l)
);
}
);
width = 729;
},
{
layerId = "84E89F29-712A-4FA0-8D04-7033136CE2AB";
shapes = (
{
closed = 1;
nodes = (
(423,402,l),
(42,402,l),
(34,332,l),
(415,332,l)
);
},
{
closed = 1;
nodes = (
(126,70,l),
(116,0,l),
(261,0,ls),
(493,0,o),
(648,113,o),
(678,350,cs),
(691,454,o),
(666,541,o),
(609,603,cs),
(552,665,o),
(463,700,o),
(347,700,cs),
(205,700,l),
(196,630,l),
(335,630,ls),
(426,630,o),
(497,603,o),
(544,555,cs),
(591,507,o),
(613,437,o),
(602,349,cs),
(578,157,o),
(453,70,o),
(265,70,cs)
);
},
{
closed = 1;
nodes = (
(242,700,l),
(168,700,l),
(80,0,l),
(154,0,l)
);
}
);
width = 729;
},
{
layerId = "947D3E97-14BA-4793-BB0D-B2B2C86BF4D4";
shapes = (
{
closed = 1;
nodes = (
(426,398,l),
(45,398,l),
(41,367,l),
(422,367,l)
);
},
{
closed = 1;
nodes = (
(125,31,l),
(120,0,l),
(260,0,ls),
(500,0,o),
(640,119,o),
(670,358,cs),
(683,462,o),
(655,548,o),
(598,608,cs),
(541,667,o),
(451,700,o),
(339,700,cs),
(209,700,l),
(205,669,l),
(336,669,ls),
(443,669,o),
(523,640,o),
(574,585,cs),
(625,529,o),
(647,450,o),
(635,353,cs),
(608,134,o),
(480,31,o),
(259,31,cs)
);
},
{
closed = 1;
nodes = (
(219,700,l),
(187,700,l),
(99,0,l),
(131,0,l)
);
}
);
width = 729;
},
{
layerId = "082E40FD-8E35-4556-8ECC-8D6EB191F145";
shapes = (
{
closed = 1;
nodes = (
(394,438,l),
(13,438,l),
(13,288,l),
(394,288,l)
);
},
{
closed = 1;
nodes = (
(141,150,l),
(140,0,l),
(309,0,ls),
(532,0,o),
(699,117,o),
(699,354,cs),
(699,458,o),
(667,544,o),
(604,605,cs),
(541,665,o),
(449,700,o),
(329,700,cs),
(141,700,l),
(141,550,l),
(298,550,ls),
(359,550,o),
(413,536,o),
(450,505,cs),
(487,473,o),
(509,424,o),
(509,355,cs),
(509,212,o),
(429,150,o),
(292,150,cs)
);
},
{
closed = 1;
nodes = (
(244,700,l),
(64,700,l),
(64,0,l),
(244,0,l)
);
}
);
width = 729;
},
{
layerId = "0E2BF6D7-5696-44D4-BEAE-B9A848D3BB08";
shapes = (
{
closed = 1;
nodes = (
(407,402,l),
(26,402,l),
(26,332,l),
(407,332,l)
);
},
{
closed = 1;
nodes = (
(151,70,l),
(150,0,l),
(295,0,ls),
(509,0,o),
(668,127,o),
(668,350,cs),
(668,454,o),
(632,541,o),
(568,603,cs),
(503,665,o),
(409,700,o),
(293,700,cs),
(151,700,l),
(151,630,l),
(290,630,ls),
(381,630,o),
(456,603,o),
(509,555,cs),
(562,507,o),
(592,437,o),
(592,349,cs),
(592,168,o),
(464,70,o),
(290,70,cs)
);
},
{
closed = 1;
nodes = (
(188,700,l),
(114,700,l),
(114,0,l),
(188,0,l)
);
}
);
width = 729;
},
{
layerId = "B8F76C44-C3C5-4DD7-B95D-04ADE237D0F5";
shapes = (
{
closed = 1;
nodes = (
(410,398,l),
(29,398,l),
(29,367,l),
(410,367,l)
);
},
{
closed = 1;
nodes = (
(155,31,l),
(154,0,l),
(294,0,ls),
(512,0,o),
(659,137,o),
(659,358,cs),
(659,462,o),
(621,548,o),
(556,608,cs),
(491,667,o),
(397,700,o),
(285,700,cs),
(155,700,l),
(155,669,l),
(286,669,ls),
(393,669,o),
(478,640,o),
(535,585,cs),
(592,529,o),
(625,450,o),
(625,353,cs),
(625,150,o),
(488,31,o),
(289,31,cs)
);
},
{
closed = 1;
nodes = (
(165,700,l),
(133,700,l),
(133,0,l),
(165,0,l)
);
}
);
width = 729;
}
);
rightKerningGroup = D;
unicode = 208;
},
{
glyphname = E;
layers = (
{
layerId = "B0F09294-F33C-4320-A79E-9223B78F399B";
shapes = (
{
closed = 1;
nodes = (
(55,0,l),
(477,0,l),
(496,150,l),
(254,150,l),
(272,292,l),
(461,292,l),
(479,437,l),
(290,437,l),
(304,550,l),
(536,550,l),
(555,700,l),
(143,700,l)
);
}
);
width = 564;
},
{
layerId = "84E89F29-712A-4FA0-8D04-7033136CE2AB";
shapes = (
{
closed = 1;
nodes = (
(80,0,l),
(453,0,l),
(462,70,l),
(163,70,l),
(196,338,l),
(436,338,l),
(445,408,l),
(205,408,l),
(233,630,l),
(522,630,l),
(531,700,l),
(168,700,l)
);
}
);
width = 564;
},
{
layerId = "947D3E97-14BA-4793-BB0D-B2B2C86BF4D4";
shapes = (
{
closed = 1;
nodes = (
(96,0,l),
(449,0,l),
(453,31,l),
(133,31,l),
(175,365,l),
(433,365,l),
(437,396,l),
(179,396,l),
(213,669,l),
(523,669,l),
(527,700,l),
(184,700,l)
);
}
);
width = 564;
},
{
layerId = "082E40FD-8E35-4556-8ECC-8D6EB191F145";
shapes = (
{
closed = 1;
nodes = (
(89,0,l),
(511,0,l),
(511,150,l),
(269,150,l),
(269,292,l),
(458,292,l),
(458,437,l),
(269,437,l),
(269,550,l),
(501,550,l),
(501,700,l),
(89,700,l)
);
}
);
width = 564;
},
{
layerId = "0E2BF6D7-5696-44D4-BEAE-B9A848D3BB08";
shapes = (
{
closed = 1;
nodes = (
(114,0,l),
(487,0,l),
(487,70,l),
(188,70,l),
(188,338,l),
(428,338,l),
(428,408,l),
(188,408,l),
(188,630,l),
(477,630,l),
(477,700,l),
(114,700,l)
);
}
);
width = 564;
},
{
layerId = "B8F76C44-C3C5-4DD7-B95D-04ADE237D0F5";
shapes = (
{
closed = 1;
nodes = (
(130,0,l),
(483,0,l),
(483,31,l),
(163,31,l),
(163,365,l),
(421,365,l),
(421,396,l),
(163,396,l),
(163,669,l),
(473,669,l),
(473,700,l),
(130,700,l)
);
}
);
width = 564;
}
);
rightKerningGroup = E;
unicode = 69;
},
{
glyphname = F;
layers = (
{
layerId = "B0F09294-F33C-4320-A79E-9223B78F399B";
shapes = (
{
closed = 1;
nodes = (
(53,0,l),
(233,0,l),
(267,272,l),
(459,272,l),
(478,422,l),
(286,422,l),
(302,550,l),
(514,550,l),
(533,700,l),
(141,700,l)
);
}
);
width = 541;
},
{
layerId = "84E89F29-712A-4FA0-8D04-7033136CE2AB";
shapes = (
{
closed = 1;
nodes = (
(80,0,l),
(154,0,l),
(194,316,l),
(455,316,l),
(463,386,l),
(202,386,l),
(233,630,l),
(514,630,l),
(523,700,l),
(168,700,l)
);
}
);
width = 541;
},
{
layerId = "947D3E97-14BA-4793-BB0D-B2B2C86BF4D4";
shapes = (
{
closed = 1;
nodes = (
(96,0,l),
(129,0,l),
(171,337,l),
(457,337,l),
(461,369,l),
(175,369,l),
(213,669,l),
(519,669,l),
(523,700,l),
(184,700,l)
);
}
);
width = 541;
},
{
layerId = "082E40FD-8E35-4556-8ECC-8D6EB191F145";
shapes = (
{
closed = 1;
nodes = (
(87,0,l),
(267,0,l),
(267,272,l),
(459,272,l),
(459,422,l),
(267,422,l),
(267,550,l),
(479,550,l),
(479,700,l),
(87,700,l)
);
}
);
width = 541;
},
{
layerId = "0E2BF6D7-5696-44D4-BEAE-B9A848D3BB08";
shapes = (
{
closed = 1;
nodes = (
(114,0,l),
(188,0,l),
(188,316,l),
(449,316,l),
(449,386,l),
(188,386,l),
(188,630,l),
(469,630,l),
(469,700,l),
(114,700,l)
);
}
);
width = 541;
},
{
layerId = "B8F76C44-C3C5-4DD7-B95D-04ADE237D0F5";
shapes = (
{
closed = 1;
nodes = (
(130,0,l),
(163,0,l),
(163,337,l),
(449,337,l),
(449,369,l),
(163,369,l),
(163,669,l),
(469,669,l),
(469,700,l),
(130,700,l)
);
}
);
width = 541;
}
);
unicode = 70;
},
{
glyphname = G;
layers = (
{
layerId = "E41D3D0D-E289-4871-BF0D-3D9777C34E64";
name = "#instance";
shapes = (
{
closed = 1;
nodes = (
(650,-10,o),
(769,137,o),
(769,354,c),
(417,354,l),
(417,280,l),
(715,280,l),
(694,308,l),
(684,149,o),
(580,62,o),
(424,62,cs),
(341,62,o),
(270,93,o),
(219,144,cs),
(167,195,o),
(137,266,o),
(137,347,cs),
(137,513,o),
(258,638,o),
(425,638,cs),
(464,638,o),
(505,633,o),
(546,618,cs),
(586,603,o),
(626,580,o),
(659,544,c),
(711,606,l),
(671,645,o),
(625,671,o),
(577,687,cs),
(529,703,o),
(478,710,o),
(430,710,cs),
(215,710,o),
(61,564,o),
(61,348,cs),
(61,247,o),
(96,157,o),
(159,93,cs),
(222,29,o),
(311,-10,o),
(419,-10,cs)
);
}
);
width = 830;
},
{
layerId = "B0F09294-F33C-4320-A79E-9223B78F399B";
shapes = (
{
closed = 1;
nodes = (
(627,-7,o),
(761,127,o),
(798,408,c),
(408,408,l),
(389,258,l),
(650,258,l),
(608,307,l),
(583,205,o),
(520,148,o),
(417,148,cs),
(364,148,o),
(317,165,o),
(286,199,cs),
(254,233,o),
(239,283,o),
(248,350,cs),
(262,461,o),
(338,555,o),
(456,555,cs),
(495,555,o),
(532,543,o),
(564,526,cs),
(596,509,o),
(624,485,o),
(644,458,c),
(766,571,l),
(740,620,o),
(695,656,o),
(644,678,cs),
(593,700,o),
(533,710,o),
(473,710,cs),
(240,710,o),
(87,585,o),
(58,351,cs),
(44,243,o),
(76,153,o),
(136,91,cs),
(197,29,o),
(284,-7,o),
(383,-7,cs)
);
}
);
width = 830;
},
{
layerId = "84E89F29-712A-4FA0-8D04-7033136CE2AB";
shapes = (
{
closed = 1;
nodes = (
(621,-10,o),
(748,107,o),
(779,354,c),
(427,354,l),
(418,280,l),
(716,280,l),
(699,308,l),
(667,139,o),
(564,62,o),
(398,62,cs),
(315,62,o),
(248,93,o),
(203,144,cs),
(157,195,o),
(136,266,o),
(146,347,cs),
(169,527,o),
(290,638,o),
(471,638,cs),
(510,638,o),
(550,633,o),
(589,618,cs),
(627,603,o),
(665,580,o),
(693,544,c),
(753,606,l),
(718,645,o),
(675,671,o),
(629,687,cs),
(583,703,o),
(533,710,o),
(485,710,cs),
(252,710,o),
(100,581,o),
(71,348,cs),
(58,247,o),
(82,157,o),
(137,93,cs),
(192,29,o),
(276,-10,o),
(384,-10,cs)
);
}
);
width = 830;
},
{
layerId = "947D3E97-14BA-4793-BB0D-B2B2C86BF4D4";
shapes = (
{
closed = 1;
nodes = (
(615,-10,o),
(741,117,o),
(768,337,c),
(436,337,l),
(432,305,l),
(739,305,l),
(731,312,l),
(690,115,o),
(590,22,o),
(388,22,cs),
(281,22,o),
(207,59,o),
(163,120,cs),
(119,180,o),
(101,263,o),
(112,352,cs),
(138,561,o),
(273,678,o),
(484,678,cs),
(529,678,o),
(569,671,o),
(604,658,cs),
(639,645,o),
(669,629,o),
(694,609,c),
(714,639,l),
(691,656,o),
(664,672,o),
(628,687,cs),
(592,702,o),
(550,710,o),
(493,710,cs),
(261,710,o),
(106,582,o),
(79,352,cs),
(67,251,o),
(87,162,o),
(139,96,cs),
(190,30,o),
(274,-10,o),
(387,-10,cs)
);
}
);
width = 830;
},
{
layerId = "082E40FD-8E35-4556-8ECC-8D6EB191F145";
shapes = (
{
closed = 1;
nodes = (
(674,-7,o),
(779,177,o),
(781,408,c),
(391,408,l),
(391,258,l),
(652,258,l),
(604,307,l),
(591,205,o),
(535,148,o),
(432,148,cs),
(379,148,o),
(330,165,o),
(295,199,cs),
(259,233,o),
(238,283,o),
(238,350,cs),
(238,461,o),
(303,555,o),
(421,555,cs),
(460,555,o),
(498,543,o),
(532,526,cs),
(566,509,o),
(597,485,o),
(621,458,c),
(729,571,l),
(696,620,o),
(647,656,o),
(593,678,cs),
(539,700,o),
(478,710,o),
(418,710,cs),
(203,710,o),
(48,569,o),
(48,351,cs),
(48,243,o),
(91,153,o),
(159,91,cs),
(227,29,o),
(319,-7,o),
(418,-7,cs)
);
}
);
width = 830;
},
{
layerId = "0E2BF6D7-5696-44D4-BEAE-B9A848D3BB08";
shapes = (
{
closed = 1;
nodes = (
(650,-10,o),
(769,137,o),
(769,354,c),
(417,354,l),
(417,280,l),
(715,280,l),
(694,308,l),
(684,149,o),
(580,62,o),
(424,62,cs),
(341,62,o),
(270,93,o),
(219,144,cs),
(167,195,o),
(137,266,o),
(137,347,cs),
(137,513,o),
(258,638,o),
(425,638,cs),
(464,638,o),
(505,633,o),
(546,618,cs),
(586,603,o),
(626,580,o),
(659,544,c),
(711,606,l),
(671,645,o),
(625,671,o),
(577,687,cs),
(529,703,o),
(478,710,o),
(430,710,cs),
(215,710,o),
(61,564,o),
(61,348,cs),
(61,247,o),
(96,157,o),
(159,93,cs),
(222,29,o),
(311,-10,o),
(419,-10,cs)
);
}
);
width = 830;
},
{
layerId = "B8F76C44-C3C5-4DD7-B95D-04ADE237D0F5";
shapes = (
{
closed = 1;
nodes = (
(634,-10,o),
(760,136,o),
(760,337,c),
(428,337,l),
(428,305,l),
(735,305,l),
(726,312,l),
(712,130,o),
(603,22,o),
(419,22,cs),
(312,22,o),
(234,59,o),
(182,120,cs),
(130,180,o),
(102,263,o),
(102,352,cs),
(102,546,o),
(240,678,o),
(433,678,cs),
(478,678,o),
(519,671,o),
(556,658,cs),
(592,645,o),
(624,629,o),
(652,609,c),
(668,639,l),
(643,656,o),
(613,672,o),
(576,687,cs),
(539,702,o),
(495,710,o),
(438,710,cs),
(228,710,o),
(69,565,o),
(69,352,cs),
(69,251,o),
(101,162,o),
(161,96,cs),
(220,30,o),
(309,-10,o),
(422,-10,cs)
);
}
);
width = 830;
}
);
leftKerningGroup = C2;
rightKerningGroup = D;
unicode = 71;
},
{
glyphname = H;
layers = (
{
layerId = "B0F09294-F33C-4320-A79E-9223B78F399B";
shapes = (
{
closed = 1;
nodes = (
(611,440,l),
(185,440,l),
(166,290,l),
(592,290,l)
);
},
{
closed = 1;
nodes = (
(308,700,l),
(128,700,l),
(40,0,l),
(220,0,l)
);
},
{
closed = 1;
nodes = (
(466,0,l),
(646,0,l),
(734,700,l),
(554,700,l)
);
}
);
width = 754;
},
{
layerId = "84E89F29-712A-4FA0-8D04-7033136CE2AB";
shapes = (
{
closed = 1;
nodes = (
(620,405,l),
(168,405,l),
(159,335,l),
(611,335,l)
);
},
{
closed = 1;
nodes = (
(242,700,l),
(168,700,l),
(80,0,l),
(154,0,l)
);
},
{
closed = 1;
nodes = (
(532,0,l),
(606,0,l),
(694,700,l),
(620,700,l)
);
}
);
width = 754;
},
{
layerId = "947D3E97-14BA-4793-BB0D-B2B2C86BF4D4";
shapes = (
{
closed = 1;
nodes = (
(622,397,l),
(159,397,l),
(155,366,l),
(618,366,l)
);
},
{
closed = 1;
nodes = (
(213,700,l),
(180,700,l),
(92,0,l),
(125,0,l)
);
},
{
closed = 1;
nodes = (
(561,0,l),
(594,0,l),
(682,700,l),
(649,700,l)
);
}
);
width = 754;
},
{
layerId = "082E40FD-8E35-4556-8ECC-8D6EB191F145";
shapes = (
{
closed = 1;
nodes = (
(590,440,l),
(164,440,l),
(164,290,l),
(590,290,l)
);
},
{
closed = 1;
nodes = (
(254,700,l),
(74,700,l),
(74,0,l),
(254,0,l)
);
},
{
closed = 1;
nodes = (
(500,0,l),
(680,0,l),
(680,700,l),
(500,700,l)
);
}
);
width = 754;
},
{
layerId = "0E2BF6D7-5696-44D4-BEAE-B9A848D3BB08";
shapes = (
{
closed = 1;
nodes = (
(603,405,l),
(151,405,l),
(151,335,l),
(603,335,l)
);
},
{
closed = 1;
nodes = (
(188,700,l),
(114,700,l),
(114,0,l),
(188,0,l)
);
},
{
closed = 1;
nodes = (
(566,0,l),
(640,0,l),
(640,700,l),
(566,700,l)
);
}
);
width = 754;
},
{
layerId = "B8F76C44-C3C5-4DD7-B95D-04ADE237D0F5";
shapes = (
{
closed = 1;
nodes = (
(606,397,l),
(143,397,l),
(143,366,l),
(606,366,l)
);
},
{
closed = 1;
nodes = (
(159,700,l),
(126,700,l),
(126,0,l),
(159,0,l)
);
},
{
closed = 1;
nodes = (
(595,0,l),
(628,0,l),
(628,700,l),
(595,700,l)
);
}
);
width = 754;
}
);
rightKerningGroup = H;
unicode = 72;
},
{
glyphname = Hbar;
layers = (
{
layerId = "B0F09294-F33C-4320-A79E-9223B78F399B";
shapes = (
{
closed = 1;
nodes = (
(55,490,l),
(101,490,l),
(40,0,l),
(220,0,l),
(256,290,l),
(502,290,l),
(466,0,l),
(646,0,l),
(707,490,l),
(753,490,l),
(770,620,l),
(724,620,l),
(734,700,l),
(554,700,l),
(544,620,l),
(298,620,l),
(308,700,l),
(128,700,l),
(118,620,l),
(72,620,l)
);
},
{
closed = 1;
nodes = (
(275,440,l),
(281,490,l),
(527,490,l),
(521,440,l)
);
}
);
width = 754;
},
{
layerId = "84E89F29-712A-4FA0-8D04-7033136CE2AB";
shapes = (
{
closed = 1;
nodes = (
(74,510,l),
(144,510,l),
(80,0,l),
(154,0,l),
(196,335,l),
(574,335,l),
(532,0,l),
(606,0,l),
(670,510,l),
(740,510,l),
(749,580,l),
(679,580,l),
(694,700,l),
(620,700,l),
(605,580,l),
(227,580,l),
(242,700,l),
(168,700,l),
(153,580,l),
(83,580,l)
);
},
{
closed = 1;
nodes = (
(205,405,l),
(218,510,l),
(596,510,l),
(583,405,l)
);
}
);
width = 754;
},
{
layerId = "947D3E97-14BA-4793-BB0D-B2B2C86BF4D4";
shapes = (
{
closed = 1;
nodes = (
(64,526,l),
(158,526,l),
(92,0,l),
(125,0,l),
(171,366,l),
(607,366,l),
(561,0,l),
(594,0,l),
(660,526,l),
(754,526,l),
(758,557,l),
(664,557,l),
(682,700,l),
(649,700,l),
(631,557,l),
(195,557,l),
(213,700,l),
(180,700,l),
(162,557,l),
(68,557,l)
);
},
{
closed = 1;
nodes = (
(175,397,l),
(191,526,l),
(627,526,l),
(611,397,l)
);
}
);
width = 754;
},
{
layerId = "082E40FD-8E35-4556-8ECC-8D6EB191F145";
shapes = (
{
closed = 1;
nodes = (
(28,490,l),
(74,490,l),
(74,0,l),
(254,0,l),
(254,290,l),
(500,290,l),
(500,0,l),
(680,0,l),
(680,490,l),
(726,490,l),
(726,620,l),
(680,620,l),
(680,700,l),
(500,700,l),
(500,620,l),
(254,620,l),
(254,700,l),
(74,700,l),
(74,620,l),
(28,620,l)
);
},
{
closed = 1;
nodes = (
(254,440,l),
(254,490,l),
(500,490,l),
(500,440,l)
);
}
);
width = 754;
},
{
layerId = "0E2BF6D7-5696-44D4-BEAE-B9A848D3BB08";
shapes = (
{
closed = 1;
nodes = (
(44,510,l),
(114,510,l),
(114,0,l),
(188,0,l),
(188,335,l),
(566,335,l),
(566,0,l),
(640,0,l),
(640,510,l),
(710,510,l),
(710,580,l),
(640,580,l),
(640,700,l),
(566,700,l),
(566,580,l),
(188,580,l),
(188,700,l),
(114,700,l),
(114,580,l),
(44,580,l)
);
},
{
closed = 1;
nodes = (
(188,405,l),
(188,510,l),
(566,510,l),
(566,405,l)
);
}
);
width = 754;
},
{
layerId = "B8F76C44-C3C5-4DD7-B95D-04ADE237D0F5";
shapes = (
{
closed = 1;
nodes = (
(32,526,l),
(126,526,l),
(126,0,l),
(159,0,l),
(159,366,l),
(595,366,l),
(595,0,l),
(628,0,l),
(628,526,l),
(722,526,l),
(722,557,l),
(628,557,l),
(628,700,l),
(595,700,l),
(595,557,l),
(159,557,l),
(159,700,l),
(126,700,l),
(126,557,l),
(32,557,l)
);
},
{
closed = 1;
nodes = (
(159,397,l),
(159,526,l),
(595,526,l),
(595,397,l)
);
}
);
width = 754;
}
);
rightKerningGroup = H;
unicode = 294;
},
{
glyphname = I;
layers = (
{
layerId = "B0F09294-F33C-4320-A79E-9223B78F399B";
shapes = (
{
closed = 1;
nodes = (
(295,700,l),
(115,700,l),
(27,0,l),
(207,0,l)
);
}
);
width = 302;
},
{
layerId = "84E89F29-712A-4FA0-8D04-7033136CE2AB";
shapes = (
{
closed = 1;
nodes = (
(242,700,l),
(168,700,l),
(80,0,l),
(154,0,l)
);
}
);
width = 302;
},
{
layerId = "947D3E97-14BA-4793-BB0D-B2B2C86BF4D4";
shapes = (
{
closed = 1;
nodes = (
(221,700,l),
(188,700,l),
(100,0,l),
(133,0,l)
);
}
);
width = 302;
},
{
layerId = "082E40FD-8E35-4556-8ECC-8D6EB191F145";
shapes = (
{
closed = 1;
nodes = (
(241,700,l),
(61,700,l),
(61,0,l),
(241,0,l)
);
}
);
width = 302;
},
{
layerId = "0E2BF6D7-5696-44D4-BEAE-B9A848D3BB08";
shapes = (
{
closed = 1;
nodes = (
(188,700,l),
(114,700,l),
(114,0,l),
(188,0,l)
);
}
);
width = 302;
},
{
layerId = "B8F76C44-C3C5-4DD7-B95D-04ADE237D0F5";
shapes = (
{
closed = 1;
nodes = (
(167,700,l),
(134,700,l),
(134,0,l),
(167,0,l)
);
}
);
width = 302;
}
);
rightKerningGroup = H;
unicode = 73;
},
{
glyphname = J;
layers = (
{
layerId = "B0F09294-F33C-4320-A79E-9223B78F399B";
shapes = (
{
closed = 1;
nodes = (
(82,-5,o),
(178,25,o),
(250,88,o),
(296,185,o),
(304,251,qs),
(361,700,l),
(181,700,l),
(125,258,ls),
(118,203,o),
(78,150,o),
(40,150,qs),
(30,150,o),
(7,153,o),
(-1,156,q),
(-21,1,l),
(-13,-1,o),
(7,-5,o),
(24,-5,qs)
);
}
);
width = 362;
},
{
layerId = "84E89F29-712A-4FA0-8D04-7033136CE2AB";
shapes = (
{
closed = 1;
nodes = (
(85,-5,o),
(156,20,o),
(208,69,o),
(242,142,o),
(248,191,qs),
(312,700,l),
(238,700,l),
(174,192,ls),
(166,126,o),
(106,67,o),
(48,67,qs),
(38,67,o),
(16,70,o),
(7,73,q),
(-2,1,l),
(6,-1,o),
(26,-5,o),
(43,-5,qs)
);
}
);
width = 362;
},
{
layerId = "947D3E97-14BA-4793-BB0D-B2B2C86BF4D4";
shapes = (
{
closed = 1;
nodes = (
(77,-5,o),
(136,13,o),
(182,52,o),
(210,113,o),
(215,155,qs),
(284,700,l),
(251,700,l),
(184,164,ls),
(175,93,o),
(106,27,o),
(43,27,qs),
(29,27,o),
(8,30,o),
(-1,33,q),
(-5,1,l),
(3,-1,o),
(23,-5,o),
(40,-5,qs)
);
}
);
width = 362;
},
{
layerId = "082E40FD-8E35-4556-8ECC-8D6EB191F145";
shapes = (
{
closed = 1;
nodes = (
(117,-5,o),
(209,25,o),
(273,88,o),
(307,185,o),
(307,251,qs),
(307,700,l),
(127,700,l),
(127,258,ls),
(127,203,o),
(93,150,o),
(55,150,qs),
(45,150,o),
(22,153,o),
(13,156,q),
(13,1,l),
(21,-1,o),
(42,-5,o),
(59,-5,qs)
);
}
);
width = 362;
},
{
layerId = "0E2BF6D7-5696-44D4-BEAE-B9A848D3BB08";
shapes = (
{
closed = 1;
nodes = (
(120,-5,o),
(187,20,o),
(233,69,o),
(258,142,o),
(258,191,qs),
(258,700,l),
(184,700,l),
(184,192,ls),
(184,126,o),
(132,67,o),
(74,67,qs),
(64,67,o),
(41,70,o),
(32,73,q),
(32,1,l),
(40,-1,o),
(61,-5,o),
(78,-5,qs)
);
}
);
width = 362;
},
{
layerId = "B8F76C44-C3C5-4DD7-B95D-04ADE237D0F5";
shapes = (
{
closed = 1;
nodes = (
(112,-5,o),
(168,13,o),
(209,52,o),
(230,113,o),
(230,155,qs),
(230,700,l),
(197,700,l),
(197,164,ls),
(197,93,o),
(137,27,o),
(74,27,qs),
(60,27,o),
(38,30,o),
(29,33,q),
(29,1,l),
(37,-1,o),
(58,-5,o),
(75,-5,qs)
);
}
);
width = 362;
}
);
leftKerningGroup = J2;
rightKerningGroup = J;
unicode = 74;
},
{
glyphname = K;
layers = (
{
layerId = "B0F09294-F33C-4320-A79E-9223B78F399B";
shapes = (
{
closed = 1;
nodes = (
(426,0,l),
(637,0,l),
(640,20,l),
(416,430,l),
(407,359,l),
(664,680,l),
(667,700,l),
(472,700,l),
(229,370,l)
);
},
{
closed = 1;
nodes = (
(145,291,l),
(346,291,l),
(366,445,l),
(165,445,l)
);
},
{
closed = 1;
nodes = (
(274,700,l),
(94,700,l),
(6,0,l),
(186,0,l)
);
}
);
width = 647;
},
{
layerId = "84E89F29-712A-4FA0-8D04-7033136CE2AB";
shapes = (
{
closed = 1;
nodes = (
(507,0,l),
(589,0,l),
(592,20,l),
(294,406,l),
(286,340,l),
(595,680,l),
(598,700,l),
(524,700,l),
(224,367,l)
);
},
{
closed = 1;
nodes = (
(155,334,l),
(279,334,l),
(287,402,l),
(163,402,l)
);
},
{
closed = 1;
nodes = (
(242,700,l),
(168,700,l),
(80,0,l),
(154,0,l)
);
}
);
width = 647;
},
{
layerId = "947D3E97-14BA-4793-BB0D-B2B2C86BF4D4";
shapes = (
{
closed = 1;
nodes = (
(532,0,l),
(558,0,l),
(561,20,l),
(244,389,l),
(238,344,l),
(576,680,l),
(579,700,l),
(559,700,l),
(216,363,l)
);
},
{
closed = 1;
nodes = (
(163,347,l),
(231,347,l),
(235,379,l),
(167,379,l)
);
},
{
closed = 1;
nodes = (
(235,700,l),
(203,700,l),
(115,0,l),
(147,0,l)
);
}
);
width = 647;
},
{
layerId = "082E40FD-8E35-4556-8ECC-8D6EB191F145";
shapes = (
{
closed = 1;
nodes = (
(460,0,l),
(671,0,l),
(671,20,l),
(396,430,l),
(396,359,l),
(613,680,l),
(613,700,l),
(418,700,l),
(217,370,l)
);
},
{
closed = 1;
nodes = (
(143,291,l),
(344,291,l),
(344,445,l),
(143,445,l)
);
},
{
closed = 1;
nodes = (
(220,700,l),
(40,700,l),
(40,0,l),
(220,0,l)
);
}
);
width = 647;
},
{
layerId = "0E2BF6D7-5696-44D4-BEAE-B9A848D3BB08";
shapes = (
{
closed = 1;
nodes = (
(541,0,l),
(623,0,l),
(623,20,l),
(277,406,l),
(277,340,l),
(544,680,l),
(544,700,l),
(470,700,l),
(212,367,l)
);
},
{
closed = 1;
nodes = (
(147,334,l),
(271,334,l),
(271,402,l),
(147,402,l)
);
},
{
closed = 1;
nodes = (
(188,700,l),
(114,700,l),
(114,0,l),
(188,0,l)
);
}
);
width = 647;
},
{
layerId = "B8F76C44-C3C5-4DD7-B95D-04ADE237D0F5";
shapes = (
{
closed = 1;
nodes = (
(566,0,l),
(592,0,l),
(592,20,l),
(229,389,l),
(229,344,l),
(525,680,l),
(525,700,l),
(505,700,l),
(205,363,l)
);
},
{
closed = 1;
nodes = (
(154,347,l),
(222,347,l),
(222,379,l),
(154,379,l)
);
},
{
closed = 1;
nodes = (
(181,700,l),
(149,700,l),
(149,0,l),
(181,0,l)
);
}
);
width = 647;
}
);
rightKerningGroup = K;
unicode = 75;
},
{
glyphname = L;
layers = (
{
layerId = "B0F09294-F33C-4320-A79E-9223B78F399B";
shapes = (
{
closed = 1;
nodes = (
(312,700,l),
(132,700,l),
(44,0,l),
(436,0,l),
(455,150,l),
(143,150,l),
(233,69,l)
);
}
);
width = 504;
},
{
layerId = "84E89F29-712A-4FA0-8D04-7033136CE2AB";
shapes = (
{
closed = 1;
nodes = (
(242,700,l),
(168,700,l),
(80,0,l),
(433,0,l),
(442,70,l),
(130,70,l),
(159,37,l)
);
}
);
width = 504;
},
{
layerId = "947D3E97-14BA-4793-BB0D-B2B2C86BF4D4";
shapes = (
{
closed = 1;
nodes = (
(213,700,l),
(180,700,l),
(92,0,l),
(429,0,l),
(433,31,l),
(121,31,l),
(128,22,l)
);
}
);
width = 504;
},
{
layerId = "082E40FD-8E35-4556-8ECC-8D6EB191F145";
shapes = (
{
closed = 1;
nodes = (
(258,700,l),
(78,700,l),
(78,0,l),
(470,0,l),
(470,150,l),
(158,150,l),
(258,69,l)
);
}
);
width = 504;
},
{
layerId = "0E2BF6D7-5696-44D4-BEAE-B9A848D3BB08";
shapes = (
{
closed = 1;
nodes = (
(188,700,l),
(114,700,l),
(114,0,l),
(467,0,l),
(467,70,l),
(155,70,l),
(188,37,l)
);
}
);
width = 504;
},
{
layerId = "B8F76C44-C3C5-4DD7-B95D-04ADE237D0F5";
shapes = (
{
closed = 1;
nodes = (
(159,700,l),
(126,700,l),
(126,0,l),
(463,0,l),
(463,31,l),
(151,31,l),
(159,22,l)
);
}
);
width = 504;
}
);
rightKerningGroup = L;
unicode = 76;
},
{
glyphname = Lslash;
layers = (
{
layerId = "B0F09294-F33C-4320-A79E-9223B78F399B";
shapes = (
{
closed = 1;
nodes = (
(312,700,l),
(132,700,l),
(44,0,l),
(436,0,l),
(455,150,l),
(143,150,l),
(233,69,l)
);
},
{
closed = 1;
nodes = (
(11,135,l),
(139,231,l),
(230,285,l),
(417,422,l),
(437,581,l),
(216,416,l),
(141,372,l),
(30,287,l)
);
}
);
width = 504;
},
{
layerId = "84E89F29-712A-4FA0-8D04-7033136CE2AB";
shapes = (
{
closed = 1;
nodes = (
(242,700,l),
(168,700,l),
(80,0,l),
(433,0,l),
(442,70,l),
(130,70,l),
(159,37,l)
);
},
{
closed = 1;
nodes = (
(21,158,l),
(137,250,l),
(170,269,l),
(407,457,l),
(418,543,l),
(173,349,l),
(139,330,l),
(32,245,l)
);
}
);
width = 504;
},
{
layerId = "947D3E97-14BA-4793-BB0D-B2B2C86BF4D4";
shapes = (
{
closed = 1;
nodes = (
(213,700,l),
(180,700,l),
(92,0,l),
(429,0,l),
(433,31,l),
(121,31,l),
(128,22,l)
);
},
{
closed = 1;
nodes = (
(30,177,l),
(136,263,l),
(151,274,l),
(401,478,l),
(405,514,l),
(143,298,l),
(135,297,l),
(35,212,l)
);
}
);
width = 504;
},
{
layerId = "082E40FD-8E35-4556-8ECC-8D6EB191F145";
shapes = (
{
closed = 1;
nodes = (
(258,700,l),
(78,700,l),
(78,0,l),
(470,0,l),
(470,150,l),
(158,150,l),
(258,69,l)
);
},
{
closed = 1;
nodes = (
(28,135,l),
(144,231,l),
(228,285,l),
(398,422,l),
(398,581,l),
(198,416,l),
(128,372,l),
(28,287,l)
);
}
);
width = 504;
},
{
layerId = "0E2BF6D7-5696-44D4-BEAE-B9A848D3BB08";
shapes = (
{
closed = 1;
nodes = (
(188,700,l),
(114,700,l),
(114,0,l),
(467,0,l),
(467,70,l),
(155,70,l),
(188,37,l)
);
},
{
closed = 1;
nodes = (
(35,158,l),
(140,250,l),
(170,269,l),
(384,457,l),
(384,543,l),
(163,349,l),
(132,330,l),
(35,245,l)
);
}
);
width = 504;
},
{
layerId = "B8F76C44-C3C5-4DD7-B95D-04ADE237D0F5";
shapes = (
{
closed = 1;
nodes = (
(159,700,l),
(126,700,l),
(126,0,l),
(463,0,l),
(463,31,l),
(151,31,l),
(159,22,l)
);
},
{
closed = 1;
nodes = (
(42,177,l),
(137,263,l),
(151,274,l),
(375,478,l),
(375,514,l),
(140,298,l),
(132,297,l),
(42,212,l)
);
}
);
width = 504;
}
);
rightKerningGroup = L;
unicode = 321;
},
{
glyphname = M;
layers = (
{
layerId = "B0F09294-F33C-4320-A79E-9223B78F399B";
shapes = (
{
closed = 1;
nodes = (
(-1,0,l),
(165,0,l),
(276,439,l),
(246,439,l),
(370,0,l),
(446,0,l),
(674,438,l),
(645,438,l),
(650,0,l),
(823,0,l),
(815,700,l),
(655,700,l),
(388,172,l),
(478,183,l),
(334,700,l),
(174,700,l)
);
}
);
width = 890;
},
{
layerId = "84E89F29-712A-4FA0-8D04-7033136CE2AB";
shapes = (
{
closed = 1;
nodes = (
(41,0,l),
(114,0,l),
(257,562,l),
(235,562,l),
(397,-5,l),
(416,-5,l),
(713,561,l),
(696,561,l),
(709,0,l),
(781,0,l),
(764,700,l),
(717,700,l),
(403,99,l),
(441,99,l),
(271,700,l),
(224,700,l)
);
}
);
width = 890;
},
{
layerId = "947D3E97-14BA-4793-BB0D-B2B2C86BF4D4";
shapes = (
{
closed = 1;
nodes = (
(56,0,l),
(85,0,l),
(243,607,l),
(232,607,l),
(401,0,l),
(414,0,l),
(734,604,l),
(729,604,l),
(734,0,l),
(766,0,l),
(767,700,l),
(756,700,l),
(416,60,l),
(417,60,l),
(239,700,l),
(228,700,l)
);
}
);
width = 890;
},
{
layerId = "082E40FD-8E35-4556-8ECC-8D6EB191F145";
shapes = (
{
closed = 1;
nodes = (
(33,0,l),
(199,0,l),
(255,439,l),
(225,439,l),
(404,0,l),
(480,0,l),
(653,438,l),
(624,438,l),
(684,0,l),
(857,0,l),
(761,700,l),
(601,700,l),
(400,172,l),
(489,183,l),
(280,700,l),
(120,700,l)
);
}
);
width = 890;
},
{
layerId = "0E2BF6D7-5696-44D4-BEAE-B9A848D3BB08";
shapes = (
{
closed = 1;
nodes = (
(75,0,l),
(148,0,l),
(221,562,l),
(199,562,l),
(432,-5,l),
(451,-5,l),
(677,561,l),
(660,561,l),
(743,0,l),
(815,0,l),
(710,700,l),
(663,700,l),
(425,99,l),
(463,99,l),
(217,700,l),
(170,700,l)
);
}
);
width = 890;
},
{
layerId = "B8F76C44-C3C5-4DD7-B95D-04ADE237D0F5";
shapes = (
{
closed = 1;
nodes = (
(90,0,l),
(119,0,l),
(201,607,l),
(190,607,l),
(435,0,l),
(448,0,l),
(692,604,l),
(687,604,l),
(768,0,l),
(800,0,l),
(713,700,l),
(702,700,l),
(442,60,l),
(443,60,l),
(185,700,l),
(174,700,l)
);
}
);
width = 890;
}
);
unicode = 77;
},
{
glyphname = N;
layers = (
{
layerId = "B0F09294-F33C-4320-A79E-9223B78F399B";
shapes = (
{
closed = 1;
nodes = (
(40,0,l),
(220,0,l),
(275,437,l),
(231,437,l),
(546,0,l),
(665,0,l),
(753,700,l),
(573,700,l),
(516,245,l),
(581,245,l),
(256,700,l),
(128,700,l)
);
}
);
width = 773;
},
{
layerId = "84E89F29-712A-4FA0-8D04-7033136CE2AB";
shapes = (
{
closed = 1;
nodes = (
(80,0,l),
(154,0,l),
(227,587,l),
(200,587,l),
(583,0,l),
(625,0,l),
(713,700,l),
(639,700,l),
(567,128,l),
(594,128,l),
(223,700,l),
(168,700,l)
);
}
);
width = 773;
},
{
layerId = "947D3E97-14BA-4793-BB0D-B2B2C86BF4D4";
shapes = (
{
closed = 1;
nodes = (
(100,0,l),
(133,0,l),
(215,655,l),
(182,655,l),
(595,0,l),
(605,0,l),
(693,700,l),
(660,700,l),
(580,61,l),
(597,61,l),
(194,700,l),
(188,700,l)
);
}
);
width = 773;
},
{
layerId = "082E40FD-8E35-4556-8ECC-8D6EB191F145";
shapes = (
{
closed = 1;
nodes = (
(74,0,l),
(254,0,l),
(254,437,l),
(210,437,l),
(580,0,l),
(699,0,l),
(699,700,l),
(519,700,l),
(519,245,l),
(584,245,l),
(202,700,l),
(74,700,l)
);
}
);
width = 773;
},
{
layerId = "0E2BF6D7-5696-44D4-BEAE-B9A848D3BB08";
shapes = (
{
closed = 1;
nodes = (
(114,0,l),
(188,0,l),
(188,587,l),
(161,587,l),
(617,0,l),
(659,0,l),
(659,700,l),
(585,700,l),
(585,128,l),
(612,128,l),
(169,700,l),
(114,700,l)
);
}
);
width = 773;
},
{
layerId = "B8F76C44-C3C5-4DD7-B95D-04ADE237D0F5";
shapes = (
{
closed = 1;
nodes = (
(134,0,l),
(167,0,l),
(167,655,l),
(134,655,l),
(629,0,l),
(639,0,l),
(639,700,l),
(606,700,l),
(606,61,l),
(623,61,l),
(140,700,l),
(134,700,l)
);
}
);
width = 773;
}
);
rightKerningGroup = H;
unicode = 78;
},
{
glyphname = Eng;
layers = (
{
layerId = "B0F09294-F33C-4320-A79E-9223B78F399B";
shapes = (
{
closed = 1;
nodes = (
(30,0,l),
(210,0,l),
(271,489,l),
(202,489,l),
(501,7,l),
(630,158,l),
(296,700,l),
(118,700,l)
);
},
{
closed = 1;
nodes = (
(455,-275,o),
(547,-245,o),
(618,-182,o),
(664,-85,o),
(673,-19,qs),
(763,700,l),
(583,700,l),
(493,-12,ls),
(487,-67,o),
(445,-120,o),
(407,-120,qs),
(398,-120,o),
(375,-117,o),
(367,-114,q),
(347,-269,l),
(355,-271,o),
(378,-275,o),
(400,-275,qs)
);
}
);
width = 773;
},
{
layerId = "84E89F29-712A-4FA0-8D04-7033136CE2AB";
shapes = (
{
closed = 1;
nodes = (
(80,0,l),
(154,0,l),
(228,589,l),
(200,589,l),
(570,21,l),
(585,142,l),
(223,700,l),
(168,700,l)
);
},
{
closed = 1;
nodes = (
(461,-215,o),
(530,-191,o),
(582,-142,o),
(616,-69,o),
(623,-19,qs),
(713,700,l),
(639,700,l),
(549,-12,ls),
(541,-81,o),
(484,-143,o),
(424,-143,qs),
(414,-143,o),
(390,-140,o),
(382,-137,q),
(373,-209,l),
(381,-211,o),
(402,-215,o),
(419,-215,qs)
);
}
);
width = 773;
},
{
layerId = "947D3E97-14BA-4793-BB0D-B2B2C86BF4D4";
shapes = (
{
closed = 1;
nodes = (
(100,0,l),
(133,0,l),
(215,654,l),
(183,654,l),
(593,4,l),
(599,57,l),
(194,700,l),
(188,700,l)
);
},
{
closed = 1;
nodes = (
(465,-179,o),
(523,-160,o),
(569,-122,o),
(597,-61,o),
(603,-19,qs),
(693,700,l),
(660,700,l),
(570,-12,ls),
(562,-81,o),
(493,-147,o),
(429,-147,qs),
(419,-147,o),
(395,-144,o),
(386,-141,q),
(382,-173,l),
(390,-175,o),
(411,-179,o),
(428,-179,qs)
);
}
);
width = 773;
},
{
layerId = "082E40FD-8E35-4556-8ECC-8D6EB191F145";
shapes = (
{
closed = 1;
nodes = (
(64,0,l),
(244,0,l),
(244,489,l),
(175,489,l),
(534,7,l),
(644,158,l),
(242,700,l),
(64,700,l)
);
},
{
closed = 1;
nodes = (
(523,-275,o),
(612,-245,o),
(675,-182,o),
(709,-85,o),
(709,-19,qs),
(709,700,l),
(529,700,l),
(529,-12,ls),
(529,-67,o),
(494,-120,o),
(456,-120,qs),
(447,-120,o),
(424,-117,o),
(415,-114,q),
(415,-269,l),
(423,-271,o),
(446,-275,o),
(468,-275,qs)
);
}
);
width = 773;
},
{
layerId = "0E2BF6D7-5696-44D4-BEAE-B9A848D3BB08";
shapes = (
{
closed = 1;
nodes = (
(114,0,l),
(188,0,l),
(188,589,l),
(160,589,l),
(601,21,l),
(601,142,l),
(169,700,l),
(114,700,l)
);
},
{
closed = 1;
nodes = (
(522,-215,o),
(588,-191,o),
(634,-142,o),
(659,-69,o),
(659,-19,qs),
(659,700,l),
(585,700,l),
(585,-12,ls),
(585,-81,o),
(536,-143,o),
(476,-143,qs),
(466,-143,o),
(442,-140,o),
(433,-137,q),
(433,-209,l),
(441,-211,o),
(463,-215,o),
(480,-215,qs)
);
}
);
width = 773;
},
{
layerId = "B8F76C44-C3C5-4DD7-B95D-04ADE237D0F5";
shapes = (
{
closed = 1;
nodes = (
(134,0,l),
(167,0,l),
(167,654,l),
(135,654,l),
(626,4,l),
(626,57,l),
(140,700,l),
(134,700,l)
);
},
{
closed = 1;
nodes = (
(521,-179,o),
(577,-160,o),
(618,-122,o),
(639,-61,o),
(639,-19,qs),
(639,700,l),
(606,700,l),
(606,-12,ls),
(606,-81,o),
(545,-147,o),
(481,-147,qs),
(471,-147,o),
(447,-144,o),
(438,-141,q),
(438,-173,l),
(446,-175,o),
(467,-179,o),
(484,-179,qs)
);
}
);
width = 773;
}
);
rightKerningGroup = H;
unicode = 330;
},
{
glyphname = O;
layers = (
{
layerId = "B0F09294-F33C-4320-A79E-9223B78F399B";
shapes = (
{
closed = 1;
nodes = (
(343,143,o),
(297,162,o),
(268,198,cs),
(238,233,o),
(225,284,o),
(233,351,cs),
(249,482,o),
(319,560,o),
(452,560,cs),
(508,560,o),
(555,541,o),
(584,506,cs),
(614,470,o),
(627,418,o),
(619,351,cs),
(603,220,o),
(533,143,o),
(400,143,cs)
);
},
{
closed = 1;
nodes = (
(613,-7,o),
(775,116,o),
(804,351,cs),
(817,459,o),
(791,548,o),
(732,612,cs),
(672,675,o),
(583,710,o),
(471,710,cs),
(238,710,o),
(77,587,o),
(48,351,cs),
(34,243,o),
(60,154,o),
(117,91,cs),
(175,28,o),
(265,-7,o),
(381,-7,cs)
);
}
);
width = 832;
},
{
layerId = "84E89F29-712A-4FA0-8D04-7033136CE2AB";
shapes = (
{
closed = 1;
nodes = (
(310,62,o),
(245,92,o),
(201,144,cs),
(157,195,o),
(136,266,o),
(147,350,cs),
(169,526,o),
(285,638,o),
(462,638,cs),
(542,638,o),
(608,608,o),
(652,557,cs),
(695,505,o),
(715,434,o),
(705,350,cs),
(683,174,o),
(567,62,o),
(390,62,cs)
);
},
{
closed = 1;
nodes = (
(607,-10,o),
(752,123,o),
(781,349,cs),
(794,452,o),
(770,541,o),
(716,606,cs),
(662,671,o),
(578,710,o),
(471,710,cs),
(246,710,o),
(99,576,o),
(71,351,cs),
(58,250,o),
(83,159,o),
(137,94,cs),
(191,29,o),
(274,-10,o),
(381,-10,cs)
);
}
);
width = 832;
},
{
layerId = "947D3E97-14BA-4793-BB0D-B2B2C86BF4D4";
shapes = (
{
closed = 1;
nodes = (
(296,21,o),
(221,57,o),
(173,117,cs),
(124,176,o),
(99,257,o),
(111,350,cs),
(136,546,o),
(267,678,o),
(467,678,cs),
(556,678,o),
(629,642,o),
(678,583,cs),
(726,524,o),
(752,443,o),
(740,350,cs),
(715,155,o),
(583,21,o),
(385,21,cs)
);
},
{
closed = 1;
nodes = (
(600,-11,o),
(748,133,o),
(773,348,cs),
(785,451,o),
(759,541,o),
(704,606,cs),
(649,671,o),
(567,710,o),
(471,710,cs),
(254,710,o),
(105,566,o),
(78,351,cs),
(65,248,o),
(93,158,o),
(148,93,cs),
(203,28,o),
(285,-11,o),
(381,-11,cs)
);
}
);
width = 832;
},
{
layerId = "082E40FD-8E35-4556-8ECC-8D6EB191F145";
shapes = (
{
closed = 1;
nodes = (
(359,143,o),
(311,162,o),
(277,198,cs),
(243,233,o),
(223,284,o),
(223,351,cs),
(223,472,o),
(290,560,o),
(416,560,cs),
(472,560,o),
(521,541,o),
(555,506,cs),
(589,470,o),
(609,418,o),
(609,351,cs),
(609,230,o),
(542,143,o),
(416,143,cs)
);
},
{
closed = 1;
nodes = (
(630,-7,o),
(794,131,o),
(794,351,cs),
(794,459,o),
(756,548,o),
(689,612,cs),
(622,675,o),
(528,710,o),
(416,710,cs),
(201,710,o),
(38,572,o),
(38,351,cs),
(38,243,o),
(75,154,o),
(140,91,cs),
(205,28,o),
(300,-7,o),
(416,-7,cs)
);
}
);
width = 832;
},
{
layerId = "0E2BF6D7-5696-44D4-BEAE-B9A848D3BB08";
shapes = (
{
closed = 1;
nodes = (
(336,62,o),
(267,92,o),
(217,144,cs),
(167,195,o),
(137,266,o),
(137,350,cs),
(137,512,o),
(252,638,o),
(416,638,cs),
(496,638,o),
(566,608,o),
(616,557,cs),
(666,505,o),
(695,434,o),
(695,350,cs),
(695,188,o),
(581,62,o),
(416,62,cs)
);
},
{
closed = 1;
nodes = (
(625,-10,o),
(771,141,o),
(771,349,cs),
(771,452,o),
(736,541,o),
(674,606,cs),
(612,671,o),
(523,710,o),
(416,710,cs),
(208,710,o),
(61,558,o),
(61,351,cs),
(61,250,o),
(97,159,o),
(159,94,cs),
(221,29,o),
(309,-10,o),
(416,-10,cs)
);
}
);
width = 832;
},
{
layerId = "B8F76C44-C3C5-4DD7-B95D-04ADE237D0F5";
shapes = (
{
closed = 1;
nodes = (
(327,21,o),
(248,57,o),
(192,117,cs),
(136,176,o),
(101,257,o),
(101,350,cs),
(101,528,o),
(234,678,o),
(416,678,cs),
(505,678,o),
(583,642,o),
(639,583,cs),
(695,524,o),
(730,443,o),
(730,350,cs),
(730,173,o),
(598,21,o),
(416,21,cs)
);
},
{
closed = 1;
nodes = (
(615,-11,o),
(763,152,o),
(763,348,cs),
(763,451,o),
(725,541,o),
(662,606,cs),
(599,671,o),
(512,710,o),
(416,710,cs),
(217,710,o),
(68,547,o),
(68,351,cs),
(68,248,o),
(107,158,o),
(170,93,cs),
(233,28,o),
(320,-11,o),
(416,-11,cs)
);
}
);
width = 832;
}
);
leftKerningGroup = C2;
rightKerningGroup = D;
unicode = 79;
},
{
glyphname = Oslash;
layers = (
{
layerId = "E41D3D0D-E289-4871-BF0D-3D9777C34E64";
name = "#instance";
shapes = (
{
closed = 1;
nodes = (
(770,650,l),
(721,701,l),
(63,53,l),
(111,3,l)
);
},
{
closed = 1;
nodes = (
(336,62,o),
(267,92,o),
(217,144,cs),
(167,195,o),
(137,266,o),
(137,350,cs),
(137,512,o),
(252,638,o),
(416,638,cs),
(496,638,o),
(566,608,o),
(616,557,cs),
(666,505,o),
(695,434,o),
(695,350,cs),
(695,188,o),
(581,62,o),
(416,62,cs)
);
},
{
closed = 1;
nodes = (
(625,-10,o),
(771,141,o),
(771,349,cs),
(771,452,o),
(736,541,o),
(674,606,cs),
(612,671,o),
(523,710,o),
(416,710,cs),
(208,710,o),
(61,558,o),
(61,351,cs),
(61,250,o),
(97,159,o),
(159,94,cs),
(221,29,o),
(309,-10,o),
(416,-10,cs)
);
}
);
width = 832;
},
{
layerId = "B0F09294-F33C-4320-A79E-9223B78F399B";
shapes = (
{
closed = 1;
nodes = (
(833,639,l),
(753,726,l),
(16,49,l),
(96,-38,l)
);
},
{
closed = 1;
nodes = (
(343,143,o),
(297,162,o),
(268,198,cs),
(238,233,o),
(225,284,o),
(233,351,cs),
(249,482,o),
(319,560,o),
(452,560,cs),
(508,560,o),
(555,541,o),
(584,506,cs),
(614,470,o),
(627,418,o),
(619,351,cs),
(603,220,o),
(533,143,o),
(400,143,cs)
);
},
{
closed = 1;
nodes = (
(613,-7,o),
(775,116,o),
(804,351,cs),
(817,459,o),
(791,548,o),
(732,612,cs),
(672,675,o),
(583,710,o),
(471,710,cs),
(220,710,o),
(79,602,o),
(48,351,cs),
(34,243,o),
(60,154,o),
(117,91,cs),
(175,28,o),
(265,-7,o),
(381,-7,cs)
);
}
);
width = 832;
},
{
layerId = "84E89F29-712A-4FA0-8D04-7033136CE2AB";
shapes = (
{
closed = 1;
nodes = (
(817,650,l),
(775,701,l),
(36,53,l),
(77,3,l)
);
},
{
closed = 1;
nodes = (
(310,62,o),
(245,92,o),
(201,144,cs),
(157,195,o),
(136,266,o),
(147,350,cs),
(169,529,o),
(283,638,o),
(462,638,cs),
(542,638,o),
(608,608,o),
(652,557,cs),
(695,505,o),
(715,434,o),
(705,350,cs),
(682,171,o),
(570,62,o),
(390,62,cs)
);
},
{
closed = 1;
nodes = (
(607,-10,o),
(752,123,o),
(781,349,cs),
(794,452,o),
(770,541,o),
(716,606,cs),
(662,671,o),
(578,710,o),
(471,710,cs),
(246,710,o),
(99,576,o),
(71,351,cs),
(58,250,o),
(83,159,o),
(137,94,cs),
(191,29,o),
(274,-10,o),
(381,-10,cs)
);
}
);
width = 832;
},
{
layerId = "947D3E97-14BA-4793-BB0D-B2B2C86BF4D4";
shapes = (
{
closed = 1;
nodes = (
(811,673,l),
(793,694,l),
(39,38,l),
(58,16,l)
);
},
{
closed = 1;
nodes = (
(296,21,o),
(221,57,o),
(173,117,cs),
(124,176,o),
(99,257,o),
(111,350,cs),
(135,539,o),
(274,678,o),
(467,678,cs),
(556,678,o),
(629,642,o),
(678,583,cs),
(726,524,o),
(752,443,o),
(740,350,cs),
(715,155,o),
(583,21,o),
(385,21,cs)
);
},
{
closed = 1;
nodes = (
(600,-11,o),
(748,133,o),
(773,348,cs),
(785,451,o),
(759,541,o),
(704,606,cs),
(649,671,o),
(567,710,o),
(471,710,cs),
(254,710,o),
(105,566,o),
(78,351,cs),
(65,248,o),
(93,158,o),
(148,93,cs),
(203,28,o),
(285,-11,o),
(381,-11,cs)
);
}
);
width = 832;
},
{
layerId = "082E40FD-8E35-4556-8ECC-8D6EB191F145";
shapes = (
{
closed = 1;
nodes = (
(787,639,l),
(696,726,l),
(44,49,l),
(135,-38,l)
);
},
{
closed = 1;
nodes = (
(359,143,o),
(311,162,o),
(277,198,cs),
(243,233,o),
(223,284,o),
(223,351,cs),
(223,472,o),
(290,560,o),
(416,560,cs),
(472,560,o),
(521,541,o),
(555,506,cs),
(589,470,o),
(609,418,o),
(609,351,cs),
(609,230,o),
(542,143,o),
(416,143,cs)
);
},
{
closed = 1;
nodes = (
(630,-7,o),
(794,131,o),
(794,351,cs),
(794,459,o),
(756,548,o),
(689,612,cs),
(622,675,o),
(528,710,o),
(416,710,cs),
(201,710,o),
(38,572,o),
(38,351,cs),
(38,243,o),
(75,154,o),
(140,91,cs),
(205,28,o),
(300,-7,o),
(416,-7,cs)
);
}
);
width = 832;
},
{
layerId = "0E2BF6D7-5696-44D4-BEAE-B9A848D3BB08";
shapes = (
{
closed = 1;
nodes = (
(770,650,l),
(721,701,l),
(63,53,l),
(111,3,l)
);
},
{
closed = 1;
nodes = (
(336,62,o),
(267,92,o),
(217,144,cs),
(167,195,o),
(137,266,o),
(137,350,cs),
(137,512,o),
(252,638,o),
(416,638,cs),
(496,638,o),
(566,608,o),
(616,557,cs),
(666,505,o),
(695,434,o),
(695,350,cs),
(695,188,o),
(581,62,o),
(416,62,cs)
);
},
{
closed = 1;
nodes = (
(625,-10,o),
(771,141,o),
(771,349,cs),
(771,452,o),
(736,541,o),
(674,606,cs),
(612,671,o),
(523,710,o),
(416,710,cs),
(208,710,o),
(61,558,o),
(61,351,cs),
(61,250,o),
(97,159,o),
(159,94,cs),
(221,29,o),
(309,-10,o),
(416,-10,cs)
);
}
);
width = 832;
},
{
layerId = "B8F76C44-C3C5-4DD7-B95D-04ADE237D0F5";
shapes = (
{
closed = 1;
nodes = (
(761,673,l),
(740,694,l),
(68,38,l),
(90,16,l)
);
},
{
closed = 1;
nodes = (
(327,21,o),
(248,57,o),
(192,117,cs),
(136,176,o),
(101,257,o),
(101,350,cs),
(101,528,o),
(234,678,o),
(416,678,cs),
(505,678,o),
(583,642,o),
(639,583,cs),
(695,524,o),
(730,443,o),
(730,350,cs),
(730,173,o),
(598,21,o),
(416,21,cs)
);
},
{
closed = 1;
nodes = (
(615,-11,o),
(763,152,o),
(763,348,cs),
(763,451,o),
(725,541,o),
(662,606,cs),
(599,671,o),
(512,710,o),
(416,710,cs),
(217,710,o),
(68,547,o),
(68,351,cs),
(68,248,o),
(107,158,o),
(170,93,cs),
(233,28,o),
(320,-11,o),
(416,-11,cs)
);
}
);
width = 832;
}
);
leftKerningGroup = C2;
rightKerningGroup = D;
unicode = 216;
},
{
glyphname = OE;
layers = (
{
layerId = "E41D3D0D-E289-4871-BF0D-3D9777C34E64";
name = "#instance";
shapes = (
{
closed = 1;
nodes = (
(830,0,l),
(830,70,l),
(540,70,l),
(540,340,l),
(771,340,l),
(771,410,l),
(540,410,l),
(540,630,l),
(820,630,l),
(820,700,l),
(431,700,ls),
(219,700,o),
(61,570,o),
(61,350,cs),
(61,250,o),
(94,162,o),
(158,100,cs),
(221,38,o),
(314,0,o),
(431,0,cs)
);
},
{
closed = 1;
nodes = (
(439,70,ls),
(347,70,o),
(271,96,o),
(219,144,cs),
(166,192,o),
(137,263,o),
(137,351,cs),
(137,531,o),
(267,630,o),
(439,630,cs),
(466,630,l),
(466,70,l)
);
}
);
width = 908;
},
{
layerId = "B0F09294-F33C-4320-A79E-9223B78F399B";
shapes = (
{
closed = 1;
nodes = (
(844,0,l),
(863,150,l),
(617,150,l),
(636,300,l),
(802,300,l),
(820,444,l),
(654,444,l),
(667,550,l),
(902,550,l),
(921,700,l),
(456,700,ls),
(213,700,o),
(68,588,o),
(40,346,cs),
(28,242,o),
(51,156,o),
(108,96,cs),
(164,35,o),
(255,0,o),
(376,0,cs)
);
},
{
closed = 1;
nodes = (
(388,150,ls),
(331,150,o),
(287,170,o),
(261,204,cs),
(235,238,o),
(223,287,o),
(231,348,c),
(245,478,o),
(310,550,o),
(442,550,cs),
(487,550,l),
(437,150,l)
);
}
);
width = 908;
},
{
layerId = "84E89F29-712A-4FA0-8D04-7033136CE2AB";
shapes = (
{
closed = 1;
nodes = (
(796,0,l),
(805,70,l),
(515,70,l),
(549,340,l),
(780,340,l),
(788,410,l),
(557,410,l),
(585,630,l),
(865,630,l),
(874,700,l),
(485,700,ls),
(249,700,o),
(102,586,o),
(71,350,cs),
(58,250,o),
(80,162,o),
(136,100,cs),
(192,38,o),
(280,0,o),
(397,0,cs)
);
},
{
closed = 1;
nodes = (
(414,70,ls),
(322,70,o),
(250,96,o),
(203,144,cs),
(156,192,o),
(136,263,o),
(147,351,cs),
(171,541,o),
(296,630,o),
(484,630,cs),
(511,630,l),
(441,70,l)
);
}
);
width = 908;
},
{
layerId = "947D3E97-14BA-4793-BB0D-B2B2C86BF4D4";
shapes = (
{
closed = 1;
nodes = (
(785,0,l),
(789,31,l),
(466,31,l),
(508,364,l),
(770,364,l),
(773,395,l),
(511,395,l),
(546,669,l),
(859,669,l),
(863,700,l),
(498,700,ls),
(253,700,o),
(111,589,o),
(82,346,cs),
(70,245,o),
(93,157,o),
(150,96,cs),
(206,35,o),
(295,0,o),
(410,0,cs)
);
},
{
closed = 1;
nodes = (
(412,31,ls),
(309,31,o),
(230,65,o),
(179,121,cs),
(127,177,o),
(104,255,o),
(115,347,cs),
(142,570,o),
(266,669,o),
(490,669,cs),
(513,669,l),
(433,31,l)
);
}
);
width = 908;
},
{
layerId = "082E40FD-8E35-4556-8ECC-8D6EB191F145";
shapes = (
{
closed = 1;
nodes = (
(878,0,l),
(878,150,l),
(632,150,l),
(632,300,l),
(798,300,l),
(798,444,l),
(632,444,l),
(632,550,l),
(867,550,l),
(867,700,l),
(402,700,ls),
(184,700,o),
(31,571,o),
(31,346,cs),
(31,242,o),
(65,156,o),
(130,96,cs),
(194,35,o),
(289,0,o),
(410,0,cs)
);
},
{
closed = 1;
nodes = (
(403,150,ls),
(346,150,o),
(300,170,o),
(269,204,cs),
(238,238,o),
(221,287,o),
(221,348,cs),
(221,467,o),
(283,550,o),
(407,550,cs),
(452,550,l),
(452,150,l)
);
}
);
width = 908;
},
{
layerId = "0E2BF6D7-5696-44D4-BEAE-B9A848D3BB08";
shapes = (
{
closed = 1;
nodes = (
(830,0,l),
(830,70,l),
(540,70,l),
(540,340,l),
(771,340,l),
(771,410,l),
(540,410,l),
(540,630,l),
(820,630,l),
(820,700,l),
(431,700,ls),
(219,700,o),
(61,570,o),
(61,350,cs),
(61,250,o),
(94,162,o),
(158,100,cs),
(221,38,o),
(314,0,o),
(431,0,cs)
);
},
{
closed = 1;
nodes = (
(439,70,ls),
(347,70,o),
(271,96,o),
(219,144,cs),
(166,192,o),
(137,263,o),
(137,351,cs),
(137,531,o),
(267,630,o),
(439,630,cs),
(466,630,l),
(466,70,l)
);
}
);
width = 908;
},
{
layerId = "B8F76C44-C3C5-4DD7-B95D-04ADE237D0F5";
shapes = (
{
closed = 1;
nodes = (
(819,0,l),
(819,31,l),
(496,31,l),
(496,364,l),
(758,364,l),
(758,395,l),
(496,395,l),
(496,669,l),
(809,669,l),
(809,700,l),
(444,700,ls),
(222,700,o),
(73,572,o),
(73,346,cs),
(73,245,o),
(107,157,o),
(172,96,cs),
(236,35,o),
(329,0,o),
(444,0,cs)
);
},
{
closed = 1;
nodes = (
(442,31,ls),
(339,31,o),
(256,65,o),
(198,121,cs),
(140,177,o),
(106,255,o),
(106,347,cs),
(106,554,o),
(237,669,o),
(440,669,cs),
(463,669,l),
(463,31,l)
);
}
);
width = 908;
}
);
leftKerningGroup = C2;
rightKerningGroup = E;
unicode = 338;
},
{
glyphname = P;
layers = (
{
layerId = "B0F09294-F33C-4320-A79E-9223B78F399B";
shapes = (
{
closed = 1;
nodes = (
(113,700,l),
(25,0,l),
(205,0,l),
(234,230,l),
(270,230,ls),
(437,230,o),
(559,294,o),
(581,470,cs),
(590,547,o),
(572,605,o),
(529,643,cs),
(487,681,o),
(423,700,o),
(339,700,cs)
);
},
{
closed = 1;
nodes = (
(253,380,l),
(274,550,l),
(300,550,ls),
(343,550,o),
(369,540,o),
(383,525,cs),
(397,509,o),
(400,489,o),
(397,466,cs),
(389,401,o),
(340,380,o),
(282,380,cs)
);
}
);
width = 577;
},
{
layerId = "84E89F29-712A-4FA0-8D04-7033136CE2AB";
shapes = (
{
closed = 1;
nodes = (
(168,700,l),
(80,0,l),
(154,0,l),
(190,288,l),
(306,288,ls),
(439,288,o),
(541,360,o),
(558,496,cs),
(565,552,o),
(550,604,o),
(515,641,c),
(480,677,o),
(426,700,o),
(358,700,cs)
);
},
{
closed = 1;
nodes = (
(199,358,l),
(233,630,l),
(344,630,ls),
(393,630,o),
(429,614,o),
(453,590,cs),
(477,565,o),
(486,531,o),
(482,494,cs),
(471,406,o),
(392,358,o),
(310,358,cs)
);
}
);
width = 577;
},
{
layerId = "947D3E97-14BA-4793-BB0D-B2B2C86BF4D4";
shapes = (
{
closed = 1;
nodes = (
(189,700,l),
(101,0,l),
(134,0,l),
(173,311,l),
(325,311,ls),
(444,311,o),
(535,389,o),
(547,507,c),
(554,558,o),
(540,605,o),
(511,641,cs),
(482,677,o),
(434,700,o),
(370,700,cs)
);
},
{
closed = 1;
nodes = (
(177,342,l),
(218,669,l),
(361,669,ls),
(414,669,o),
(454,651,o),
(481,623,cs),
(508,595,o),
(521,554,o),
(514,507,c),
(503,409,o),
(415,342,o),
(319,342,cs)
);
}
);
width = 577;
},
{
layerId = "082E40FD-8E35-4556-8ECC-8D6EB191F145";
shapes = (
{
closed = 1;
nodes = (
(59,700,l),
(59,0,l),
(239,0,l),
(239,230,l),
(275,230,ls),
(430,230,o),
(556,301,o),
(556,470,cs),
(556,547,o),
(530,605,o),
(483,643,cs),
(436,681,o),
(369,700,o),
(285,700,cs)
);
},
{
closed = 1;
nodes = (
(239,380,l),
(239,550,l),
(265,550,ls),
(308,550,o),
(335,540,o),
(351,525,cs),
(367,509,o),
(373,489,o),
(373,466,cs),
(373,401,o),
(326,380,o),
(268,380,cs)
);
}
);
width = 577;
},
{
layerId = "0E2BF6D7-5696-44D4-BEAE-B9A848D3BB08";
shapes = (
{
closed = 1;
nodes = (
(114,700,l),
(114,0,l),
(188,0,l),
(188,288,l),
(304,288,ls),
(427,288,o),
(530,368,o),
(530,496,cs),
(530,552,o),
(508,604,o),
(469,641,c),
(429,677,o),
(372,700,o),
(304,700,cs)
);
},
{
closed = 1;
nodes = (
(188,358,l),
(188,630,l),
(299,630,ls),
(348,630,o),
(386,614,o),
(413,590,cs),
(440,565,o),
(454,531,o),
(454,494,cs),
(454,406,o),
(381,358,o),
(299,358,cs)
);
}
);
width = 577;
},
{
layerId = "B8F76C44-C3C5-4DD7-B95D-04ADE237D0F5";
shapes = (
{
closed = 1;
nodes = (
(135,700,l),
(135,0,l),
(168,0,l),
(168,311,l),
(320,311,ls),
(430,311,o),
(518,397,o),
(518,507,cs),
(518,558,o),
(499,605,o),
(465,641,cs),
(431,677,o),
(380,700,o),
(316,700,cs)
);
},
{
closed = 1;
nodes = (
(168,342,l),
(168,669,l),
(311,669,ls),
(364,669,o),
(406,651,o),
(437,623,cs),
(468,595,o),
(485,554,o),
(485,507,cs),
(485,409,o),
(405,342,o),
(310,342,cs)
);
}
);
width = 577;
}
);
unicode = 80;
},
{
glyphname = Thorn;
layers = (
{
layerId = "B0F09294-F33C-4320-A79E-9223B78F399B";
shapes = (
{
closed = 1;
nodes = (
(100,111,l),
(291,111,ls),
(355,111,o),
(458,146,o),
(534,210,o),
(580,299,o),
(587,354,qs),
(594,409,o),
(570,497,o),
(511,558,o),
(416,591,o),
(351,591,qs),
(160,591,l),
(140,431,l),
(326,431,ls),
(350,431,o),
(381,418,o),
(399,395,o),
(406,367,o),
(404,352,qs),
(402,336,o),
(387,307,o),
(361,284,o),
(322,271,o),
(296,271,qs),
(120,271,l)
);
},
{
closed = 1;
nodes = (
(262,700,l),
(82,700,l),
(-6,0,l),
(174,0,l)
);
}
);
width = 567;
},
{
layerId = "84E89F29-712A-4FA0-8D04-7033136CE2AB";
shapes = (
{
closed = 1;
nodes = (
(152,154,l),
(284,154,ls),
(335,154,o),
(420,187,o),
(486,244,o),
(526,320,o),
(531,363,qs),
(537,406,o),
(515,481,o),
(464,536,o),
(387,568,o),
(336,568,qs),
(204,568,l),
(195,498,l),
(317,498,ls),
(354,498,o),
(410,477,o),
(445,440,o),
(459,391,o),
(455,362,qs),
(452,333,o),
(425,283,o),
(381,245,o),
(320,224,o),
(283,224,qs),
(161,224,l)
);
},
{
closed = 1;
nodes = (
(242,700,l),
(168,700,l),
(80,0,l),
(154,0,l)
);
}
);
width = 567;
},
{
layerId = "947D3E97-14BA-4793-BB0D-B2B2C86BF4D4";
shapes = (
{
closed = 1;
nodes = (
(168,159,l),
(274,159,ls),
(320,159,o),
(400,191,o),
(462,245,o),
(501,316,o),
(505,355,qs),
(510,394,o),
(489,462,o),
(440,515,o),
(368,544,o),
(322,544,qs),
(216,544,l),
(212,513,l),
(306,513,ls),
(349,513,o),
(415,489,o),
(458,447,o),
(476,388,o),
(471,354,qs),
(467,320,o),
(435,260,o),
(382,217,o),
(312,191,o),
(270,191,qs),
(172,191,l)
);
},
{
closed = 1;
nodes = (
(235,700,l),
(203,700,l),
(115,0,l),
(147,0,l)
);
}
);
width = 567;
},
{
layerId = "082E40FD-8E35-4556-8ECC-8D6EB191F145";
shapes = (
{
closed = 1;
nodes = (
(120,111,l),
(311,111,ls),
(375,111,o),
(474,146,o),
(542,210,o),
(577,299,o),
(577,354,qs),
(577,409,o),
(542,497,o),
(475,558,o),
(376,591,o),
(311,591,qs),
(120,591,l),
(120,431,l),
(306,431,ls),
(330,431,o),
(363,418,o),
(384,395,o),
(394,367,o),
(394,352,qs),
(394,336,o),
(383,307,o),
(359,284,o),
(322,271,o),
(296,271,qs),
(120,271,l)
);
},
{
closed = 1;
nodes = (
(208,700,l),
(28,700,l),
(28,0,l),
(208,0,l)
);
}
);
width = 567;
},
{
layerId = "0E2BF6D7-5696-44D4-BEAE-B9A848D3BB08";
shapes = (
{
closed = 1;
nodes = (
(167,154,l),
(299,154,ls),
(350,154,o),
(431,187,o),
(489,244,o),
(520,320,o),
(520,363,qs),
(520,406,o),
(489,481,o),
(431,536,o),
(350,568,o),
(299,568,qs),
(167,568,l),
(167,498,l),
(289,498,ls),
(326,498,o),
(384,477,o),
(424,440,o),
(444,391,o),
(444,362,qs),
(444,333,o),
(424,283,o),
(384,245,o),
(326,224,o),
(289,224,qs),
(167,224,l)
);
},
{
closed = 1;
nodes = (
(188,700,l),
(114,700,l),
(114,0,l),
(188,0,l)
);
}
);
width = 567;
},
{
layerId = "B8F76C44-C3C5-4DD7-B95D-04ADE237D0F5";
shapes = (
{
closed = 1;
nodes = (
(182,159,l),
(288,159,ls),
(334,159,o),
(410,191,o),
(465,245,o),
(495,316,o),
(495,355,qs),
(495,394,o),
(465,462,o),
(410,515,o),
(334,544,o),
(288,544,qs),
(182,544,l),
(182,513,l),
(276,513,ls),
(319,513,o),
(388,489,o),
(436,447,o),
(461,388,o),
(461,354,qs),
(461,320,o),
(436,260,o),
(389,217,o),
(322,191,o),
(280,191,qs),
(182,191,l)
);
},
{
closed = 1;
nodes = (
(181,700,l),
(149,700,l),
(149,0,l),
(181,0,l)
);
}
);
width = 567;
}
);
unicode = 222;
},
{
glyphname = Q;
layers = (
{
layerId = "B0F09294-F33C-4320-A79E-9223B78F399B";
shapes = (
{
closed = 1;
nodes = (
(638,-176,l),
(658,-176,l),
(680,0,l),
(463,101,l),
(335,-1,l)
);
},
{
closed = 1;
nodes = (
(343,143,o),
(296,162,o),
(267,198,cs),
(238,233,o),
(225,284,o),
(233,351,cs),
(247,472,o),
(326,560,o),
(452,560,cs),
(508,560,o),
(555,541,o),
(584,506,cs),
(613,470,o),
(627,418,o),
(619,351,cs),
(603,219,o),
(534,143,o),
(400,143,cs)
);
},
{
closed = 1;
nodes = (
(618,-7,o),
(776,115,o),
(804,351,cs),
(817,459,o),
(791,548,o),
(732,612,cs),
(672,675,o),
(583,710,o),
(471,710,cs),
(234,710,o),
(77,588,o),
(48,351,cs),
(35,243,o),
(60,154,o),
(118,91,cs),
(176,28,o),
(265,-7,o),
(381,-7,cs)
);
}
);
width = 832;
},
{
layerId = "84E89F29-712A-4FA0-8D04-7033136CE2AB";
shapes = (
{
closed = 1;
nodes = (
(665,-180,l),
(685,-180,l),
(695,-106,l),
(477,53,l),
(395,16,l)
);
},
{
closed = 1;
nodes = (
(310,62,o),
(244,92,o),
(201,144,cs),
(157,195,o),
(136,266,o),
(147,350,cs),
(170,528,o),
(281,638,o),
(462,638,cs),
(542,638,o),
(607,608,o),
(651,557,cs),
(695,505,o),
(716,434,o),
(705,350,cs),
(682,173,o),
(570,62,o),
(390,62,cs)
);
},
{
closed = 1;
nodes = (
(610,-10,o),
(755,123,o),
(781,349,cs),
(793,452,o),
(770,541,o),
(716,606,cs),
(662,671,o),
(578,710,o),
(471,710,cs),
(243,710,o),
(100,577,o),
(71,351,cs),
(58,250,o),
(83,159,o),
(137,94,cs),
(191,29,o),
(274,-10,o),
(381,-10,cs)
);
}
);
width = 832;
},
{
layerId = "947D3E97-14BA-4793-BB0D-B2B2C86BF4D4";
shapes = (
{
closed = 1;
nodes = (
(679,-167,l),
(699,-167,l),
(702,-143,l),
(486,25,l),
(452,10,l)
);
},
{
closed = 1;
nodes = (
(296,21,o),
(221,57,o),
(173,117,cs),
(124,176,o),
(99,257,o),
(111,350,cs),
(136,542,o),
(271,678,o),
(467,678,cs),
(556,678,o),
(629,642,o),
(678,583,cs),
(726,524,o),
(752,443,o),
(740,350,cs),
(713,144,o),
(579,21,o),
(385,21,cs)
);
},
{
closed = 1;
nodes = (
(599,-11,o),
(747,124,o),
(773,348,cs),
(785,451,o),
(759,541,o),
(704,606,cs),
(649,671,o),
(567,710,o),
(471,710,cs),
(254,710,o),
(105,566,o),
(78,351,cs),
(65,248,o),
(93,158,o),
(148,93,cs),
(203,28,o),
(285,-11,o),
(381,-11,cs)
);
}
);
width = 832;
},
{
layerId = "082E40FD-8E35-4556-8ECC-8D6EB191F145";
shapes = (
{
closed = 1;
nodes = (
(694,-176,l),
(714,-176,l),
(714,0,l),
(484,101,l),
(369,-1,l)
);
},
{
closed = 1;
nodes = (
(359,143,o),
(311,162,o),
(277,198,cs),
(243,233,o),
(223,284,o),
(223,351,cs),
(223,472,o),
(290,560,o),
(416,560,cs),
(472,560,o),
(521,541,o),
(555,506,cs),
(589,470,o),
(609,418,o),
(609,351,cs),
(609,230,o),
(542,143,o),
(416,143,cs)
);
},
{
closed = 1;
nodes = (
(630,-7,o),
(794,131,o),
(794,351,cs),
(794,459,o),
(756,548,o),
(689,612,cs),
(622,675,o),
(528,710,o),
(416,710,cs),
(201,710,o),
(38,572,o),
(38,351,cs),
(38,243,o),
(75,154,o),
(140,91,cs),
(205,28,o),
(300,-7,o),
(416,-7,cs)
);
}
);
width = 832;
},
{
layerId = "0E2BF6D7-5696-44D4-BEAE-B9A848D3BB08";
shapes = (
{
closed = 1;
nodes = (
(722,-180,l),
(742,-180,l),
(742,-106,l),
(504,53,l),
(427,16,l)
);
},
{
closed = 1;
nodes = (
(336,62,o),
(267,92,o),
(217,144,cs),
(167,195,o),
(137,266,o),
(137,350,cs),
(137,512,o),
(252,638,o),
(416,638,cs),
(496,638,o),
(566,608,o),
(616,557,cs),
(666,505,o),
(695,434,o),
(695,350,cs),
(695,188,o),
(581,62,o),
(416,62,cs)
);
},
{
closed = 1;
nodes = (
(625,-10,o),
(771,141,o),
(771,349,cs),
(771,452,o),
(736,541,o),
(674,606,cs),
(612,671,o),
(523,710,o),
(416,710,cs),
(208,710,o),
(61,558,o),
(61,351,cs),
(61,250,o),
(97,159,o),
(159,94,cs),
(221,29,o),
(309,-10,o),
(416,-10,cs)
);
}
);
width = 832;
},
{
layerId = "B8F76C44-C3C5-4DD7-B95D-04ADE237D0F5";
shapes = (
{
closed = 1;
nodes = (
(734,-167,l),
(754,-167,l),
(754,-143,l),
(511,29,l),
(479,14,l)
);
},
{
closed = 1;
nodes = (
(327,21,o),
(248,57,o),
(192,117,cs),
(136,176,o),
(101,257,o),
(101,350,cs),
(101,528,o),
(234,678,o),
(416,678,cs),
(505,678,o),
(583,642,o),
(639,583,cs),
(695,524,o),
(730,443,o),
(730,350,cs),
(730,173,o),
(598,21,o),
(416,21,cs)
);
},
{
closed = 1;
nodes = (
(615,-11,o),
(763,152,o),
(763,348,cs),
(763,451,o),
(725,541,o),
(662,606,cs),
(599,671,o),
(512,710,o),
(416,710,cs),
(217,710,o),
(68,547,o),
(68,351,cs),
(68,248,o),
(107,158,o),
(170,93,cs),
(233,28,o),
(320,-11,o),
(416,-11,cs)
);
}
);
width = 832;
}
);
leftKerningGroup = C2;
rightKerningGroup = D;
unicode = 81;
},
{
glyphname = R;
layers = (
{
layerId = "B0F09294-F33C-4320-A79E-9223B78F399B";
shapes = (
{
closed = 1;
nodes = (
(397,0,l),
(591,0,l),
(594,21,l),
(418,359,l),
(246,296,l)
);
},
{
closed = 1;
nodes = (
(102,700,l),
(14,0,l),
(194,0,l),
(227,260,l),
(296,260,ls),
(445,260,o),
(551,328,o),
(570,483,cs),
(580,556,o),
(560,611,o),
(518,647,cs),
(475,683,o),
(412,700,o),
(332,700,cs)
);
},
{
closed = 1;
nodes = (
(245,410,l),
(263,550,l),
(318,550,ls),
(343,550,o),
(362,543,o),
(373,531,c),
(384,518,o),
(388,501,o),
(385,481,cs),
(379,434,o),
(341,410,o),
(297,410,cs)
);
}
);
width = 611;
},
{
layerId = "84E89F29-712A-4FA0-8D04-7033136CE2AB";
shapes = (
{
closed = 1;
nodes = (
(476,0,l),
(555,0,l),
(558,21,l),
(348,316,l),
(265,296,l)
);
},
{
closed = 1;
nodes = (
(168,700,l),
(80,0,l),
(154,0,l),
(190,286,l),
(309,286,ls),
(441,286,o),
(539,360,o),
(556,495,cs),
(563,552,o),
(549,604,o),
(514,641,cs),
(480,677,o),
(429,700,o),
(361,700,cs)
);
},
{
closed = 1;
nodes = (
(199,356,l),
(233,630,l),
(342,630,ls),
(391,630,o),
(428,615,o),
(452,591,cs),
(476,566,o),
(485,533,o),
(480,494,cs),
(468,403,o),
(393,356,o),
(308,356,cs)
);
}
);
width = 611;
},
{
layerId = "947D3E97-14BA-4793-BB0D-B2B2C86BF4D4";
shapes = (
{
closed = 1;
nodes = (
(497,0,l),
(523,0,l),
(526,21,l),
(317,303,l),
(273,303,l)
);
},
{
closed = 1;
nodes = (
(185,700,l),
(97,0,l),
(130,0,l),
(167,298,l),
(303,298,ls),
(432,298,o),
(523,372,o),
(542,500,c),
(547,551,o),
(535,600,o),
(503,637,cs),
(471,674,o),
(416,700,o),
(341,700,cs)
);
},
{
closed = 1;
nodes = (
(171,329,l),
(214,669,l),
(340,669,ls),
(400,669,o),
(444,650,o),
(474,620,cs),
(504,590,o),
(515,547,o),
(508,499,c),
(496,392,o),
(404,329,o),
(301,329,cs)
);
}
);
width = 611;
},
{
layerId = "082E40FD-8E35-4556-8ECC-8D6EB191F145";
shapes = (
{
closed = 1;
nodes = (
(431,0,l),
(625,0,l),
(625,21,l),
(407,359,l),
(243,296,l)
);
},
{
closed = 1;
nodes = (
(48,700,l),
(48,0,l),
(228,0,l),
(228,260,l),
(297,260,ls),
(435,260,o),
(544,336,o),
(544,483,cs),
(544,556,o),
(518,611,o),
(471,647,cs),
(424,683,o),
(358,700,o),
(278,700,cs)
);
},
{
closed = 1;
nodes = (
(228,410,l),
(228,550,l),
(283,550,ls),
(308,550,o),
(328,543,o),
(341,531,c),
(353,518,o),
(359,501,o),
(359,481,cs),
(359,434,o),
(324,410,o),
(280,410,cs)
);
}
);
width = 611;
},
{
layerId = "0E2BF6D7-5696-44D4-BEAE-B9A848D3BB08";
shapes = (
{
closed = 1;
nodes = (
(510,0,l),
(589,0,l),
(589,21,l),
(342,316,l),
(262,296,l)
);
},
{
closed = 1;
nodes = (
(114,700,l),
(114,0,l),
(188,0,l),
(188,286,l),
(307,286,ls),
(429,286,o),
(528,369,o),
(528,495,cs),
(528,552,o),
(507,604,o),
(468,641,cs),
(429,677,o),
(375,700,o),
(307,700,cs)
);
},
{
closed = 1;
nodes = (
(188,356,l),
(188,630,l),
(297,630,ls),
(346,630,o),
(385,615,o),
(412,591,cs),
(439,566,o),
(452,533,o),
(452,494,cs),
(452,403,o),
(382,356,o),
(297,356,cs)
);
}
);
width = 611;
},
{
layerId = "B8F76C44-C3C5-4DD7-B95D-04ADE237D0F5";
shapes = (
{
closed = 1;
nodes = (
(531,0,l),
(557,0,l),
(557,21,l),
(313,303,l),
(269,303,l)
);
},
{
closed = 1;
nodes = (
(131,700,l),
(131,0,l),
(164,0,l),
(164,298,l),
(300,298,ls),
(415,298,o),
(513,382,o),
(513,500,cs),
(513,551,o),
(494,600,o),
(458,637,cs),
(421,674,o),
(362,700,o),
(287,700,cs)
);
},
{
closed = 1;
nodes = (
(164,329,l),
(164,669,l),
(290,669,ls),
(350,669,o),
(397,650,o),
(430,620,cs),
(463,590,o),
(480,547,o),
(480,499,cs),
(480,391,o),
(397,329,o),
(294,329,cs)
);
}
);
width = 611;
}
);
rightKerningGroup = R;
unicode = 82;
},
{
glyphname = S;
layers = (
{
layerId = "B0F09294-F33C-4320-A79E-9223B78F399B";
shapes = (
{
closed = 1;
nodes = (
(384,-7,o),
(502,56,o),
(523,221,cs),
(530,281,o),
(516,321,o),
(492,352,cs),
(468,383,o),
(433,401,o),
(397,416,cs),
(361,431,o),
(324,442,o),
(298,455,cs),
(272,468,o),
(255,486,o),
(258,511,cs),
(262,546,o),
(291,555,o),
(321,555,cs),
(364,555,o),
(393,533,o),
(415,494,c),
(544,597,l),
(536,620,o),
(518,647,o),
(486,670,cs),
(454,693,o),
(407,710,o),
(339,710,cs),
(199,710,o),
(91,654,o),
(72,505,cs),
(65,448,o),
(78,408,o),
(102,377,cs),
(126,346,o),
(161,327,o),
(196,311,cs),
(231,294,o),
(266,282,o),
(292,266,cs),
(318,250,o),
(334,232,o),
(331,204,cs),
(325,162,o),
(287,148,o),
(250,148,cs),
(217,148,o),
(190,160,o),
(171,177,cs),
(152,194,o),
(141,215,o),
(132,235,c),
(-4,122,l),
(8,91,o),
(29,59,o),
(66,35,cs),
(103,10,o),
(155,-7,o),
(227,-7,cs)
);
}
);
width = 544;
},
{
layerId = "84E89F29-712A-4FA0-8D04-7033136CE2AB";
shapes = (
{
closed = 1;
nodes = (
(379,-10,o),
(472,56,o),
(490,196,cs),
(497,255,o),
(481,296,o),
(453,326,cs),
(424,356,o),
(384,377,o),
(343,395,cs),
(302,413,o),
(262,429,o),
(232,450,cs),
(202,471,o),
(184,498,o),
(189,538,cs),
(199,614,o),
(262,638,o),
(331,638,cs),
(398,638,o),
(440,611,o),
(472,576,c),
(525,630,l),
(507,653,o),
(483,673,o),
(453,687,cs),
(423,701,o),
(386,710,o),
(342,710,cs),
(222,710,o),
(128,659,o),
(113,533,cs),
(106,477,o),
(122,439,o),
(152,412,c),
(180,384,o),
(220,366,o),
(262,350,c),
(303,333,o),
(343,317,o),
(373,294,c),
(402,270,o),
(419,238,o),
(413,189,cs),
(401,97,o),
(339,62,o),
(251,62,cs),
(211,62,o),
(178,71,o),
(151,87,cs),
(124,102,o),
(101,123,o),
(82,150,c),
(21,90,l),
(43,62,o),
(70,38,o),
(107,20,cs),
(143,2,o),
(187,-10,o),
(242,-10,cs)
);
}
);
width = 544;
},
{
layerId = "947D3E97-14BA-4793-BB0D-B2B2C86BF4D4";
shapes = (
{
closed = 1;
nodes = (
(344,-10,o),
(441,45,o),
(459,184,cs),
(466,239,o),
(448,278,o),
(417,309,cs),
(386,340,o),
(344,361,o),
(301,382,c),
(257,402,o),
(214,421,o),
(183,447,cs),
(152,473,o),
(134,505,o),
(139,550,cs),
(150,649,o),
(225,678,o),
(323,678,cs),
(390,678,o),
(440,656,o),
(475,632,c),
(496,662,l),
(472,679,o),
(445,690,o),
(417,699,c),
(388,707,o),
(358,710,o),
(326,710,cs),
(228,710,o),
(119,661,o),
(107,552,cs),
(100,497,o),
(120,460,o),
(150,430,cs),
(180,400,o),
(222,378,o),
(266,357,cs),
(309,336,o),
(351,317,o),
(383,290,c),
(414,262,o),
(432,229,o),
(427,181,cs),
(415,69,o),
(324,22,o),
(215,22,cs),
(180,22,o),
(146,27,o),
(117,38,cs),
(88,49,o),
(59,65,o),
(38,82,c),
(21,53,l),
(45,33,o),
(74,19,o),
(104,8,cs),
(134,-4,o),
(168,-10,o),
(207,-10,cs)
);
}
);
width = 544;
},
{
layerId = "082E40FD-8E35-4556-8ECC-8D6EB191F145";
shapes = (
{
closed = 1;
nodes = (
(407,-7,o),
(529,62,o),
(529,221,cs),
(529,281,o),
(510,321,o),
(482,352,cs),
(454,383,o),
(417,401,o),
(379,416,cs),
(341,431,o),
(303,442,o),
(275,455,cs),
(247,468,o),
(228,486,o),
(228,511,cs),
(228,545,o),
(258,555,o),
(286,555,cs),
(329,555,o),
(360,533,o),
(387,494,c),
(503,597,l),
(492,620,o),
(471,647,o),
(436,670,cs),
(401,693,o),
(352,710,o),
(284,710,cs),
(154,710,o),
(43,648,o),
(43,505,cs),
(43,448,o),
(61,408,o),
(89,377,cs),
(117,346,o),
(154,327,o),
(191,311,cs),
(228,294,o),
(265,282,o),
(293,266,cs),
(321,250,o),
(339,232,o),
(339,204,cs),
(339,163,o),
(300,148,o),
(265,148,cs),
(232,148,o),
(204,160,o),
(183,177,cs),
(162,194,o),
(148,215,o),
(137,235,c),
(15,122,l),
(31,91,o),
(56,59,o),
(96,35,cs),
(136,10,o),
(190,-7,o),
(262,-7,cs)
);
}
);
width = 544;
},
{
layerId = "0E2BF6D7-5696-44D4-BEAE-B9A848D3BB08";
shapes = (
{
closed = 1;
nodes = (
(404,-10,o),
(499,64,o),
(499,196,cs),
(499,255,o),
(478,296,o),
(446,326,cs),
(413,356,o),
(371,377,o),
(328,395,cs),
(284,413,o),
(242,429,o),
(210,450,cs),
(177,471,o),
(156,498,o),
(156,538,cs),
(156,612,o),
(221,638,o),
(285,638,cs),
(352,638,o),
(398,611,o),
(434,576,c),
(480,630,l),
(459,653,o),
(433,673,o),
(401,687,cs),
(369,701,o),
(331,710,o),
(287,710,cs),
(176,710,o),
(80,654,o),
(80,533,cs),
(80,477,o),
(101,439,o),
(134,412,c),
(166,384,o),
(208,366,o),
(252,350,c),
(295,333,o),
(337,317,o),
(370,294,c),
(402,270,o),
(423,238,o),
(423,189,cs),
(423,101,o),
(359,62,o),
(277,62,cs),
(237,62,o),
(203,71,o),
(174,87,cs),
(145,102,o),
(120,123,o),
(97,150,c),
(44,90,l),
(69,62,o),
(99,38,o),
(138,20,cs),
(177,2,o),
(222,-10,o),
(277,-10,cs)
);
}
);
width = 544;
},
{
layerId = "B8F76C44-C3C5-4DD7-B95D-04ADE237D0F5";
shapes = (
{
closed = 1;
nodes = (
(364,-10,o),
(470,50,o),
(470,184,cs),
(470,239,o),
(447,278,o),
(412,309,cs),
(377,340,o),
(333,361,o),
(287,382,cs),
(241,402,o),
(196,421,o),
(162,447,cs),
(128,473,o),
(104,505,o),
(104,550,cs),
(104,644,o),
(191,678,o),
(272,678,cs),
(339,678,o),
(393,656,o),
(430,632,c),
(447,662,l),
(422,679,o),
(392,690,o),
(363,699,cs),
(334,707,o),
(303,710,o),
(271,710,cs),
(174,710,o),
(72,662,o),
(72,552,cs),
(72,497,o),
(96,460,o),
(130,430,cs),
(164,400,o),
(209,378,o),
(255,357,cs),
(301,336,o),
(345,317,o),
(380,290,cs),
(415,262,o),
(438,229,o),
(438,181,cs),
(438,72,o),
(344,22,o),
(246,22,cs),
(211,22,o),
(177,27,o),
(146,38,cs),
(115,49,o),
(85,65,o),
(62,82,c),
(48,53,l),
(75,33,o),
(105,19,o),
(137,8,c),
(168,-4,o),
(203,-10,o),
(242,-10,cs)
);
}
);
width = 544;
}
);
leftKerningGroup = S2;
rightKerningGroup = S;
unicode = 83;
},
{
glyphname = Germandbls;
layers = (
{
layerId = "B0F09294-F33C-4320-A79E-9223B78F399B";
shapes = (
{
closed = 1;
nodes = (
(509,-5,o),
(632,76,o),
(648,219,c),
(659,300,o),
(632,353,o),
(585,386,cs),
(537,418,o),
(471,430,o),
(399,430,c),
(423,385,l),
(603,490,l),
(626,668,l),
(574,696,o),
(489,710,o),
(378,710,cs),
(291,710,o),
(223,693,o),
(173,658,cs),
(123,622,o),
(92,570,o),
(84,501,cs),
(21,0,l),
(201,0,l),
(258,458,ls),
(263,501,o),
(275,529,o),
(298,548,cs),
(321,567,o),
(356,575,o),
(409,575,cs),
(437,575,o),
(465,573,o),
(492,569,c),
(349,485,l),
(327,315,l),
(353,315,ls),
(389,315,o),
(420,309,o),
(440,294,cs),
(460,278,o),
(470,255,o),
(466,222,cs),
(459,162,o),
(422,130,o),
(361,130,cs),
(329,130,o),
(302,130,o),
(278,137,c),
(261,1,l),
(272,-2,o),
(281,-3,o),
(297,-4,c),
(312,-4,o),
(335,-5,o),
(368,-5,cs)
);
}
);
width = 676;
},
{
layerId = "84E89F29-712A-4FA0-8D04-7033136CE2AB";
shapes = (
{
closed = 1;
nodes = (
(508,-5,o),
(594,84,o),
(613,251,c),
(624,330,o),
(607,388,o),
(567,428,cs),
(527,468,o),
(465,490,o),
(385,494,c),
(392,458,l),
(566,600,l),
(576,682,l),
(536,694,o),
(469,710,o),
(386,710,cs),
(319,710,o),
(263,699,o),
(222,668,cs),
(181,637,o),
(153,587,o),
(144,508,cs),
(80,0,l),
(154,0,l),
(217,500,l),
(222,551,o),
(236,587,o),
(261,609,cs),
(286,631,o),
(325,640,o),
(385,640,cs),
(424,640,o),
(462,636,o),
(506,628,c),
(360,508,l),
(350,430,l),
(367,430,ls),
(427,430,o),
(473,412,o),
(502,380,cs),
(531,348,o),
(544,302,o),
(537,246,cs),
(522,126,o),
(457,67,o),
(335,67,cs),
(308,67,o),
(283,71,o),
(267,78,c),
(258,6,l),
(269,2,o),
(284,-1,o),
(297,-3,cs),
(310,-5,o),
(326,-5,o),
(339,-5,cs)
);
}
);
width = 676;
},
{
layerId = "947D3E97-14BA-4793-BB0D-B2B2C86BF4D4";
shapes = (
{
closed = 1;
nodes = (
(490,-12,o),
(580,91,o),
(598,246,cs),
(606,315,o),
(593,375,o),
(557,418,cs),
(520,461,o),
(460,484,o),
(371,483,c),
(374,474,l),
(546,640,l),
(552,685,l),
(512,694,o),
(445,710,o),
(377,710,cs),
(322,710,o),
(274,702,o),
(238,674,cs),
(202,645,o),
(175,596,o),
(164,513,cs),
(100,0,l),
(133,0,l),
(198,516,ls),
(205,571,o),
(216,609,o),
(241,637,cs),
(266,664,o),
(305,677,o),
(365,677,cs),
(417,677,o),
(469,671,o),
(522,656,c),
(359,493,l),
(354,454,l),
(377,454,ls),
(434,454,o),
(487,440,o),
(522,406,cs),
(557,372,o),
(574,318,o),
(565,245,cs),
(548,106,o),
(478,20,o),
(334,20,cs),
(306,20,o),
(277,25,o),
(262,29,c),
(258,-3,l),
(269,-6,o),
(282,-9,o),
(296,-10,cs),
(310,-11,o),
(320,-12,o),
(331,-12,cs)
);
}
);
width = 676;
},
{
layerId = "082E40FD-8E35-4556-8ECC-8D6EB191F145";
shapes = (
{
closed = 1;
nodes = (
(530,-5,o),
(655,83,o),
(655,219,cs),
(655,300,o),
(622,353,o),
(571,386,cs),
(519,418,o),
(451,430,o),
(379,430,c),
(409,385,l),
(576,490,l),
(576,668,l),
(521,696,o),
(434,710,o),
(323,710,cs),
(236,710,o),
(169,693,o),
(124,658,cs),
(79,622,o),
(55,570,o),
(55,501,cs),
(55,0,l),
(235,0,l),
(235,458,ls),
(235,501,o),
(243,529,o),
(264,548,cs),
(284,567,o),
(318,575,o),
(371,575,cs),
(399,575,o),
(427,573,o),
(455,569,c),
(322,485,l),
(322,315,l),
(348,315,ls),
(384,315,o),
(416,309,o),
(438,294,cs),
(460,278,o),
(472,255,o),
(472,222,cs),
(472,168,o),
(433,130,o),
(379,130,cs),
(347,130,o),
(319,130,o),
(295,137,c),
(295,1,l),
(306,-2,o),
(315,-3,o),
(331,-4,c),
(347,-4,o),
(370,-5,o),
(403,-5,cs)
);
}
);
width = 676;
},
{
layerId = "0E2BF6D7-5696-44D4-BEAE-B9A848D3BB08";
shapes = (
{
closed = 1;
nodes = (
(532,-5,o),
(616,98,o),
(616,251,cs),
(616,330,o),
(592,388,o),
(548,428,cs),
(503,468,o),
(438,490,o),
(357,494,c),
(369,458,l),
(525,600,l),
(525,682,l),
(484,694,o),
(414,710,o),
(331,710,cs),
(264,710,o),
(211,699,o),
(173,668,cs),
(135,637,o),
(114,587,o),
(114,508,cs),
(114,0,l),
(188,0,l),
(188,500,ls),
(188,551,o),
(196,587,o),
(219,609,cs),
(242,631,o),
(279,640,o),
(339,640,cs),
(378,640,o),
(417,636,o),
(461,628,c),
(330,508,l),
(330,430,l),
(347,430,ls),
(407,430,o),
(455,412,o),
(488,380,cs),
(521,348,o),
(540,302,o),
(540,246,cs),
(540,135,o),
(472,67,o),
(361,67,cs),
(334,67,o),
(308,71,o),
(291,78,c),
(291,6,l),
(303,2,o),
(318,-1,o),
(332,-3,cs),
(346,-5,o),
(361,-5,o),
(374,-5,cs)
);
}
);
width = 676;
},
{
layerId = "B8F76C44-C3C5-4DD7-B95D-04ADE237D0F5";
shapes = (
{
closed = 1;
nodes = (
(515,-12,o),
(601,105,o),
(601,246,cs),
(601,315,o),
(581,375,o),
(539,418,cs),
(497,461,o),
(433,484,o),
(345,483,c),
(349,474,l),
(500,640,l),
(500,685,l),
(459,694,o),
(390,710,o),
(322,710,cs),
(267,710,o),
(220,702,o),
(188,674,cs),
(155,645,o),
(134,596,o),
(134,513,cs),
(134,0,l),
(167,0,l),
(167,516,ls),
(167,571,o),
(174,609,o),
(196,637,cs),
(218,664,o),
(254,677,o),
(314,677,cs),
(366,677,o),
(419,671,o),
(474,656,c),
(331,493,l),
(331,454,l),
(354,454,ls),
(411,454,o),
(466,440,o),
(505,406,cs),
(544,372,o),
(568,318,o),
(568,245,cs),
(568,118,o),
(499,20,o),
(365,20,cs),
(337,20,o),
(308,25,o),
(292,29,c),
(292,-3,l),
(304,-6,o),
(317,-9,o),
(331,-10,cs),
(345,-11,o),
(356,-12,o),
(367,-12,cs)
);
}
);
width = 676;
}
);
unicode = 7838;
},
{
glyphname = Schwa;
layers = (
{
layerId = "B0F09294-F33C-4320-A79E-9223B78F399B";
shapes = (
{
closed = 1;
nodes = (
(625,-7,o),
(750,97,o),
(782,349,cs),
(796,461,o),
(767,552,o),
(707,614,cs),
(647,676,o),
(556,710,o),
(448,710,cs),
(304,710,o),
(221,675,o),
(138,576,c),
(243,459,l),
(300,534,o),
(349,555,o),
(432,555,cs),
(492,555,o),
(537,539,o),
(564,504,cs),
(591,469,o),
(600,417,o),
(591,345,cs),
(575,215,o),
(526,148,o),
(392,148,cs),
(333,148,o),
(293,164,o),
(269,197,cs),
(245,229,o),
(238,279,o),
(246,347,cs),
(250,379,l),
(93,285,l),
(735,285,l),
(753,429,l),
(67,429,l),
(54,328,ls),
(40,217,o),
(71,133,o),
(129,77,cs),
(187,21,o),
(273,-7,o),
(373,-7,cs)
);
}
);
width = 820;
},
{
layerId = "84E89F29-712A-4FA0-8D04-7033136CE2AB";
shapes = (
{
closed = 1;
nodes = (
(606,-10,o),
(739,114,o),
(768,347,cs),
(781,446,o),
(760,537,o),
(706,603,cs),
(653,669,o),
(566,710,o),
(449,710,cs),
(323,710,o),
(255,686,o),
(161,609,c),
(201,553,l),
(276,617,o),
(346,638,o),
(443,638,cs),
(531,638,o),
(599,605,o),
(641,552,cs),
(683,499,o),
(702,427,o),
(692,347,cs),
(670,167,o),
(564,62,o),
(382,62,cs),
(303,62,o),
(239,87,o),
(198,132,cs),
(155,176,o),
(135,242,o),
(145,323,cs),
(152,379,l),
(110,330,l),
(730,330,l),
(739,400,l),
(77,400,l),
(70,342,ls),
(55,221,o),
(83,132,o),
(139,75,cs),
(195,18,o),
(278,-10,o),
(373,-10,cs)
);
}
);
width = 820;
},
{
layerId = "947D3E97-14BA-4793-BB0D-B2B2C86BF4D4";
shapes = (
{
closed = 1;
nodes = (
(594,-10,o),
(734,124,o),
(761,350,cs),
(772,441,o),
(757,532,o),
(709,599,cs),
(660,666,o),
(579,710,o),
(464,710,cs),
(345,710,o),
(275,692,o),
(193,618,c),
(213,594,l),
(290,663,o),
(350,678,o),
(463,678,cs),
(559,678,o),
(632,643,o),
(677,584,cs),
(721,525,o),
(740,443,o),
(728,351,cs),
(701,145,o),
(579,22,o),
(369,22,cs),
(278,22,o),
(208,53,o),
(165,110,cs),
(121,167,o),
(105,251,o),
(117,355,cs),
(120,379,l),
(94,355,l),
(724,355,l),
(728,387,l),
(83,387,l),
(80,359,ls),
(64,231,o),
(88,138,o),
(140,78,cs),
(191,18,o),
(271,-10,o),
(364,-10,cs)
);
}
);
width = 820;
},
{
layerId = "082E40FD-8E35-4556-8ECC-8D6EB191F145";
shapes = (
{
closed = 1;
nodes = (
(624,-7,o),
(772,130,o),
(772,349,cs),
(772,461,o),
(732,552,o),
(664,614,cs),
(596,676,o),
(501,710,o),
(393,710,cs),
(278,710,o),
(169,671,o),
(100,576,c),
(220,459,l),
(262,526,o),
(319,555,o),
(397,555,cs),
(457,555,o),
(504,539,o),
(535,504,cs),
(566,469,o),
(582,417,o),
(582,345,cs),
(582,224,o),
(536,148,o),
(407,148,cs),
(348,148,o),
(306,164,o),
(278,197,cs),
(250,229,o),
(237,279,o),
(237,347,cs),
(237,379,l),
(91,285,l),
(733,285,l),
(733,429,l),
(47,429,l),
(47,328,ls),
(47,217,o),
(88,133,o),
(153,77,cs),
(218,21,o),
(308,-7,o),
(408,-7,cs)
);
}
);
width = 820;
},
{
layerId = "0E2BF6D7-5696-44D4-BEAE-B9A848D3BB08";
shapes = (
{
closed = 1;
nodes = (
(621,-10,o),
(759,136,o),
(759,347,cs),
(759,446,o),
(727,537,o),
(665,603,cs),
(603,669,o),
(511,710,o),
(394,710,cs),
(291,710,o),
(196,680,o),
(119,609,c),
(166,553,l),
(224,608,o),
(318,638,o),
(397,638,cs),
(485,638,o),
(557,605,o),
(606,552,cs),
(655,499,o),
(683,427,o),
(683,347,cs),
(683,181,o),
(578,62,o),
(408,62,cs),
(329,62,o),
(262,87,o),
(215,132,cs),
(167,176,o),
(139,242,o),
(139,323,cs),
(139,379,l),
(103,330,l),
(723,330,l),
(723,400,l),
(61,400,l),
(61,342,ls),
(61,221,o),
(100,132,o),
(164,75,cs),
(227,18,o),
(313,-10,o),
(408,-10,cs)
);
}
);
width = 820;
},
{
layerId = "B8F76C44-C3C5-4DD7-B95D-04ADE237D0F5";
shapes = (
{
closed = 1;
nodes = (
(608,-10,o),
(751,143,o),
(751,350,cs),
(751,441,o),
(724,532,o),
(668,599,cs),
(611,666,o),
(524,710,o),
(409,710,cs),
(318,710,o),
(215,685,o),
(150,618,c),
(173,594,l),
(236,657,o),
(326,678,o),
(412,678,cs),
(508,678,o),
(585,643,o),
(637,584,cs),
(689,525,o),
(718,443,o),
(718,351,cs),
(718,162,o),
(593,22,o),
(400,22,cs),
(309,22,o),
(236,53,o),
(185,110,cs),
(134,167,o),
(107,251,o),
(107,355,cs),
(107,379,l),
(84,355,l),
(714,355,l),
(714,387,l),
(69,387,l),
(69,359,ls),
(69,231,o),
(105,138,o),
(164,78,cs),
(223,18,o),
(306,-10,o),
(399,-10,cs)
);
}
);
width = 820;
}
);
leftKerningGroup = C2;
rightKerningGroup = D;
unicode = 399;
},
{
glyphname = T;
layers = (
{
layerId = "B0F09294-F33C-4320-A79E-9223B78F399B";
shapes = (
{
closed = 1;
nodes = (
(130,0,l),
(310,0,l),
(379,550,l),
(530,550,l),
(549,700,l),
(67,700,l),
(48,550,l),
(199,550,l)
);
}
);
width = 508;
},
{
layerId = "84E89F29-712A-4FA0-8D04-7033136CE2AB";
shapes = (
{
closed = 1;
nodes = (
(183,0,l),
(257,0,l),
(336,630,l),
(526,630,l),
(535,700,l),
(81,700,l),
(72,630,l),
(262,630,l)
);
}
);
width = 508;
},
{
layerId = "947D3E97-14BA-4793-BB0D-B2B2C86BF4D4";
shapes = (
{
closed = 1;
nodes = (
(203,0,l),
(236,0,l),
(320,669,l),
(519,669,l),
(523,700,l),
(92,700,l),
(88,669,l),
(287,669,l)
);
}
);
width = 508;
},
{
layerId = "082E40FD-8E35-4556-8ECC-8D6EB191F145";
shapes = (
{
closed = 1;
nodes = (
(164,0,l),
(344,0,l),
(344,550,l),
(495,550,l),
(495,700,l),
(13,700,l),
(13,550,l),
(164,550,l)
);
}
);
width = 508;
},
{
layerId = "0E2BF6D7-5696-44D4-BEAE-B9A848D3BB08";
shapes = (
{
closed = 1;
nodes = (
(217,0,l),
(291,0,l),
(291,630,l),
(481,630,l),
(481,700,l),
(27,700,l),
(27,630,l),
(217,630,l)
);
}
);
width = 508;
},
{
layerId = "B8F76C44-C3C5-4DD7-B95D-04ADE237D0F5";
shapes = (
{
closed = 1;
nodes = (
(237,0,l),
(270,0,l),
(270,669,l),
(469,669,l),
(469,700,l),
(38,700,l),
(38,669,l),
(237,669,l)
);
}
);
width = 508;
}
);
leftKerningGroup = T2;
rightKerningGroup = T;
unicode = 84;
},
{
glyphname = Tbar;
layers = (
{
layerId = "B0F09294-F33C-4320-A79E-9223B78F399B";
shapes = (
{
closed = 1;
nodes = (
(130,0,l),
(310,0,l),
(379,550,l),
(530,550,l),
(549,700,l),
(67,700,l),
(48,550,l),
(199,550,l)
);
},
{
closed = 1;
nodes = (
(472,450,l),
(69,450,l),
(50,300,l),
(454,300,l)
);
}
);
width = 508;
},
{
layerId = "84E89F29-712A-4FA0-8D04-7033136CE2AB";
shapes = (
{
closed = 1;
nodes = (
(183,0,l),
(257,0,l),
(336,630,l),
(526,630,l),
(535,700,l),
(81,700,l),
(72,630,l),
(262,630,l)
);
},
{
closed = 1;
nodes = (
(456,410,l),
(82,410,l),
(73,340,l),
(447,340,l)
);
}
);
width = 508;
},
{
layerId = "947D3E97-14BA-4793-BB0D-B2B2C86BF4D4";
shapes = (
{
closed = 1;
nodes = (
(203,0,l),
(236,0,l),
(320,669,l),
(519,669,l),
(523,700,l),
(92,700,l),
(88,669,l),
(287,669,l)
);
},
{
closed = 1;
nodes = (
(439,391,l),
(78,391,l),
(74,360,l),
(435,360,l)
);
}
);
width = 508;
},
{
layerId = "082E40FD-8E35-4556-8ECC-8D6EB191F145";
shapes = (
{
closed = 1;
nodes = (
(164,0,l),
(344,0,l),
(344,550,l),
(495,550,l),
(495,700,l),
(13,700,l),
(13,550,l),
(164,550,l)
);
},
{
closed = 1;
nodes = (
(451,450,l),
(47,450,l),
(47,300,l),
(451,300,l)
);
}
);
width = 508;
},
{
layerId = "0E2BF6D7-5696-44D4-BEAE-B9A848D3BB08";
shapes = (
{
closed = 1;
nodes = (
(217,0,l),
(291,0,l),
(291,630,l),
(481,630,l),
(481,700,l),
(27,700,l),
(27,630,l),
(217,630,l)
);
},
{
closed = 1;
nodes = (
(440,410,l),
(65,410,l),
(65,340,l),
(440,340,l)
);
}
);
width = 508;
},
{
layerId = "B8F76C44-C3C5-4DD7-B95D-04ADE237D0F5";
shapes = (
{
closed = 1;
nodes = (
(237,0,l),
(270,0,l),
(270,669,l),
(469,669,l),
(469,700,l),
(38,700,l),
(38,669,l),
(237,669,l)
);
},
{
closed = 1;
nodes = (
(425,391,l),
(64,391,l),
(64,360,l),
(425,360,l)
);
}
);
width = 508;
}
);
leftKerningGroup = T2;
rightKerningGroup = T;
unicode = 358;
},
{
glyphname = U;
layers = (
{
layerId = "B0F09294-F33C-4320-A79E-9223B78F399B";
shapes = (
{
closed = 1;
nodes = (
(527,-10,o),
(625,94,o),
(649,287,cs),
(701,700,l),
(531,700,l),
(478,283,ls),
(467,192,o),
(423,155,o),
(348,155,cs),
(260,155,o),
(244,217,o),
(254,295,cs),
(305,700,l),
(125,700,l),
(72,279,ls),
(48,89,o),
(143,-10,o),
(331,-10,cs)
);
}
);
width = 718;
},
{
layerId = "84E89F29-712A-4FA0-8D04-7033136CE2AB";
shapes = (
{
closed = 1;
nodes = (
(505,-10,o),
(593,103,o),
(615,277,cs),
(668,700,l),
(594,700,l),
(541,281,ls),
(522,125,o),
(456,62,o),
(333,62,cs),
(200,62,o),
(164,161,o),
(179,281,cs),
(232,700,l),
(158,700,l),
(105,277,ls),
(85,118,o),
(154,-10,o),
(324,-10,cs)
);
}
);
width = 718;
},
{
layerId = "947D3E97-14BA-4793-BB0D-B2B2C86BF4D4";
shapes = (
{
closed = 1;
nodes = (
(496,-10,o),
(580,95,o),
(601,262,cs),
(656,700,l),
(623,700,l),
(568,264,ls),
(547,100,o),
(473,22,o),
(328,22,cs),
(182,22,o),
(133,134,o),
(148,264,cs),
(203,700,l),
(170,700,l),
(115,262,ls),
(95,113,o),
(162,-10,o),
(324,-10,cs)
);
}
);
width = 718;
},
{
layerId = "082E40FD-8E35-4556-8ECC-8D6EB191F145";
shapes = (
{
closed = 1;
nodes = (
(551,-10,o),
(647,108,o),
(647,287,cs),
(647,700,l),
(477,700,l),
(477,283,ls),
(477,198,o),
(432,155,o),
(363,155,cs),
(275,155,o),
(251,217,o),
(251,295,cs),
(251,700,l),
(71,700,l),
(71,279,ls),
(71,89,o),
(178,-10,o),
(366,-10,cs)
);
}
);
width = 718;
},
{
layerId = "0E2BF6D7-5696-44D4-BEAE-B9A848D3BB08";
shapes = (
{
closed = 1;
nodes = (
(532,-10,o),
(614,116,o),
(614,277,cs),
(614,700,l),
(540,700,l),
(540,281,ls),
(540,134,o),
(474,62,o),
(359,62,cs),
(226,62,o),
(178,161,o),
(178,281,cs),
(178,700,l),
(104,700,l),
(104,277,ls),
(104,118,o),
(189,-10,o),
(359,-10,cs)
);
}
);
width = 718;
},
{
layerId = "B8F76C44-C3C5-4DD7-B95D-04ADE237D0F5";
shapes = (
{
closed = 1;
nodes = (
(520,-10,o),
(602,111,o),
(602,262,cs),
(602,700,l),
(569,700,l),
(569,264,ls),
(569,112,o),
(494,22,o),
(359,22,cs),
(216,22,o),
(149,132,o),
(149,264,cs),
(149,700,l),
(116,700,l),
(116,262,ls),
(116,110,o),
(197,-10,o),
(359,-10,cs)
);
}
);
width = 718;
}
);
leftKerningGroup = U;
rightKerningGroup = J;
unicode = 85;
},
{
glyphname = Uogonek;
layers = (
{
layerId = "B0F09294-F33C-4320-A79E-9223B78F399B";
shapes = (
{
closed = 1;
nodes = (
(481,-250,o),
(515,-240,o),
(527,-235,q),
(536,-158,l),
(526,-163,o),
(505,-166,o),
(499,-166,qs),
(479,-166,o),
(460,-129,o),
(464,-94,qs),
(467,-72,o),
(482,-29,o),
(505,13,o),
(533,52,o),
(549,69,qs),
(587,109,o),
(640,216,o),
(649,287,qs),
(701,700,l),
(531,700,l),
(478,283,ls),
(474,251,o),
(452,203,o),
(417,171,o),
(371,155,o),
(344,155,qs),
(319,155,o),
(281,170,o),
(257,203,o),
(249,257,o),
(254,295,qs),
(305,700,l),
(125,700,l),
(72,279,ls),
(63,210,o),
(87,102,o),
(151,29,o),
(254,-10,o),
(325,-10,qs),
(349,-10,o),
(390,-6,o),
(409,-2,q),
(398,-19,o),
(379,-52,o),
(365,-85,o),
(356,-117,o),
(354,-132,qs),
(351,-157,o),
(361,-200,o),
(386,-232,o),
(428,-250,o),
(458,-250,qs)
);
}
);
width = 718;
},
{
layerId = "84E89F29-712A-4FA0-8D04-7033136CE2AB";
shapes = (
{
closed = 1;
nodes = (
(457,-243,o),
(486,-239,o),
(501,-234,q),
(508,-179,l),
(496,-183,o),
(476,-185,o),
(469,-185,qs),
(436,-185,o),
(406,-149,o),
(410,-119,qs),
(413,-98,o),
(429,-58,o),
(458,-11,o),
(501,44,o),
(531,79,qs),
(561,114,o),
(606,211,o),
(614,269,qs),
(668,700,l),
(594,700,l),
(540,275,ls),
(534,224,o),
(499,145,o),
(446,90,o),
(376,62,o),
(333,62,qs),
(290,62,o),
(226,90,o),
(187,145,o),
(172,224,o),
(178,275,qs),
(232,700,l),
(158,700,l),
(104,269,ls),
(96,207,o),
(118,104,o),
(175,31,o),
(264,-10,o),
(323,-10,qs),
(349,-10,o),
(397,0,o),
(420,8,q),
(401,-16,o),
(373,-58,o),
(353,-95,o),
(341,-127,o),
(339,-141,qs),
(337,-162,o),
(346,-199,o),
(371,-227,o),
(410,-243,o),
(436,-243,qs)
);
}
);
width = 718;
},
{
layerId = "947D3E97-14BA-4793-BB0D-B2B2C86BF4D4";
shapes = (
{
closed = 1;
nodes = (
(436,-240,o),
(470,-235,o),
(477,-233,q),
(481,-202,l),
(469,-204,o),
(446,-208,o),
(435,-208,qs),
(400,-208,o),
(370,-172,o),
(374,-140,q),
(377,-123,o),
(393,-83,o),
(424,-35,o),
(474,25,o),
(510,64,qs),
(549,106,o),
(593,203,o),
(601,265,qs),
(656,700,l),
(623,700,l),
(568,266,ls),
(561,209,o),
(523,118,o),
(459,55,o),
(378,22,o),
(328,22,qs),
(278,22,o),
(205,55,o),
(159,118,o),
(141,209,o),
(148,266,qs),
(203,700,l),
(170,700,l),
(115,265,ls),
(107,203,o),
(127,101,o),
(180,30,o),
(267,-10,o),
(324,-10,qs),
(350,-10,o),
(417,5,o),
(446,23,q),
(417,-11,o),
(376,-61,o),
(351,-100,o),
(339,-132,o),
(338,-146,q),
(335,-166,o),
(343,-199,o),
(364,-226,o),
(401,-240,o),
(427,-240,qs)
);
}
);
width = 718;
},
{
layerId = "082E40FD-8E35-4556-8ECC-8D6EB191F145";
shapes = (
{
closed = 1;
nodes = (
(546,-250,o),
(579,-240,o),
(590,-235,q),
(590,-158,l),
(580,-163,o),
(560,-166,o),
(554,-166,qs),
(534,-166,o),
(510,-129,o),
(510,-94,qs),
(510,-72,o),
(520,-29,o),
(537,13,o),
(560,52,o),
(574,69,qs),
(607,109,o),
(647,216,o),
(647,287,qs),
(647,700,l),
(477,700,l),
(477,283,ls),
(477,251,o),
(461,203,o),
(430,171,o),
(386,155,o),
(359,155,qs),
(334,155,o),
(294,170,o),
(266,203,o),
(251,257,o),
(251,295,qs),
(251,700,l),
(71,700,l),
(71,279,ls),
(71,210,o),
(108,102,o),
(181,29,o),
(289,-10,o),
(360,-10,qs),
(384,-10,o),
(425,-6,o),
(443,-2,q),
(434,-19,o),
(420,-52,o),
(410,-85,o),
(405,-117,o),
(405,-132,qs),
(405,-157,o),
(420,-200,o),
(449,-232,o),
(493,-250,o),
(523,-250,qs)
);
}
);
width = 718;
},
{
layerId = "0E2BF6D7-5696-44D4-BEAE-B9A848D3BB08";
shapes = (
{
closed = 1;
nodes = (
(521,-243,o),
(550,-239,o),
(564,-234,q),
(564,-179,l),
(553,-183,o),
(533,-185,o),
(526,-185,qs),
(493,-185,o),
(459,-149,o),
(459,-119,qs),
(459,-98,o),
(470,-58,o),
(493,-11,o),
(529,44,o),
(555,79,qs),
(581,114,o),
(614,211,o),
(614,269,qs),
(614,700,l),
(540,700,l),
(540,275,ls),
(540,224,o),
(515,145,o),
(469,90,o),
(402,62,o),
(359,62,qs),
(316,62,o),
(249,90,o),
(203,145,o),
(178,224,o),
(178,275,qs),
(178,700,l),
(104,700,l),
(104,269,ls),
(104,207,o),
(139,104,o),
(205,31,o),
(299,-10,o),
(358,-10,qs),
(384,-10,o),
(431,0,o),
(453,8,q),
(437,-16,o),
(414,-58,o),
(399,-95,o),
(391,-127,o),
(391,-141,qs),
(391,-162,o),
(405,-199,o),
(433,-227,o),
(474,-243,o),
(500,-243,qs)
);
}
);
width = 718;
},
{
layerId = "B8F76C44-C3C5-4DD7-B95D-04ADE237D0F5";
shapes = (
{
closed = 1;
nodes = (
(500,-240,o),
(533,-235,o),
(540,-233,q),
(540,-202,l),
(529,-204,o),
(506,-208,o),
(495,-208,qs),
(460,-208,o),
(426,-172,o),
(426,-140,qs),
(426,-123,o),
(437,-83,o),
(462,-35,o),
(505,25,o),
(536,64,qs),
(570,106,o),
(602,203,o),
(602,265,qs),
(602,700,l),
(569,700,l),
(569,266,ls),
(569,209,o),
(542,118,o),
(486,55,o),
(409,22,o),
(359,22,qs),
(309,22,o),
(232,55,o),
(178,118,o),
(149,209,o),
(149,266,qs),
(149,700,l),
(116,700,l),
(116,265,ls),
(116,203,o),
(148,101,o),
(210,30,o),
(302,-10,o),
(359,-10,qs),
(385,-10,o),
(450,5,o),
(477,23,q),
(452,-11,o),
(418,-61,o),
(398,-100,o),
(390,-132,o),
(390,-146,qs),
(390,-166,o),
(402,-199,o),
(426,-226,o),
(465,-240,o),
(491,-240,qs)
);
}
);
width = 718;
}
);
leftKerningGroup = U;
rightKerningGroup = J;
unicode = 370;
},
{
glyphname = V;
layers = (
{
layerId = "B0F09294-F33C-4320-A79E-9223B78F399B";
shapes = (
{
closed = 1;
nodes = (
(235,-6,l),
(335,-6,l),
(673,680,l),
(676,700,l),
(507,700,l),
(265,177,l),
(365,177,l),
(251,700,l),
(70,700,l),
(67,680,l)
);
}
);
width = 638;
},
{
layerId = "84E89F29-712A-4FA0-8D04-7033136CE2AB";
shapes = (
{
closed = 1;
nodes = (
(272,-10,l),
(295,-10,l),
(664,680,l),
(667,700,l),
(596,700,l),
(290,119,l),
(315,119,l),
(152,700,l),
(79,700,l),
(76,680,l)
);
}
);
width = 638;
},
{
layerId = "947D3E97-14BA-4793-BB0D-B2B2C86BF4D4";
shapes = (
{
closed = 1;
nodes = (
(281,-10,l),
(283,-10,l),
(636,680,l),
(639,700,l),
(615,700,l),
(280,48,l),
(301,48,l),
(131,700,l),
(106,700,l),
(103,680,l)
);
}
);
width = 638;
},
{
layerId = "082E40FD-8E35-4556-8ECC-8D6EB191F145";
shapes = (
{
closed = 1;
nodes = (
(270,-6,l),
(370,-6,l),
(622,680,l),
(622,700,l),
(453,700,l),
(277,177,l),
(377,177,l),
(197,700,l),
(16,700,l),
(16,680,l)
);
}
);
width = 638;
},
{
layerId = "0E2BF6D7-5696-44D4-BEAE-B9A848D3BB08";
shapes = (
{
closed = 1;
nodes = (
(307,-10,l),
(330,-10,l),
(613,680,l),
(613,700,l),
(542,700,l),
(309,119,l),
(334,119,l),
(98,700,l),
(25,700,l),
(25,680,l)
);
}
);
width = 638;
},
{
layerId = "B8F76C44-C3C5-4DD7-B95D-04ADE237D0F5";
shapes = (
{
closed = 1;
nodes = (
(316,-10,l),
(318,-10,l),
(585,680,l),
(585,700,l),
(561,700,l),
(308,48,l),
(329,48,l),
(77,700,l),
(52,700,l),
(52,680,l)
);
}
);
width = 638;
}
);
unicode = 86;
},
{
glyphname = W;
layers = (
{
layerId = "B0F09294-F33C-4320-A79E-9223B78F399B";
shapes = (
{
closed = 1;
nodes = (
(138,0,l),
(268,0,l),
(525,514,l),
(442,514,l),
(562,0,l),
(688,0,l),
(945,680,l),
(948,700,l),
(783,700,l),
(586,180,l),
(694,149,l),
(567,700,l),
(451,700,l),
(187,150,l),
(292,220,l),
(235,700,l),
(60,700,l),
(57,680,l)
);
}
);
width = 900;
},
{
layerId = "84E89F29-712A-4FA0-8D04-7033136CE2AB";
shapes = (
{
closed = 1;
nodes = (
(204,-10,l),
(226,-10,l),
(513,598,l),
(469,598,l),
(603,-10,l),
(626,-10,l),
(905,680,l),
(908,700,l),
(839,700,l),
(613,134,l),
(639,134,l),
(516,700,l),
(492,700,l),
(227,134,l),
(253,134,l),
(169,700,l),
(100,700,l),
(97,680,l)
);
}
);
width = 900;
},
{
layerId = "947D3E97-14BA-4793-BB0D-B2B2C86BF4D4";
shapes = (
{
closed = 1;
nodes = (
(215,0,l),
(490,615,l),
(495,615,l),
(616,0,l),
(623,0,l),
(886,680,l),
(889,700,l),
(863,700,l),
(622,84,l),
(631,84,l),
(508,700,l),
(499,700,l),
(222,84,l),
(231,84,l),
(144,700,l),
(117,700,l),
(114,680,l),
(207,0,l)
);
}
);
width = 900;
},
{
layerId = "082E40FD-8E35-4556-8ECC-8D6EB191F145";
shapes = (
{
closed = 1;
nodes = (
(172,0,l),
(302,0,l),
(495,514,l),
(412,514,l),
(596,0,l),
(722,0,l),
(894,680,l),
(894,700,l),
(729,700,l),
(597,180,l),
(709,149,l),
(513,700,l),
(397,700,l),
(202,150,l),
(298,220,l),
(181,700,l),
(6,700,l),
(6,680,l)
);
}
);
width = 900;
},
{
layerId = "0E2BF6D7-5696-44D4-BEAE-B9A848D3BB08";
shapes = (
{
closed = 1;
nodes = (
(239,-10,l),
(261,-10,l),
(472,598,l),
(428,598,l),
(638,-10,l),
(661,-10,l),
(854,680,l),
(854,700,l),
(785,700,l),
(630,134,l),
(656,134,l),
(462,700,l),
(438,700,l),
(244,134,l),
(270,134,l),
(115,700,l),
(46,700,l),
(46,680,l)
);
}
);
width = 900;
},
{
layerId = "B8F76C44-C3C5-4DD7-B95D-04ADE237D0F5";
shapes = (
{
closed = 1;
nodes = (
(249,0,l),
(447,615,l),
(452,615,l),
(650,0,l),
(657,0,l),
(835,680,l),
(835,700,l),
(809,700,l),
(645,84,l),
(654,84,l),
(454,700,l),
(445,700,l),
(245,84,l),
(254,84,l),
(90,700,l),
(63,700,l),
(63,680,l),
(241,0,l)
);
}
);
width = 900;
}
);
leftKerningGroup = W2;
rightKerningGroup = W;
unicode = 87;
},
{
glyphname = X;
layers = (
{
layerId = "B0F09294-F33C-4320-A79E-9223B78F399B";
shapes = (
{
closed = 1;
nodes = (
(-64,0,l),
(115,0,l),
(298,262,l),
(417,0,l),
(610,0,l),
(613,20,l),
(426,382,l),
(646,680,l),
(649,700,l),
(474,700,l),
(335,503,l),
(249,700,l),
(58,700,l),
(55,680,l),
(201,380,l),
(-61,20,l)
);
}
);
width = 615;
},
{
layerId = "84E89F29-712A-4FA0-8D04-7033136CE2AB";
shapes = (
{
closed = 1;
nodes = (
(15,0,l),
(86,0,l),
(311,303,l),
(457,0,l),
(532,0,l),
(535,20,l),
(365,371,l),
(595,680,l),
(598,700,l),
(531,700,l),
(331,432,l),
(208,700,l),
(130,700,l),
(127,680,l),
(278,367,l),
(18,20,l)
);
}
);
width = 615;
},
{
layerId = "947D3E97-14BA-4793-BB0D-B2B2C86BF4D4";
shapes = (
{
closed = 1;
nodes = (
(27,0,l),
(53,0,l),
(313,343,l),
(494,0,l),
(517,0,l),
(520,20,l),
(338,368,l),
(580,680,l),
(583,700,l),
(556,700,l),
(322,396,l),
(160,700,l),
(139,700,l),
(136,680,l),
(298,372,l),
(30,20,l)
);
}
);
width = 615;
},
{
layerId = "082E40FD-8E35-4556-8ECC-8D6EB191F145";
shapes = (
{
closed = 1;
nodes = (
(-30,0,l),
(149,0,l),
(299,262,l),
(451,0,l),
(644,0,l),
(644,20,l),
(412,382,l),
(595,680,l),
(595,700,l),
(420,700,l),
(306,503,l),
(195,700,l),
(4,700,l),
(4,680,l),
(187,380,l),
(-30,20,l)
);
}
);
width = 615;
},
{
layerId = "0E2BF6D7-5696-44D4-BEAE-B9A848D3BB08";
shapes = (
{
closed = 1;
nodes = (
(49,0,l),
(120,0,l),
(307,303,l),
(491,0,l),
(566,0,l),
(566,20,l),
(353,371,l),
(544,680,l),
(544,700,l),
(477,700,l),
(311,432,l),
(154,700,l),
(76,700,l),
(76,680,l),
(266,367,l),
(49,20,l)
);
}
);
width = 615;
},
{
layerId = "B8F76C44-C3C5-4DD7-B95D-04ADE237D0F5";
shapes = (
{
closed = 1;
nodes = (
(61,0,l),
(87,0,l),
(304,343,l),
(528,0,l),
(551,0,l),
(551,20,l),
(326,368,l),
(529,680,l),
(529,700,l),
(502,700,l),
(306,396,l),
(106,700,l),
(85,700,l),
(85,680,l),
(285,372,l),
(61,20,l)
);
}
);
width = 615;
}
);
unicode = 88;
},
{
glyphname = Y;
layers = (
{
layerId = "B0F09294-F33C-4320-A79E-9223B78F399B";
shapes = (
{
closed = 1;
nodes = (
(264,132,l),
(282,132,l),
(610,680,l),
(613,700,l),
(437,700,l),
(279,401,l),
(349,402,l),
(265,700,l),
(75,700,l),
(72,680,l)
);
},
{
closed = 1;
nodes = (
(384,307,l),
(204,307,l),
(166,0,l),
(346,0,l)
);
}
);
width = 580;
},
{
layerId = "84E89F29-712A-4FA0-8D04-7033136CE2AB";
shapes = (
{
closed = 1;
nodes = (
(287,254,l),
(300,258,l),
(602,680,l),
(605,700,l),
(532,700,l),
(288,357,l),
(321,357,l),
(155,700,l),
(83,700,l),
(80,680,l)
);
},
{
closed = 1;
nodes = (
(343,369,l),
(269,369,l),
(223,0,l),
(297,0,l)
);
}
);
width = 580;
},
{
layerId = "947D3E97-14BA-4793-BB0D-B2B2C86BF4D4";
shapes = (
{
closed = 1;
nodes = (
(296,326,l),
(309,325,l),
(575,679,l),
(578,700,l),
(557,700,l),
(296,353,l),
(317,354,l),
(134,700,l),
(110,700,l),
(107,679,l)
);
},
{
closed = 1;
nodes = (
(323,361,l),
(291,361,l),
(246,0,l),
(278,0,l)
);
}
);
width = 580;
},
{
layerId = "082E40FD-8E35-4556-8ECC-8D6EB191F145";
shapes = (
{
closed = 1;
nodes = (
(281,132,l),
(299,132,l),
(559,680,l),
(559,700,l),
(383,700,l),
(263,401,l),
(333,402,l),
(211,700,l),
(21,700,l),
(21,680,l)
);
},
{
closed = 1;
nodes = (
(380,307,l),
(200,307,l),
(200,0,l),
(380,0,l)
);
}
);
width = 580;
},
{
layerId = "0E2BF6D7-5696-44D4-BEAE-B9A848D3BB08";
shapes = (
{
closed = 1;
nodes = (
(289,254,l),
(302,258,l),
(551,680,l),
(551,700,l),
(478,700,l),
(277,357,l),
(310,357,l),
(101,700,l),
(29,700,l),
(29,680,l)
);
},
{
closed = 1;
nodes = (
(331,369,l),
(257,369,l),
(257,0,l),
(331,0,l)
);
}
);
width = 580;
},
{
layerId = "B8F76C44-C3C5-4DD7-B95D-04ADE237D0F5";
shapes = (
{
closed = 1;
nodes = (
(289,326,l),
(302,325,l),
(524,679,l),
(524,700,l),
(503,700,l),
(286,353,l),
(307,354,l),
(80,700,l),
(56,700,l),
(56,679,l)
);
},
{
closed = 1;
nodes = (
(312,361,l),
(280,361,l),
(280,0,l),
(312,0,l)
);
}
);
width = 580;
}
);
leftKerningGroup = Y2;
rightKerningGroup = Y;
unicode = 89;
},
{
glyphname = Z;
layers = (
{
layerId = "B0F09294-F33C-4320-A79E-9223B78F399B";
shapes = (
{
closed = 1;
nodes = (
(13,0,l),
(497,0,l),
(516,150,l),
(203,150,l),
(220,104,l),
(567,578,l),
(583,700,l),
(122,700,l),
(103,550,l),
(418,550,l),
(387,602,l),
(27,109,l)
);
}
);
width = 582;
},
{
layerId = "84E89F29-712A-4FA0-8D04-7033136CE2AB";
shapes = (
{
closed = 1;
nodes = (
(16,0,l),
(486,0,l),
(495,70,l),
(92,70,l),
(101,49,l),
(574,650,l),
(581,700,l),
(121,700,l),
(112,630,l),
(516,630,l),
(499,663,l),
(23,59,l)
);
}
);
width = 582;
},
{
layerId = "947D3E97-14BA-4793-BB0D-B2B2C86BF4D4";
shapes = (
{
closed = 1;
nodes = (
(19,0,l),
(482,0,l),
(486,31,l),
(55,31,l),
(47,-2,l),
(579,689,l),
(581,700,l),
(121,700,l),
(117,669,l),
(546,669,l),
(557,706,l),
(20,8,l)
);
}
);
width = 582;
},
{
layerId = "082E40FD-8E35-4556-8ECC-8D6EB191F145";
shapes = (
{
closed = 1;
nodes = (
(47,0,l),
(531,0,l),
(531,150,l),
(218,150,l),
(241,104,l),
(529,578,l),
(529,700,l),
(68,700,l),
(68,550,l),
(383,550,l),
(346,602,l),
(47,109,l)
);
}
);
width = 582;
},
{
layerId = "0E2BF6D7-5696-44D4-BEAE-B9A848D3BB08";
shapes = (
{
closed = 1;
nodes = (
(50,0,l),
(520,0,l),
(520,70,l),
(117,70,l),
(129,49,l),
(527,650,l),
(527,700,l),
(67,700,l),
(67,630,l),
(471,630,l),
(450,663,l),
(50,59,l)
);
}
);
width = 582;
},
{
layerId = "B8F76C44-C3C5-4DD7-B95D-04ADE237D0F5";
shapes = (
{
closed = 1;
nodes = (
(53,0,l),
(516,0,l),
(516,31,l),
(85,31,l),
(81,-2,l),
(527,689,l),
(527,700,l),
(67,700,l),
(67,669,l),
(496,669,l),
(503,706,l),
(53,8,l)
);
}
);
width = 582;
}
);
leftKerningGroup = Z2;
rightKerningGroup = Z;
unicode = 90;
},
{
glyphname = a;
layers = (
{
layerId = "B0F09294-F33C-4320-A79E-9223B78F399B";
shapes = (
{
closed = 1;
nodes = (
(265,-11,o),
(327,48,o),
(341,160,c),
(319,127,l),
(314,85,o),
(313,42,o),
(319,0,c),
(480,0,l),
(475,44,o),
(475,88,o),
(481,132,cs),
(498,274,l),
(516,414,o),
(430,477,o),
(298,477,cs),
(180,477,o),
(102,443,o),
(49,333,c),
(184,300,l),
(203,337,o),
(224,351,o),
(275,351,cs),
(303,351,o),
(346,343,o),
(341,307,cs),
(339,288,o),
(323,270,o),
(282,270,cs),
(174,270,ls),
(83,270,o),
(17,228,o),
(5,137,cs),
(-7,41,o),
(60,-11,o),
(152,-11,cs)
);
},
{
closed = 1;
nodes = (
(183,119,o),
(170,136,o),
(172,155,cs),
(175,174,o),
(188,188,o),
(222,188,cs),
(266,188,ls),
(302,188,o),
(327,208,o),
(342,243,c),
(336,267,l),
(329,208,ls),
(322,149,o),
(285,119,o),
(227,119,cs)
);
}
);
width = 543;
},
{
layerId = "84E89F29-712A-4FA0-8D04-7033136CE2AB";
shapes = (
{
closed = 1;
nodes = (
(279,-9,o),
(381,29,o),
(393,127,c),
(388,150,l),
(382,99,o),
(380,50,o),
(387,0,c),
(460,0,l),
(451,43,o),
(453,85,o),
(458,128,cs),
(475,265,l),
(492,398,o),
(434,476,o),
(300,476,cs),
(179,476,o),
(102,439,o),
(65,320,c),
(134,299,l),
(154,374,o),
(193,402,o),
(286,402,cs),
(347,402,o),
(412,378,o),
(403,305,cs),
(398,267,o),
(376,260,o),
(345,260,cs),
(193,260,ls),
(98,260,o),
(40,221,o),
(29,129,cs),
(16,31,o),
(98,-9,o),
(188,-9,cs)
);
},
{
closed = 1;
nodes = (
(132,66,o),
(100,89,o),
(106,135,cs),
(112,179,o),
(139,197,o),
(192,197,cs),
(323,197,ls),
(357,197,o),
(392,209,o),
(420,255,c),
(399,270,l),
(389,195,ls),
(378,101,o),
(302,66,o),
(212,66,cs)
);
}
);
width = 543;
},
{
layerId = "947D3E97-14BA-4793-BB0D-B2B2C86BF4D4";
shapes = (
{
closed = 1;
nodes = (
(308,-8,o),
(398,45,o),
(433,156,c),
(417,160,l),
(409,107,o),
(401,53,o),
(406,0,c),
(432,0,l),
(429,42,o),
(433,84,o),
(439,125,cs),
(457,260,l),
(473,395,o),
(419,477,o),
(282,477,cs),
(159,477,o),
(107,438,o),
(65,318,c),
(89,311,l),
(133,413,o),
(168,447,o),
(278,447,cs),
(367,447,o),
(439,398,o),
(427,303,cs),
(422,262,o),
(395,245,o),
(370,245,cs),
(200,245,ls),
(107,245,o),
(46,211,o),
(34,119,cs),
(21,15,o),
(102,-8,o),
(197,-8,cs)
);
},
{
closed = 1;
nodes = (
(113,23,o),
(58,44,o),
(67,118,cs),
(76,189,o),
(113,215,o),
(186,215,cs),
(365,215,ls),
(393,215,o),
(419,220,o),
(454,262,c),
(424,271,l),
(414,189,ls),
(400,78,o),
(308,23,o),
(201,23,cs)
);
}
);
width = 543;
},
{
layerId = "082E40FD-8E35-4556-8ECC-8D6EB191F145";
shapes = (
{
closed = 1;
nodes = (
(292,-11,o),
(355,56,o),
(355,160,c),
(337,127,l),
(337,85,o),
(342,42,o),
(357,0,c),
(514,0,l),
(501,44,o),
(498,88,o),
(498,132,cs),
(498,274,l),
(498,414,o),
(404,477,o),
(272,477,cs),
(167,477,o),
(78,436,o),
(41,333,c),
(180,300,l),
(193,333,o),
(218,351,o),
(265,351,cs),
(293,351,o),
(337,343,o),
(337,307,cs),
(337,288,o),
(323,270,o),
(282,270,cs),
(174,270,ls),
(90,270,o),
(22,224,o),
(22,137,cs),
(22,41,o),
(95,-11,o),
(187,-11,cs)
);
},
{
closed = 1;
nodes = (
(202,119,o),
(187,136,o),
(187,155,cs),
(187,172,o),
(200,188,o),
(232,188,cs),
(276,188,ls),
(312,188,o),
(335,208,o),
(346,243,c),
(337,267,l),
(337,208,ls),
(337,153,o),
(300,119,o),
(246,119,cs)
);
}
);
width = 543;
},
{
layerId = "0E2BF6D7-5696-44D4-BEAE-B9A848D3BB08";
shapes = (
{
closed = 1;
nodes = (
(304,-9,o),
(416,33,o),
(413,127,c),
(405,150,l),
(405,99,o),
(406,50,o),
(421,0,c),
(494,0,l),
(479,43,o),
(478,85,o),
(478,128,cs),
(478,265,l),
(478,398,o),
(411,476,o),
(276,476,cs),
(177,476,o),
(79,426,o),
(61,320,c),
(133,299,l),
(142,363,o),
(192,402,o),
(272,402,cs),
(333,402,o),
(401,378,o),
(401,305,cs),
(401,267,o),
(380,261,o),
(349,261,cs),
(197,261,ls),
(109,261,o),
(48,217,o),
(48,129,cs),
(48,31,o),
(135,-9,o),
(225,-9,cs)
);
},
{
closed = 1;
nodes = (
(160,66,o),
(125,89,o),
(125,135,cs),
(125,177,o),
(153,197,o),
(203,197,cs),
(335,197,ls),
(369,197,o),
(402,209,o),
(424,255,c),
(401,270,l),
(401,195,ls),
(401,108,o),
(317,66,o),
(240,66,cs)
);
}
);
width = 543;
},
{
layerId = "B8F76C44-C3C5-4DD7-B95D-04ADE237D0F5";
shapes = (
{
closed = 1;
nodes = (
(335,-8,o),
(433,54,o),
(452,156,c),
(435,160,l),
(435,107,o),
(436,53,o),
(454,0,c),
(484,0,l),
(466,42,o),
(462,84,o),
(462,125,cs),
(462,260,l),
(462,395,o),
(398,477,o),
(260,477,cs),
(160,477,o),
(85,416,o),
(63,318,c),
(88,311,l),
(113,391,o),
(164,447,o),
(260,447,cs),
(349,447,o),
(427,398,o),
(427,303,cs),
(427,262,o),
(402,245,o),
(377,245,cs),
(207,245,ls),
(122,245,o),
(56,206,o),
(56,119,cs),
(56,15,o),
(141,-8,o),
(236,-8,cs)
);
},
{
closed = 1;
nodes = (
(148,23,o),
(91,44,o),
(91,118,cs),
(91,184,o),
(131,215,o),
(197,215,cs),
(377,215,ls),
(404,215,o),
(430,220,o),
(459,262,c),
(427,271,l),
(427,189,ls),
(427,85,o),
(333,23,o),
(236,23,cs)
);
}
);
width = 543;
}
);
leftKerningGroup = a2;
rightKerningGroup = a;
unicode = 97;
},
{
glyphname = ae;
layers = (
{
layerId = "B0F09294-F33C-4320-A79E-9223B78F399B";
shapes = (
{
closed = 1;
nodes = (
(212,-11,o),
(274,15,o),
(321,63,cs),
(367,110,o),
(398,177,o),
(409,261,c),
(421,289,l),
(429,348,o),
(413,395,o),
(381,427,cs),
(348,459,o),
(298,477,o),
(235,477,cs),
(198,477,o),
(160,471,o),
(126,460,cs),
(91,449,o),
(61,435,o),
(39,416,c),
(62,304,l),
(109,333,o),
(150,350,o),
(202,350,cs),
(242,350,o),
(267,340,o),
(281,324,cs),
(294,307,o),
(297,284,o),
(293,257,cs),
(287,208,ls),
(284,180,o),
(269,159,o),
(250,144,cs),
(231,129,o),
(206,122,o),
(181,122,cs),
(164,122,o),
(150,126,o),
(143,133,cs),
(135,140,o),
(131,149,o),
(132,161,cs),
(134,176,o),
(142,184,o),
(154,189,cs),
(165,193,o),
(182,195,o),
(199,195,cs),
(782,195,l),
(786,221,ls),
(795,297,o),
(780,362,o),
(746,407,cs),
(710,451,o),
(654,477,o),
(581,477,cs),
(508,477,o),
(442,452,o),
(392,408,cs),
(342,364,o),
(308,302,o),
(299,229,cs),
(290,161,o),
(308,103,o),
(348,61,cs),
(386,19,o),
(447,-7,o),
(524,-7,cs),
(575,-7,o),
(619,2,o),
(660,19,cs),
(701,35,o),
(737,59,o),
(766,88,c),
(689,168,l),
(671,152,o),
(650,139,o),
(627,131,cs),
(604,122,o),
(580,117,o),
(555,117,cs),
(516,117,o),
(486,128,o),
(469,149,cs),
(450,170,o),
(442,200,o),
(447,240,cs),
(452,276,o),
(464,303,o),
(483,322,cs),
(502,341,o),
(527,350,o),
(558,350,cs),
(589,350,o),
(610,341,o),
(623,327,cs),
(636,313,o),
(641,294,o),
(638,274,cs),
(632,227,l),
(741,281,l),
(177,281,ls),
(113,281,o),
(65,269,o),
(31,246,cs),
(-4,222,o),
(-25,187,o),
(-30,142,cs),
(-36,93,o),
(-20,53,o),
(10,28,cs),
(39,3,o),
(85,-11,o),
(137,-11,cs)
);
}
);
width = 784;
},
{
layerId = "84E89F29-712A-4FA0-8D04-7033136CE2AB";
shapes = (
{
closed = 1;
nodes = (
(222,-9,o),
(275,10,o),
(317,49,cs),
(359,89,o),
(390,152,o),
(401,241,c),
(403,280,l),
(412,357,o),
(394,406,o),
(363,436,cs),
(332,466,o),
(288,476,o),
(246,476,cs),
(211,476,o),
(179,470,o),
(148,455,cs),
(117,440,o),
(89,419,o),
(63,390,c),
(95,329,l),
(129,375,o),
(170,402,o),
(227,402,cs),
(262,402,o),
(295,391,o),
(316,370,cs),
(336,348,o),
(346,316,o),
(341,273,cs),
(335,226,ls),
(329,176,o),
(311,136,o),
(286,107,cs),
(260,77,o),
(224,61,o),
(181,61,cs),
(152,61,o),
(127,68,o),
(112,82,cs),
(96,96,o),
(86,116,o),
(90,142,cs),
(92,162,o),
(101,182,o),
(119,197,cs),
(137,211,o),
(161,220,o),
(199,220,cs),
(744,220,l),
(750,264,ls),
(756,316,o),
(746,371,o),
(718,411,cs),
(689,452,o),
(645,479,o),
(582,479,cs),
(527,479,o),
(473,457,o),
(429,415,cs),
(386,374,o),
(353,313,o),
(344,235,cs),
(334,159,o),
(348,99,o),
(380,58,cs),
(412,15,o),
(459,-9,o),
(519,-9,cs),
(553,-9,o),
(590,-2,o),
(621,14,cs),
(653,29,o),
(683,51,o),
(705,81,c),
(660,127,l),
(644,107,o),
(623,91,o),
(600,79,cs),
(576,67,o),
(549,61,o),
(524,61,cs),
(482,61,o),
(451,78,o),
(431,109,cs),
(412,139,o),
(403,183,o),
(410,237,cs),
(417,289,o),
(438,332,o),
(467,362,cs),
(497,392,o),
(534,409,o),
(573,409,cs),
(610,409,o),
(638,394,o),
(656,368,cs),
(674,343,o),
(683,309,o),
(678,270,cs),
(673,230,l),
(719,285,l),
(200,285,ls),
(141,285,o),
(94,267,o),
(64,240,cs),
(34,214,o),
(17,176,o),
(12,139,cs),
(6,93,o),
(21,57,o),
(49,31,cs),
(76,5,o),
(118,-9,o),
(168,-9,cs)
);
}
);
width = 784;
},
{
layerId = "947D3E97-14BA-4793-BB0D-B2B2C86BF4D4";
shapes = (
{
closed = 1;
nodes = (
(196,-9,o),
(245,6,o),
(286,42,cs),
(326,77,o),
(356,139,o),
(369,231,c),
(378,275,l),
(391,360,o),
(371,414,o),
(341,442,cs),
(311,471,o),
(271,479,o),
(239,479,cs),
(208,479,o),
(177,471,o),
(152,459,cs),
(125,446,o),
(103,431,o),
(85,415,c),
(104,391,l),
(140,426,o),
(189,449,o),
(234,449,cs),
(273,449,o),
(304,433,o),
(327,404,cs),
(349,375,o),
(359,331,o),
(353,282,cs),
(348,234,l),
(340,176,o),
(321,123,o),
(288,85,cs),
(255,46,o),
(211,23,o),
(155,23,cs),
(125,23,o),
(98,34,o),
(80,52,cs),
(63,69,o),
(55,97,o),
(59,129,c),
(63,151,o),
(70,177,o),
(96,198,cs),
(121,219,o),
(162,232,o),
(224,232,cs),
(715,232,l),
(722,285,ls),
(727,326,o),
(723,373,o),
(700,412,cs),
(677,450,o),
(637,479,o),
(572,479,cs),
(520,479,o),
(472,458,o),
(434,418,c),
(394,379,o),
(365,318,o),
(355,238,cs),
(345,159,o),
(360,98,o),
(387,55,cs),
(415,12,o),
(460,-9,o),
(513,-9,cs),
(539,-9,o),
(573,-2,o),
(607,11,cs),
(642,24,o),
(676,47,o),
(703,78,c),
(680,100,l),
(664,78,o),
(635,58,o),
(607,45,c),
(580,31,o),
(549,23,o),
(522,23,cs),
(474,23,o),
(435,45,o),
(410,83,cs),
(386,120,o),
(374,174,o),
(382,236,cs),
(389,296,o),
(414,350,o),
(447,387,cs),
(480,425,o),
(524,447,o),
(569,447,cs),
(618,447,o),
(650,425,o),
(669,393,cs),
(688,361,o),
(692,316,o),
(687,269,c),
(681,231,l),
(695,266,l),
(213,266,ls),
(157,266,o),
(114,250,o),
(80,225,c),
(46,198,o),
(25,163,o),
(21,124,c),
(16,86,o),
(27,53,o),
(50,30,cs),
(72,7,o),
(107,-9,o),
(147,-9,cs)
);
}
);
width = 784;
},
{
layerId = "082E40FD-8E35-4556-8ECC-8D6EB191F145";
shapes = (
{
closed = 1;
nodes = (
(247,-11,o),
(306,15,o),
(347,63,cs),
(387,110,o),
(410,177,o),
(410,261,c),
(419,289,l),
(419,348,o),
(398,395,o),
(362,427,cs),
(325,459,o),
(272,477,o),
(209,477,cs),
(172,477,o),
(135,471,o),
(102,460,cs),
(69,449,o),
(41,435,o),
(21,416,c),
(58,304,l),
(101,333,o),
(140,350,o),
(192,350,cs),
(232,350,o),
(258,340,o),
(274,324,cs),
(290,307,o),
(295,284,o),
(295,257,cs),
(295,208,ls),
(295,180,o),
(283,159,o),
(266,144,cs),
(249,129,o),
(225,122,o),
(200,122,cs),
(183,122,o),
(168,126,o),
(160,133,cs),
(151,140,o),
(146,149,o),
(146,161,cs),
(146,176,o),
(153,184,o),
(164,189,cs),
(175,193,o),
(192,195,o),
(209,195,cs),
(792,195,l),
(792,221,ls),
(792,297,o),
(769,362,o),
(729,407,cs),
(688,451,o),
(628,477,o),
(555,477,cs),
(482,477,o),
(419,452,o),
(375,408,cs),
(330,364,o),
(304,302,o),
(304,229,cs),
(304,161,o),
(329,103,o),
(374,61,cs),
(418,19,o),
(482,-7,o),
(559,-7,cs),
(610,-7,o),
(653,2,o),
(692,19,cs),
(731,35,o),
(764,59,o),
(789,88,c),
(702,168,l),
(686,152,o),
(667,139,o),
(645,131,cs),
(623,122,o),
(599,117,o),
(574,117,cs),
(535,117,o),
(504,128,o),
(484,149,cs),
(463,170,o),
(451,200,o),
(451,240,cs),
(451,276,o),
(460,303,o),
(477,322,cs),
(493,341,o),
(517,350,o),
(548,350,cs),
(579,350,o),
(601,341,o),
(616,327,cs),
(631,313,o),
(638,294,o),
(638,274,cs),
(638,227,l),
(740,281,l),
(176,281,ls),
(112,281,o),
(65,269,o),
(34,246,cs),
(2,222,o),
(-14,187,o),
(-14,142,cs),
(-14,93,o),
(7,53,o),
(40,28,cs),
(73,3,o),
(120,-11,o),
(172,-11,cs)
);
}
);
width = 784;
},
{
layerId = "0E2BF6D7-5696-44D4-BEAE-B9A848D3BB08";
shapes = (
{
closed = 1;
nodes = (
(259,-9,o),
(310,10,o),
(347,49,cs),
(384,89,o),
(407,152,o),
(407,241,c),
(404,280,l),
(404,357,o),
(379,406,o),
(345,436,cs),
(310,466,o),
(265,476,o),
(222,476,cs),
(188,476,o),
(156,470,o),
(127,455,cs),
(98,440,o),
(73,419,o),
(50,390,c),
(90,329,l),
(118,375,o),
(156,402,o),
(212,402,cs),
(248,402,o),
(282,391,o),
(305,370,cs),
(329,348,o),
(343,316,o),
(343,273,cs),
(343,226,ls),
(343,176,o),
(330,136,o),
(309,107,cs),
(286,77,o),
(252,61,o),
(209,61,cs),
(180,61,o),
(155,68,o),
(138,82,cs),
(120,96,o),
(108,116,o),
(108,142,cs),
(108,162,o),
(114,182,o),
(130,197,cs),
(146,211,o),
(170,220,o),
(207,220,cs),
(753,220,l),
(753,264,ls),
(753,316,o),
(736,371,o),
(703,411,cs),
(669,452,o),
(622,479,o),
(559,479,cs),
(503,479,o),
(452,457,o),
(413,415,cs),
(375,374,o),
(350,313,o),
(350,235,cs),
(350,159,o),
(372,99,o),
(409,58,cs),
(446,15,o),
(497,-9,o),
(556,-9,cs),
(591,-9,o),
(626,-2,o),
(656,14,cs),
(686,29,o),
(712,51,o),
(730,81,c),
(680,127,l),
(666,107,o),
(647,91,o),
(626,79,cs),
(603,67,o),
(578,61,o),
(552,61,cs),
(510,61,o),
(477,78,o),
(454,109,c),
(430,139,o),
(416,183,o),
(416,237,cs),
(416,289,o),
(432,332,o),
(458,362,cs),
(484,392,o),
(519,409,o),
(557,409,cs),
(595,409,o),
(625,394,o),
(646,368,cs),
(667,343,o),
(680,309,o),
(680,270,cs),
(680,230,l),
(720,285,l),
(201,285,ls),
(141,285,o),
(97,267,o),
(70,240,cs),
(44,214,o),
(31,176,o),
(31,139,cs),
(31,93,o),
(50,57,o),
(81,31,cs),
(111,5,o),
(155,-9,o),
(205,-9,cs)
);
}
);
width = 784;
},
{
layerId = "B8F76C44-C3C5-4DD7-B95D-04ADE237D0F5";
shapes = (
{
closed = 1;
nodes = (
(235,-9,o),
(282,6,o),
(319,42,cs),
(354,77,o),
(378,139,o),
(378,231,c),
(382,275,l),
(382,360,o),
(357,414,o),
(324,442,cs),
(291,471,o),
(249,479,o),
(217,479,cs),
(186,479,o),
(157,471,o),
(133,459,cs),
(108,446,o),
(87,431,o),
(71,415,c),
(94,391,l),
(125,426,o),
(171,449,o),
(216,449,cs),
(255,449,o),
(288,433,o),
(314,404,cs),
(341,375,o),
(356,331,o),
(356,282,cs),
(356,234,ls),
(356,176,o),
(343,123,o),
(315,85,c),
(288,46,o),
(246,23,o),
(190,23,cs),
(160,23,o),
(133,34,o),
(113,52,cs),
(93,69,o),
(81,97,o),
(81,129,cs),
(81,151,o),
(86,177,o),
(109,198,cs),
(131,219,o),
(171,232,o),
(234,232,cs),
(725,232,l),
(725,285,ls),
(725,326,o),
(714,373,o),
(686,412,cs),
(659,450,o),
(616,479,o),
(551,479,cs),
(499,479,o),
(453,458,o),
(419,418,cs),
(385,379,o),
(364,318,o),
(364,238,cs),
(364,159,o),
(386,98,o),
(419,55,cs),
(452,12,o),
(499,-9,o),
(552,-9,cs),
(578,-9,o),
(612,-2,o),
(644,11,cs),
(676,24,o),
(708,47,o),
(731,78,c),
(706,100,l),
(692,78,o),
(666,58,o),
(640,45,cs),
(614,31,o),
(584,23,o),
(556,23,cs),
(509,23,o),
(467,45,o),
(437,83,cs),
(408,120,o),
(390,174,o),
(390,236,cs),
(390,296,o),
(408,350,o),
(436,387,cs),
(465,425,o),
(506,447,o),
(551,447,cs),
(600,447,o),
(636,425,o),
(659,393,cs),
(681,361,o),
(691,316,o),
(691,269,cs),
(691,231,l),
(700,266,l),
(218,266,ls),
(162,266,o),
(120,250,o),
(91,225,cs),
(60,198,o),
(43,163,o),
(43,124,cs),
(43,86,o),
(59,53,o),
(85,30,cs),
(110,7,o),
(146,-9,o),
(186,-9,cs)
);
}
);
width = 784;
}
);
leftKerningGroup = a2;
rightKerningGroup = b;
unicode = 230;
},
{
glyphname = b;
layers = (
{
layerId = "B0F09294-F33C-4320-A79E-9223B78F399B";
shapes = (
{
closed = 1;
nodes = (
(164,0,l),
(178,111,l),
(189,126,l),
(215,339,l),
(216,346,l),
(261,700,l),
(96,700,l),
(51,346,l),
(50,339,l),
(8,0,l)
);
},
{
closed = 1;
nodes = (
(463,-7,o),
(537,100,o),
(555,236,c),
(569,357,o),
(519,477,o),
(381,477,cs),
(286,477,o),
(220,432,o),
(199,339,c),
(187,240,l),
(203,240,l),
(210,296,o),
(243,336,o),
(301,336,cs),
(361,336,o),
(386,290,o),
(378,235,cs),
(369,175,o),
(336,131,o),
(274,131,cs),
(253,131,o),
(232,139,o),
(219,156,cs),
(206,172,o),
(198,198,o),
(202,234,c),
(181,234,l),
(168,129,l),
(171,92,o),
(184,57,o),
(210,33,cs),
(236,8,o),
(272,-7,o),
(320,-7,cs)
);
}
);
width = 582;
},
{
layerId = "84E89F29-712A-4FA0-8D04-7033136CE2AB";
shapes = (
{
closed = 1;
nodes = (
(109,0,l),
(124,119,l),
(131,135,l),
(155,330,l),
(156,338,l),
(202,700,l),
(125,700,l),
(79,338,l),
(78,330,l),
(37,0,l)
);
},
{
closed = 1;
nodes = (
(429,-9,o),
(522,90,o),
(538,235,cs),
(553,370,o),
(484,479,o),
(340,479,cs),
(261,479,o),
(172,446,o),
(150,368,c),
(134,242,l),
(143,242,l),
(156,344,o),
(218,407,o),
(322,407,cs),
(426,407,o),
(467,332,o),
(457,236,c),
(442,132,o),
(388,63,o),
(280,63,cs),
(229,63,o),
(191,84,o),
(169,116,cs),
(147,148,o),
(138,190,o),
(142,232,c),
(127,232,l),
(114,119,l),
(117,83,o),
(134,51,o),
(163,29,c),
(191,6,o),
(232,-9,o),
(279,-9,cs)
);
}
);
width = 582;
},
{
layerId = "947D3E97-14BA-4793-BB0D-B2B2C86BF4D4";
shapes = (
{
closed = 1;
nodes = (
(68,0,l),
(85,144,l),
(87,139,l),
(110,326,l),
(111,334,l),
(157,700,l),
(123,700,l),
(77,334,l),
(76,326,l),
(35,0,l)
);
},
{
closed = 1;
nodes = (
(407,-9,o),
(497,91,o),
(514,234,cs),
(529,367,o),
(458,479,o),
(317,479,cs),
(198,479,o),
(130,408,o),
(91,296,c),
(100,244,l),
(100,244,l),
(113,368,o),
(191,447,o),
(317,447,cs),
(441,447,o),
(495,353,o),
(480,238,cs),
(463,112,o),
(397,22,o),
(267,22,cs),
(202,22,o),
(156,53,o),
(128,92,c),
(101,132,o),
(92,183,o),
(98,230,c),
(92,230,l),
(77,179,l),
(81,130,o),
(98,83,o),
(128,47,c),
(159,12,o),
(203,-9,o),
(260,-9,cs)
);
}
);
width = 582;
},
{
layerId = "082E40FD-8E35-4556-8ECC-8D6EB191F145";
shapes = (
{
closed = 1;
nodes = (
(198,0,l),
(198,111,l),
(207,126,l),
(207,339,l),
(207,346,l),
(207,700,l),
(42,700,l),
(42,346,l),
(42,339,l),
(42,0,l)
);
},
{
closed = 1;
nodes = (
(491,-7,o),
(559,113,o),
(559,236,cs),
(559,360,o),
(491,477,o),
(355,477,cs),
(271,477,o),
(198,427,o),
(191,339,c),
(191,240,l),
(207,240,l),
(207,293,o),
(237,336,o),
(293,336,cs),
(352,336,o),
(383,290,o),
(383,235,cs),
(383,180,o),
(351,131,o),
(292,131,cs),
(271,131,o),
(249,139,o),
(234,156,c),
(218,172,o),
(207,198,o),
(207,234,c),
(186,234,l),
(186,129,l),
(193,92,o),
(211,57,o),
(240,33,c),
(268,8,o),
(307,-7,o),
(355,-7,cs)
);
}
);
width = 582;
},
{
layerId = "0E2BF6D7-5696-44D4-BEAE-B9A848D3BB08";
shapes = (
{
closed = 1;
nodes = (
(146,0,l),
(146,119,l),
(150,135,l),
(150,330,l),
(150,338,l),
(150,700,l),
(73,700,l),
(73,338,l),
(73,330,l),
(73,0,l)
);
},
{
closed = 1;
nodes = (
(454,-9,o),
(544,101,o),
(544,235,cs),
(544,371,o),
(457,479,o),
(316,479,cs),
(250,479,o),
(153,444,o),
(140,368,c),
(140,242,l),
(150,242,l),
(150,335,o),
(212,407,o),
(307,407,cs),
(408,407,o),
(464,333,o),
(464,236,cs),
(464,142,o),
(409,63,o),
(309,63,cs),
(258,63,o),
(217,84,o),
(191,116,cs),
(165,148,o),
(150,190,o),
(150,232,c),
(135,232,l),
(135,119,l),
(142,83,o),
(165,51,o),
(196,29,cs),
(227,6,o),
(269,-9,o),
(316,-9,cs)
);
}
);
width = 582;
},
{
layerId = "B8F76C44-C3C5-4DD7-B95D-04ADE237D0F5";
shapes = (
{
closed = 1;
nodes = (
(105,0,l),
(105,144,l),
(106,139,l),
(106,326,l),
(106,334,l),
(106,700,l),
(72,700,l),
(72,334,l),
(72,326,l),
(72,0,l)
);
},
{
closed = 1;
nodes = (
(434,-9,o),
(521,106,o),
(521,234,cs),
(521,368,o),
(433,479,o),
(295,479,cs),
(186,479,o),
(112,397,o),
(91,296,c),
(106,244,l),
(106,244,l),
(106,358,o),
(181,447,o),
(298,447,cs),
(423,447,o),
(487,357,o),
(487,238,cs),
(487,124,o),
(424,22,o),
(301,22,cs),
(236,22,o),
(188,53,o),
(155,92,cs),
(122,132,o),
(106,183,o),
(106,230,c),
(101,230,l),
(92,179,l),
(102,130,o),
(125,83,o),
(160,47,cs),
(196,12,o),
(242,-9,o),
(299,-9,cs)
);
}
);
width = 582;
}
);
leftKerningGroup = b2;
rightKerningGroup = b;
unicode = 98;
},
{
glyphname = c;
layers = (
{
layerId = "B0F09294-F33C-4320-A79E-9223B78F399B";
shapes = (
{
closed = 1;
nodes = (
(309,-7,o),
(421,35,o),
(459,80,q),
(377,174,l),
(353,154,o),
(310,130,o),
(282,130,qs),
(259,130,o),
(226,146,o),
(207,175,o),
(200,214,o),
(203,236,qs),
(205,256,o),
(220,294,o),
(245,323,o),
(282,340,o),
(306,340,qs),
(335,340,o),
(375,315,o),
(392,297,q),
(486,404,l),
(475,419,o),
(441,446,o),
(394,465,o),
(338,477,o),
(306,477,qs),
(252,477,o),
(157,444,o),
(83,381,o),
(33,290,o),
(26,232,qs),
(19,176,o),
(44,87,o),
(101,26,o),
(189,-7,o),
(245,-7,qs)
);
}
);
width = 499;
},
{
layerId = "84E89F29-712A-4FA0-8D04-7033136CE2AB";
shapes = (
{
closed = 1;
nodes = (
(311,-9,o),
(411,37,o),
(445,73,q),
(403,121,l),
(379,94,o),
(306,61,o),
(262,61,qs),
(225,61,o),
(165,87,o),
(124,134,o),
(107,199,o),
(112,238,qs),
(117,279,o),
(151,342,o),
(203,386,o),
(266,409,o),
(301,409,qs),
(341,409,o),
(408,377,o),
(428,349,q),
(480,409,l),
(466,425,o),
(429,452,o),
(385,469,o),
(335,479,o),
(308,479,qs),
(257,479,o),
(164,445,o),
(91,383,o),
(42,294,o),
(35,237,qs),
(28,185,o),
(51,95,o),
(106,29,o),
(192,-9,o),
(247,-9,qs)
);
}
);
width = 499;
},
{
layerId = "947D3E97-14BA-4793-BB0D-B2B2C86BF4D4";
shapes = (
{
closed = 1;
nodes = (
(305,-9,o),
(401,37,o),
(434,67,q),
(415,89,l),
(388,61,o),
(299,23,o),
(248,23,qs),
(203,23,o),
(128,54,o),
(81,111,o),
(57,192,o),
(62,240,q),
(69,291,o),
(114,369,o),
(177,420,o),
(256,447,o),
(297,447,qs),
(343,447,o),
(423,415,o),
(450,383,q),
(472,408,l),
(456,426,o),
(415,452,o),
(373,470,o),
(326,479,o),
(302,479,qs),
(254,479,o),
(161,446,o),
(86,383,o),
(38,295,o),
(30,240,q),
(25,190,o),
(46,99,o),
(102,31,o),
(187,-9,o),
(243,-9,qs)
);
}
);
width = 499;
},
{
layerId = "082E40FD-8E35-4556-8ECC-8D6EB191F145";
shapes = (
{
closed = 1;
nodes = (
(344,-7,o),
(451,35,o),
(483,80,q),
(389,174,l),
(368,154,o),
(328,130,o),
(300,130,qs),
(277,130,o),
(242,146,o),
(219,175,o),
(207,214,o),
(207,236,qs),
(207,256,o),
(217,294,o),
(239,323,o),
(273,340,o),
(297,340,qs),
(326,340,o),
(370,315,o),
(389,297,q),
(469,404,l),
(457,419,o),
(419,446,o),
(370,465,o),
(312,477,o),
(280,477,qs),
(226,477,o),
(135,444,o),
(69,381,o),
(31,290,o),
(31,232,qs),
(31,176,o),
(67,87,o),
(132,26,o),
(224,-7,o),
(280,-7,qs)
);
}
);
width = 499;
},
{
layerId = "0E2BF6D7-5696-44D4-BEAE-B9A848D3BB08";
shapes = (
{
closed = 1;
nodes = (
(348,-9,o),
(442,37,o),
(472,73,q),
(424,121,l),
(403,94,o),
(335,61,o),
(291,61,qs),
(253,61,o),
(190,87,o),
(143,134,o),
(118,199,o),
(118,238,qs),
(118,279,o),
(144,342,o),
(190,386,o),
(251,409,o),
(285,409,qs),
(326,409,o),
(397,377,o),
(420,349,q),
(465,409,l),
(449,425,o),
(408,452,o),
(362,469,o),
(311,479,o),
(284,479,qs),
(233,479,o),
(144,445,o),
(79,383,o),
(41,294,o),
(41,237,qs),
(41,185,o),
(75,95,o),
(138,29,o),
(229,-9,o),
(284,-9,qs)
);
}
);
width = 499;
},
{
layerId = "B8F76C44-C3C5-4DD7-B95D-04ADE237D0F5";
shapes = (
{
closed = 1;
nodes = (
(344,-9,o),
(434,37,o),
(462,67,q),
(441,89,l),
(417,61,o),
(333,23,o),
(282,23,qs),
(237,23,o),
(159,54,o),
(104,111,o),
(69,192,o),
(69,240,qs),
(69,291,o),
(105,369,o),
(161,420,o),
(237,447,o),
(277,447,qs),
(324,447,o),
(408,415,o),
(438,383,q),
(458,408,l),
(440,426,o),
(396,452,o),
(351,470,o),
(304,479,o),
(280,479,qs),
(231,479,o),
(142,446,o),
(75,383,o),
(38,295,o),
(38,240,qs),
(38,190,o),
(71,99,o),
(134,31,o),
(225,-9,o),
(281,-9,qs)
);
}
);
width = 499;
}
);
leftKerningGroup = a2;
rightKerningGroup = c;
unicode = 99;
},
{
glyphname = d;
layers = (
{
layerId = "B0F09294-F33C-4320-A79E-9223B78F399B";
shapes = (
{
closed = 1;
nodes = (
(349,0,l),
(505,0,l),
(547,339,l),
(548,346,l),
(593,700,l),
(428,700,l),
(383,346,l),
(382,339,l),
(356,126,l),
(363,111,l)
);
},
{
closed = 1;
nodes = (
(287,-7,o),
(348,36,o),
(377,129,c),
(390,234,l),
(369,234,l),
(362,177,o),
(333,131,o),
(271,131,cs),
(247,131,o),
(226,141,o),
(212,158,cs),
(197,175,o),
(189,202,o),
(193,235,cs),
(201,293,o),
(235,336,o),
(296,336,cs),
(319,336,o),
(339,328,o),
(353,312,cs),
(367,296,o),
(374,272,o),
(370,240,c),
(386,240,l),
(398,339,l),
(402,376,o),
(388,411,o),
(364,436,cs),
(339,461,o),
(300,477,o),
(252,477,cs),
(110,477,o),
(34,370,o),
(18,236,cs),
(9,167,o),
(21,105,o),
(52,62,cs),
(82,19,o),
(130,-7,o),
(191,-7,cs)
);
}
);
width = 582;
},
{
layerId = "84E89F29-712A-4FA0-8D04-7033136CE2AB";
shapes = (
{
closed = 1;
nodes = (
(400,0,l),
(473,0,l),
(514,330,l),
(515,338,l),
(560,700,l),
(484,700,l),
(438,338,l),
(437,330,l),
(413,135,l),
(415,119,l)
);
},
{
closed = 1;
nodes = (
(316,-9,o),
(397,31,o),
(426,119,c),
(440,232,l),
(425,232,l),
(411,132,o),
(347,63,o),
(245,63,cs),
(199,63,o),
(161,80,o),
(139,111,c),
(116,141,o),
(105,185,o),
(111,236,cs),
(125,341,o),
(182,407,o),
(290,407,cs),
(341,407,o),
(378,387,o),
(401,357,cs),
(423,327,o),
(432,285,o),
(426,242,c),
(436,242,l),
(452,368,l),
(451,394,o),
(435,422,o),
(408,443,cs),
(380,465,o),
(340,479,o),
(289,479,cs),
(139,479,o),
(50,382,o),
(31,235,cs),
(22,159,o),
(41,98,o),
(77,57,cs),
(114,14,o),
(168,-9,o),
(228,-9,cs)
);
}
);
width = 582;
},
{
layerId = "947D3E97-14BA-4793-BB0D-B2B2C86BF4D4";
shapes = (
{
closed = 1;
nodes = (
(439,0,l),
(472,0,l),
(513,326,l),
(514,334,l),
(560,700,l),
(526,700,l),
(480,334,l),
(479,326,l),
(456,139,l),
(455,122,l)
);
},
{
closed = 1;
nodes = (
(365,-9,o),
(436,64,o),
(474,179,c),
(472,230,l),
(467,230,l),
(452,110,o),
(369,22,o),
(246,22,cs),
(189,22,o),
(145,44,o),
(119,83,c),
(91,121,o),
(79,173,o),
(87,238,cs),
(102,368,o),
(168,447,o),
(303,447,cs),
(368,447,o),
(413,422,o),
(439,383,c),
(464,343,o),
(474,294,o),
(469,244,c),
(469,244,l),
(491,296,l),
(486,345,o),
(470,389,o),
(440,423,cs),
(410,457,o),
(368,479,o),
(309,479,cs),
(162,479,o),
(70,379,o),
(53,234,cs),
(43,155,o),
(64,96,o),
(101,54,cs),
(139,12,o),
(188,-9,o),
(244,-9,cs)
);
}
);
width = 582;
},
{
layerId = "082E40FD-8E35-4556-8ECC-8D6EB191F145";
shapes = (
{
closed = 1;
nodes = (
(383,0,l),
(539,0,l),
(539,339,l),
(539,346,l),
(539,700,l),
(374,700,l),
(374,346,l),
(374,339,l),
(374,126,l),
(383,111,l)
);
},
{
closed = 1;
nodes = (
(313,-7,o),
(379,43,o),
(395,129,c),
(395,234,l),
(374,234,l),
(374,181,o),
(348,131,o),
(289,131,cs),
(265,131,o),
(242,141,o),
(226,158,cs),
(209,175,o),
(198,202,o),
(198,235,cs),
(198,289,o),
(230,336,o),
(288,336,cs),
(311,336,o),
(332,328,o),
(348,312,cs),
(364,296,o),
(374,272,o),
(374,240,c),
(390,240,l),
(390,339,l),
(389,376,o),
(371,411,o),
(343,436,cs),
(315,461,o),
(274,477,o),
(226,477,cs),
(90,477,o),
(22,360,o),
(22,236,cs),
(22,167,o),
(42,105,o),
(78,62,cs),
(114,19,o),
(165,-7,o),
(226,-7,cs)
);
}
);
width = 582;
},
{
layerId = "0E2BF6D7-5696-44D4-BEAE-B9A848D3BB08";
shapes = (
{
closed = 1;
nodes = (
(436,0,l),
(509,0,l),
(509,330,l),
(509,338,l),
(509,700,l),
(432,700,l),
(432,338,l),
(432,330,l),
(432,135,l),
(436,119,l)
);
},
{
closed = 1;
nodes = (
(344,-9,o),
(430,36,o),
(447,119,c),
(447,232,l),
(432,232,l),
(432,140,o),
(368,63,o),
(273,63,cs),
(227,63,o),
(187,80,o),
(161,111,c),
(134,141,o),
(118,185,o),
(118,236,cs),
(118,333,o),
(174,407,o),
(275,407,cs),
(326,407,o),
(366,387,o),
(392,357,cs),
(418,327,o),
(432,285,o),
(432,242,c),
(442,242,l),
(442,368,l),
(437,394,o),
(418,422,o),
(388,443,cs),
(358,465,o),
(317,479,o),
(265,479,cs),
(124,479,o),
(38,371,o),
(38,235,cs),
(38,159,o),
(65,98,o),
(106,57,cs),
(148,14,o),
(206,-9,o),
(265,-9,cs)
);
}
);
width = 582;
},
{
layerId = "B8F76C44-C3C5-4DD7-B95D-04ADE237D0F5";
shapes = (
{
closed = 1;
nodes = (
(477,0,l),
(510,0,l),
(510,326,l),
(510,334,l),
(510,700,l),
(476,700,l),
(476,334,l),
(476,326,l),
(476,139,l),
(477,122,l)
);
},
{
closed = 1;
nodes = (
(396,-9,o),
(469,75,o),
(490,179,c),
(482,230,l),
(476,230,l),
(476,119,o),
(397,22,o),
(281,22,cs),
(224,22,o),
(178,44,o),
(146,83,cs),
(114,121,o),
(95,173,o),
(95,238,cs),
(95,356,o),
(160,447,o),
(284,447,cs),
(349,447,o),
(398,422,o),
(429,383,cs),
(460,343,o),
(476,294,o),
(476,244,c),
(476,244,l),
(491,296,l),
(482,345,o),
(460,389,o),
(425,423,cs),
(391,457,o),
(346,479,o),
(288,479,cs),
(151,479,o),
(61,367,o),
(61,234,cs),
(61,155,o),
(89,96,o),
(131,54,cs),
(174,12,o),
(227,-9,o),
(283,-9,cs)
);
}
);
width = 582;
}
);
leftKerningGroup = a2;
rightKerningGroup = d;
unicode = 100;
},
{
glyphname = eth;
layers = (
{
layerId = "B0F09294-F33C-4320-A79E-9223B78F399B";
shapes = (
{
closed = 1;
nodes = (
(294,-7,o),
(399,26,o),
(480,95,o),
(532,199,o),
(541,270,qs),
(549,333,o),
(524,444,o),
(472,536,o),
(400,611,o),
(322,668,o),
(243,707,o),
(212,717,q),
(127,611,l),
(177,592,o),
(265,536,o),
(332,461,o),
(373,365,o),
(375,306,q),
(410,321,l),
(387,382,o),
(309,440,o),
(247,440,qs),
(197,440,o),
(112,404,o),
(46,342,o),
(3,258,o),
(-3,209,qs),
(-10,154,o),
(20,73,o),
(84,19,o),
(176,-7,o),
(231,-7,qs)
);
},
{
closed = 1;
nodes = (
(233,136,o),
(198,147,o),
(179,168,o),
(172,198,o),
(174,217,qs),
(176,235,o),
(190,265,o),
(216,286,o),
(252,297,o),
(276,297,qs),
(301,297,o),
(335,285,o),
(354,264,o),
(360,233,o),
(358,214,qs),
(355,192,o),
(338,162,o),
(312,144,o),
(278,136,o),
(258,136,qs)
);
},
{
closed = 1;
nodes = (
(496,598,l),
(463,684,l),
(151,533,l),
(184,448,l)
);
}
);
width = 547;
},
{
layerId = "84E89F29-712A-4FA0-8D04-7033136CE2AB";
shapes = (
{
closed = 1;
nodes = (
(283,-8,o),
(364,18,o),
(432,78,o),
(481,177,o),
(490,250,qs),
(497,307,o),
(488,412,o),
(459,505,o),
(413,585,o),
(355,650,o),
(288,696,o),
(252,710,q),
(214,669,l),
(265,641,o),
(349,561,o),
(405,459,o),
(429,339,o),
(421,271,q),
(458,340,l),
(427,398,o),
(345,448,o),
(292,448,qs),
(249,448,o),
(167,418,o),
(100,360,o),
(54,275,o),
(48,220,qs),
(41,167,o),
(63,83,o),
(116,24,o),
(194,-8,o),
(242,-8,qs)
);
},
{
closed = 1;
nodes = (
(219,57,o),
(165,83,o),
(131,127,o),
(116,188,o),
(120,222,qs),
(124,255,o),
(152,314,o),
(197,357,o),
(255,383,o),
(289,383,qs),
(320,383,o),
(371,360,o),
(405,317,o),
(419,256,o),
(414,218,qs),
(410,181,o),
(381,122,o),
(338,80,o),
(283,57,o),
(252,57,qs)
);
},
{
closed = 1;
nodes = (
(503,617,l),
(484,666,l),
(174,517,l),
(193,468,l)
);
}
);
width = 547;
},
{
layerId = "947D3E97-14BA-4793-BB0D-B2B2C86BF4D4";
shapes = (
{
closed = 1;
nodes = (
(268,-8,o),
(341,14,o),
(408,75,o),
(461,181,o),
(471,265,qs),
(477,312,o),
(475,404,o),
(457,489,o),
(424,565,o),
(376,631,o),
(312,687,o),
(272,707,q),
(256,680,l),
(304,656,o),
(383,580,o),
(432,474,o),
(450,338,o),
(440,255,q),
(465,308,l),
(436,379,o),
(346,435,o),
(297,435,qs),
(259,435,o),
(183,405,o),
(119,348,o),
(74,266,o),
(68,212,qs),
(62,164,o),
(80,84,o),
(124,25,o),
(191,-8,o),
(237,-8,qs)
);
},
{
closed = 1;
nodes = (
(204,21,o),
(146,52,o),
(107,107,o),
(90,179,o),
(95,219,qs),
(100,258,o),
(133,325,o),
(180,376,o),
(245,406,o),
(283,406,qs),
(316,406,o),
(378,380,o),
(422,330,o),
(444,260,o),
(438,215,qs),
(433,174,o),
(396,102,o),
(343,51,o),
(278,21,o),
(241,21,qs)
);
},
{
closed = 1;
nodes = (
(501,629,l),
(491,654,l),
(184,506,l),
(194,481,l)
);
}
);
width = 547;
},
{
layerId = "082E40FD-8E35-4556-8ECC-8D6EB191F145";
shapes = (
{
closed = 1;
nodes = (
(329,-7,o),
(430,26,o),
(502,95,o),
(541,199,o),
(541,270,qs),
(541,333,o),
(502,444,o),
(439,536,o),
(358,611,o),
(272,668,o),
(189,707,o),
(156,717,q),
(85,611,l),
(137,592,o),
(232,536,o),
(308,461,o),
(361,365,o),
(371,306,q),
(404,321,l),
(373,382,o),
(288,440,o),
(226,440,qs),
(176,440,o),
(95,404,o),
(37,342,o),
(5,258,o),
(5,209,qs),
(5,154,o),
(45,73,o),
(116,19,o),
(211,-7,o),
(266,-7,qs)
);
},
{
closed = 1;
nodes = (
(250,136,o),
(214,147,o),
(192,168,o),
(181,198,o),
(181,217,qs),
(181,235,o),
(191,265,o),
(214,286,o),
(249,297,o),
(273,297,qs),
(298,297,o),
(333,285,o),
(355,264,o),
(365,233,o),
(365,214,qs),
(365,192,o),
(352,162,o),
(328,144,o),
(295,136,o),
(275,136,qs)
);
},
{
closed = 1;
nodes = (
(455,598,l),
(411,684,l),
(118,533,l),
(162,448,l)
);
}
);
width = 547;
},
{
layerId = "0E2BF6D7-5696-44D4-BEAE-B9A848D3BB08";
shapes = (
{
closed = 1;
nodes = (
(318,-8,o),
(396,18,o),
(456,78,o),
(493,177,o),
(493,250,qs),
(493,307,o),
(470,412,o),
(430,505,o),
(374,585,o),
(308,650,o),
(235,696,o),
(197,710,q),
(164,669,l),
(219,641,o),
(313,561,o),
(382,459,o),
(421,339,o),
(421,271,q),
(449,340,l),
(411,398,o),
(323,448,o),
(270,448,qs),
(227,448,o),
(149,418,o),
(89,360,o),
(54,275,o),
(54,220,qs),
(54,167,o),
(87,83,o),
(147,24,o),
(229,-8,o),
(277,-8,qs)
);
},
{
closed = 1;
nodes = (
(246,57,o),
(189,83,o),
(149,127,o),
(126,188,o),
(126,222,qs),
(126,255,o),
(147,314,o),
(186,357,o),
(241,383,o),
(275,383,qs),
(306,383,o),
(360,360,o),
(399,317,o),
(421,256,o),
(421,218,qs),
(421,181,o),
(400,122,o),
(362,80,o),
(310,57,o),
(279,57,qs)
);
},
{
closed = 1;
nodes = (
(460,617,l),
(435,666,l),
(143,517,l),
(168,468,l)
);
}
);
width = 547;
},
{
layerId = "B8F76C44-C3C5-4DD7-B95D-04ADE237D0F5";
shapes = (
{
closed = 1;
nodes = (
(303,-8,o),
(373,14,o),
(433,75,o),
(472,181,o),
(472,265,qs),
(472,312,o),
(458,404,o),
(430,489,o),
(387,565,o),
(331,631,o),
(260,687,o),
(218,707,q),
(205,680,l),
(256,656,o),
(344,580,o),
(407,474,o),
(442,338,o),
(442,255,q),
(460,308,l),
(423,379,o),
(326,435,o),
(277,435,qs),
(239,435,o),
(166,405,o),
(109,348,o),
(75,266,o),
(75,212,qs),
(75,164,o),
(103,84,o),
(155,25,o),
(226,-8,o),
(272,-8,qs)
);
},
{
closed = 1;
nodes = (
(235,21,o),
(173,52,o),
(128,107,o),
(102,179,o),
(102,219,qs),
(102,258,o),
(126,325,o),
(167,376,o),
(228,406,o),
(266,406,qs),
(299,406,o),
(364,380,o),
(415,330,o),
(445,260,o),
(445,215,qs),
(445,174,o),
(417,102,o),
(371,51,o),
(309,21,o),
(272,21,qs)
);
},
{
closed = 1;
nodes = (
(456,629,l),
(443,654,l),
(155,506,l),
(168,481,l)
);
}
);
width = 547;
}
);
leftKerningGroup = a2;
rightKerningGroup = b;
unicode = 240;
},
{
glyphname = dcroat;
layers = (
{
layerId = "B0F09294-F33C-4320-A79E-9223B78F399B";
shapes = (
{
closed = 1;
nodes = (
(261,513,l),
(639,513,l),
(655,643,l),
(277,643,l)
);
},
{
closed = 1;
nodes = (
(349,0,l),
(505,0,l),
(547,339,l),
(548,346,l),
(593,700,l),
(428,700,l),
(383,346,l),
(382,339,l),
(356,126,l),
(363,111,l)
);
},
{
closed = 1;
nodes = (
(288,-7,o),
(349,36,o),
(377,129,c),
(390,234,l),
(369,234,l),
(362,176,o),
(332,131,o),
(271,131,cs),
(247,131,o),
(226,141,o),
(211,158,cs),
(196,175,o),
(189,202,o),
(193,235,cs),
(200,294,o),
(235,336,o),
(296,336,cs),
(319,336,o),
(340,328,o),
(354,312,cs),
(368,296,o),
(374,272,o),
(370,240,c),
(386,240,l),
(398,339,ls),
(402,376,o),
(388,411,o),
(364,436,cs),
(339,461,o),
(300,477,o),
(252,477,cs),
(109,477,o),
(33,373,o),
(18,236,c),
(9,167,o),
(21,105,o),
(52,62,cs),
(83,19,o),
(130,-7,o),
(191,-7,cs)
);
}
);
width = 582;
},
{
layerId = "84E89F29-712A-4FA0-8D04-7033136CE2AB";
shapes = (
{
closed = 1;
nodes = (
(274,562,l),
(623,562,l),
(632,631,l),
(282,631,l)
);
},
{
closed = 1;
nodes = (
(400,0,l),
(472,0,l),
(514,330,l),
(515,338,l),
(560,700,l),
(483,700,l),
(438,338,l),
(437,330,l),
(413,135,l),
(415,119,l)
);
},
{
closed = 1;
nodes = (
(319,-9,o),
(397,32,o),
(425,119,c),
(439,232,l),
(424,232,l),
(414,131,o),
(345,63,o),
(244,63,cs),
(198,63,o),
(161,80,o),
(138,111,cs),
(116,141,o),
(104,185,o),
(111,236,c),
(122,341,o),
(183,407,o),
(290,407,cs),
(341,407,o),
(377,387,o),
(400,357,cs),
(422,327,o),
(431,285,o),
(425,242,c),
(435,242,l),
(451,368,l),
(450,394,o),
(434,422,o),
(407,443,c),
(381,465,o),
(340,479,o),
(289,479,cs),
(138,479,o),
(49,382,o),
(31,235,cs),
(22,159,o),
(41,98,o),
(77,57,cs),
(114,14,o),
(168,-9,o),
(228,-9,cs)
);
}
);
width = 582;
},
{
layerId = "947D3E97-14BA-4793-BB0D-B2B2C86BF4D4";
shapes = (
{
closed = 1;
nodes = (
(263,588,l),
(627,588,l),
(630,620,l),
(266,620,l)
);
},
{
closed = 1;
nodes = (
(440,0,l),
(473,0,l),
(514,326,l),
(515,334,l),
(561,700,l),
(527,700,l),
(481,334,l),
(480,326,l),
(456,139,l),
(455,122,l)
);
},
{
closed = 1;
nodes = (
(366,-9,o),
(437,64,o),
(475,179,c),
(473,230,l),
(467,230,l),
(453,110,o),
(369,22,o),
(247,22,cs),
(190,22,o),
(146,44,o),
(120,83,c),
(92,121,o),
(80,173,o),
(88,238,cs),
(103,368,o),
(169,447,o),
(303,447,cs),
(368,447,o),
(413,422,o),
(440,383,c),
(465,343,o),
(475,294,o),
(470,244,c),
(470,244,l),
(492,296,l),
(487,345,o),
(471,389,o),
(441,423,cs),
(411,457,o),
(368,479,o),
(310,479,cs),
(163,479,o),
(71,379,o),
(54,234,cs),
(44,155,o),
(65,96,o),
(102,54,cs),
(139,12,o),
(189,-9,o),
(245,-9,cs)
);
}
);
width = 582;
},
{
layerId = "082E40FD-8E35-4556-8ECC-8D6EB191F145";
shapes = (
{
closed = 1;
nodes = (
(231,513,l),
(609,513,l),
(609,643,l),
(231,643,l)
);
},
{
closed = 1;
nodes = (
(383,0,l),
(539,0,l),
(539,339,l),
(539,346,l),
(539,700,l),
(374,700,l),
(374,346,l),
(374,339,l),
(374,126,l),
(383,111,l)
);
},
{
closed = 1;
nodes = (
(313,-7,o),
(379,43,o),
(395,129,c),
(395,234,l),
(374,234,l),
(374,181,o),
(348,131,o),
(289,131,cs),
(265,131,o),
(242,141,o),
(226,158,cs),
(209,175,o),
(198,202,o),
(198,235,cs),
(198,289,o),
(230,336,o),
(288,336,cs),
(311,336,o),
(332,328,o),
(348,312,cs),
(364,296,o),
(374,272,o),
(374,240,c),
(390,240,l),
(390,339,l),
(389,376,o),
(371,411,o),
(343,436,cs),
(315,461,o),
(274,477,o),
(226,477,cs),
(90,477,o),
(22,360,o),
(22,236,cs),
(22,167,o),
(42,105,o),
(78,62,cs),
(114,19,o),
(165,-7,o),
(226,-7,cs)
);
}
);
width = 582;
},
{
layerId = "0E2BF6D7-5696-44D4-BEAE-B9A848D3BB08";
shapes = (
{
closed = 1;
nodes = (
(240,562,l),
(589,562,l),
(589,631,l),
(240,631,l)
);
},
{
closed = 1;
nodes = (
(436,0,l),
(509,0,l),
(509,330,l),
(509,338,l),
(509,700,l),
(432,700,l),
(432,338,l),
(432,330,l),
(432,135,l),
(436,119,l)
);
},
{
closed = 1;
nodes = (
(344,-9,o),
(430,36,o),
(447,119,c),
(447,232,l),
(432,232,l),
(432,140,o),
(368,63,o),
(273,63,cs),
(227,63,o),
(187,80,o),
(161,111,c),
(134,141,o),
(118,185,o),
(118,236,cs),
(118,333,o),
(173,407,o),
(275,407,cs),
(326,407,o),
(366,387,o),
(392,357,cs),
(418,327,o),
(432,285,o),
(432,242,c),
(441,242,l),
(441,368,l),
(437,394,o),
(418,422,o),
(388,443,cs),
(358,465,o),
(316,479,o),
(265,479,cs),
(124,479,o),
(38,371,o),
(38,235,cs),
(38,159,o),
(64,98,o),
(106,57,cs),
(148,14,o),
(205,-9,o),
(265,-9,cs)
);
}
);
width = 582;
},
{
layerId = "B8F76C44-C3C5-4DD7-B95D-04ADE237D0F5";
shapes = (
{
closed = 1;
nodes = (
(226,588,l),
(591,588,l),
(591,620,l),
(226,620,l)
);
},
{
closed = 1;
nodes = (
(477,0,l),
(510,0,l),
(510,326,l),
(510,334,l),
(510,700,l),
(476,700,l),
(476,334,l),
(476,326,l),
(476,139,l),
(477,122,l)
);
},
{
closed = 1;
nodes = (
(396,-9,o),
(470,75,o),
(491,179,c),
(482,230,l),
(476,230,l),
(476,119,o),
(397,22,o),
(281,22,cs),
(224,22,o),
(178,44,o),
(146,83,cs),
(114,121,o),
(95,173,o),
(95,238,cs),
(95,356,o),
(160,447,o),
(285,447,cs),
(350,447,o),
(398,422,o),
(429,383,cs),
(460,343,o),
(476,294,o),
(476,244,c),
(476,244,l),
(492,296,l),
(482,345,o),
(460,389,o),
(426,423,cs),
(391,457,o),
(346,479,o),
(288,479,cs),
(152,479,o),
(61,367,o),
(61,234,cs),
(61,155,o),
(89,96,o),
(132,54,cs),
(175,12,o),
(227,-9,o),
(284,-9,cs)
);
}
);
width = 582;
}
);
leftKerningGroup = a2;
rightKerningGroup = d;
unicode = 273;
},
{
glyphname = e;
layers = (
{
layerId = "B0F09294-F33C-4320-A79E-9223B78F399B";
shapes = (
{
closed = 1;
nodes = (
(353,-7,o),
(437,29,o),
(495,88,c),
(418,168,l),
(382,135,o),
(335,117,o),
(284,117,cs),
(245,117,o),
(215,128,o),
(198,149,cs),
(179,170,o),
(171,200,o),
(176,240,cs),
(185,309,o),
(216,350,o),
(287,350,cs),
(318,350,o),
(339,341,o),
(352,327,cs),
(365,313,o),
(370,294,o),
(367,274,cs),
(361,227,l),
(470,281,l),
(115,281,l),
(104,195,l),
(511,195,l),
(515,221,ls),
(524,297,o),
(509,362,o),
(474,407,cs),
(438,451,o),
(382,477,o),
(306,477,cs),
(148,477,o),
(39,388,o),
(19,229,cs),
(10,161,o),
(30,103,o),
(71,61,cs),
(111,19,o),
(173,-7,o),
(253,-7,cs)
);
}
);
width = 545;
},
{
layerId = "84E89F29-712A-4FA0-8D04-7033136CE2AB";
shapes = (
{
closed = 1;
nodes = (
(323,-9,o),
(404,20,o),
(457,81,c),
(413,127,l),
(377,85,o),
(318,61,o),
(258,61,cs),
(210,61,o),
(169,78,o),
(143,109,c),
(115,139,o),
(103,183,o),
(109,237,cs),
(122,338,o),
(183,409,o),
(287,409,cs),
(333,409,o),
(368,392,o),
(393,364,cs),
(419,336,o),
(430,297,o),
(424,253,cs),
(421,230,l),
(472,285,l),
(90,285,l),
(82,220,l),
(497,220,l),
(500,247,l),
(508,305,o),
(495,362,o),
(462,406,cs),
(429,450,o),
(376,479,o),
(303,479,cs),
(150,479,o),
(51,387,o),
(32,235,cs),
(23,159,o),
(42,99,o),
(81,58,c),
(118,15,o),
(176,-9,o),
(245,-9,cs)
);
}
);
width = 545;
},
{
layerId = "947D3E97-14BA-4793-BB0D-B2B2C86BF4D4";
shapes = (
{
closed = 1;
nodes = (
(322,-9,o),
(393,18,o),
(459,80,c),
(440,103,l),
(390,56,o),
(328,23,o),
(253,23,cs),
(199,23,o),
(149,44,o),
(116,84,cs),
(83,122,o),
(64,175,o),
(71,237,cs),
(87,361,o),
(176,447,o),
(302,447,cs),
(364,447,o),
(407,423,o),
(433,387,cs),
(459,352,o),
(465,304,o),
(460,256,cs),
(459,244,l),
(470,266,l),
(75,266,l),
(70,232,l),
(490,232,l),
(494,264,ls),
(499,313,o),
(490,367,o),
(459,408,cs),
(427,450,o),
(376,479,o),
(301,479,cs),
(158,479,o),
(58,384,o),
(39,242,cs),
(29,168,o),
(49,106,o),
(88,62,cs),
(126,17,o),
(182,-9,o),
(248,-9,cs)
);
}
);
width = 545;
},
{
layerId = "082E40FD-8E35-4556-8ECC-8D6EB191F145";
shapes = (
{
closed = 1;
nodes = (
(388,-7,o),
(467,29,o),
(518,88,c),
(431,168,l),
(399,135,o),
(354,117,o),
(303,117,cs),
(264,117,o),
(233,128,o),
(213,149,cs),
(192,170,o),
(180,200,o),
(180,240,cs),
(180,304,o),
(209,350,o),
(277,350,cs),
(308,350,o),
(330,341,o),
(345,327,cs),
(360,313,o),
(367,294,o),
(367,274,cs),
(367,227,l),
(469,281,l),
(114,281,l),
(114,195,l),
(521,195,l),
(521,221,ls),
(521,297,o),
(498,362,o),
(457,407,cs),
(416,451,o),
(356,477,o),
(280,477,cs),
(135,477,o),
(24,377,o),
(24,229,cs),
(24,161,o),
(51,103,o),
(97,61,cs),
(143,19,o),
(208,-7,o),
(288,-7,cs)
);
}
);
width = 545;
},
{
layerId = "0E2BF6D7-5696-44D4-BEAE-B9A848D3BB08";
shapes = (
{
closed = 1;
nodes = (
(360,-9,o),
(437,20,o),
(483,81,c),
(433,127,l),
(402,85,o),
(346,61,o),
(287,61,cs),
(239,61,o),
(195,78,o),
(165,109,c),
(134,139,o),
(116,183,o),
(116,237,cs),
(116,330,o),
(173,409,o),
(272,409,cs),
(318,409,o),
(355,392,o),
(384,364,cs),
(413,336,o),
(429,297,o),
(429,253,cs),
(429,230,l),
(473,285,l),
(90,285,l),
(90,220,l),
(506,220,l),
(506,247,ls),
(506,305,o),
(485,362,o),
(447,406,cs),
(408,450,o),
(352,479,o),
(279,479,cs),
(138,479,o),
(39,375,o),
(39,235,cs),
(39,159,o),
(66,99,o),
(109,58,cs),
(152,15,o),
(213,-9,o),
(282,-9,cs)
);
}
);
width = 545;
},
{
layerId = "B8F76C44-C3C5-4DD7-B95D-04ADE237D0F5";
shapes = (
{
closed = 1;
nodes = (
(362,-9,o),
(429,18,o),
(487,80,c),
(465,103,l),
(421,56,o),
(363,23,o),
(288,23,cs),
(234,23,o),
(182,44,o),
(144,84,c),
(105,122,o),
(80,175,o),
(80,237,cs),
(80,350,o),
(170,447,o),
(284,447,cs),
(346,447,o),
(392,423,o),
(423,387,cs),
(453,352,o),
(466,304,o),
(466,256,cs),
(466,244,l),
(475,266,l),
(80,266,l),
(80,232,l),
(499,232,l),
(499,264,ls),
(499,313,o),
(482,367,o),
(445,408,cs),
(409,450,o),
(355,479,o),
(280,479,cs),
(149,479,o),
(47,372,o),
(47,242,cs),
(47,168,o),
(74,106,o),
(118,62,cs),
(162,17,o),
(222,-9,o),
(288,-9,cs)
);
}
);
width = 545;
}
);
leftKerningGroup = a2;
rightKerningGroup = b;
unicode = 101;
},
{
glyphname = eogonek;
layers = (
{
layerId = "B0F09294-F33C-4320-A79E-9223B78F399B";
shapes = (
{
closed = 1;
nodes = (
(406,-243,o),
(431,-234,o),
(448,-227,c),
(459,-133,l),
(444,-140,o),
(430,-142,o),
(415,-142,cs),
(386,-142,o),
(361,-128,o),
(366,-85,cs),
(369,-64,o),
(380,-42,o),
(400,-15,cs),
(420,12,o),
(451,44,o),
(495,88,c),
(464,88,l),
(404,56,o),
(356,23,o),
(320,-13,cs),
(284,-48,o),
(264,-84,o),
(259,-123,cs),
(255,-154,o),
(262,-184,o),
(280,-206,cs),
(298,-228,o),
(329,-243,o),
(373,-243,cs)
);
},
{
closed = 1;
nodes = (
(304,-7,o),
(349,2,o),
(390,19,cs),
(430,35,o),
(466,59,o),
(495,88,c),
(418,168,l),
(382,135,o),
(335,117,o),
(284,117,cs),
(245,117,o),
(216,128,o),
(198,149,cs),
(180,170,o),
(171,200,o),
(176,240,cs),
(185,310,o),
(216,350,o),
(287,350,cs),
(318,350,o),
(339,341,o),
(352,327,cs),
(365,313,o),
(370,294,o),
(367,274,cs),
(361,227,l),
(470,281,l),
(115,281,l),
(104,195,l),
(511,195,l),
(515,221,l),
(524,297,o),
(510,362,o),
(474,407,cs),
(438,451,o),
(382,477,o),
(306,477,cs),
(145,477,o),
(40,390,o),
(19,229,cs),
(10,161,o),
(30,103,o),
(71,61,cs),
(111,19,o),
(173,-7,o),
(253,-7,cs)
);
}
);
width = 545;
},
{
layerId = "84E89F29-712A-4FA0-8D04-7033136CE2AB";
shapes = (
{
closed = 1;
nodes = (
(367,-243,o),
(386,-241,o),
(407,-230,c),
(412,-191,l),
(399,-195,o),
(385,-197,o),
(374,-197,cs),
(330,-197,o),
(311,-165,o),
(316,-118,cs),
(320,-85,o),
(338,-51,o),
(362,-19,cs),
(385,13,o),
(415,45,o),
(446,76,c),
(408,74,l),
(365,43,o),
(330,9,o),
(303,-29,cs),
(276,-66,o),
(260,-102,o),
(256,-137,cs),
(252,-166,o),
(257,-193,o),
(272,-212,cs),
(287,-231,o),
(312,-243,o),
(348,-243,cs)
);
},
{
closed = 1;
nodes = (
(283,-8,o),
(320,-2,o),
(355,13,cs),
(390,27,o),
(421,48,o),
(446,76,c),
(404,119,l),
(369,80,o),
(315,57,o),
(259,57,cs),
(214,57,o),
(175,73,o),
(150,102,cs),
(125,130,o),
(113,171,o),
(120,222,c),
(130,317,o),
(188,383,o),
(286,383,cs),
(329,383,o),
(362,367,o),
(386,341,cs),
(409,315,o),
(420,278,o),
(415,237,cs),
(412,215,l),
(459,267,l),
(101,267,l),
(94,206,l),
(483,206,l),
(486,231,ls),
(493,286,o),
(481,339,o),
(450,380,cs),
(418,421,o),
(369,448,o),
(301,448,cs),
(156,448,o),
(66,364,o),
(48,220,cs),
(39,149,o),
(56,93,o),
(92,54,cs),
(128,14,o),
(182,-8,o),
(247,-8,cs)
);
}
);
width = 545;
},
{
layerId = "947D3E97-14BA-4793-BB0D-B2B2C86BF4D4";
shapes = (
{
closed = 1;
nodes = (
(347,-240,o),
(368,-237,o),
(384,-229,c),
(388,-196,l),
(369,-205,o),
(353,-210,o),
(334,-210,cs),
(298,-210,o),
(291,-186,o),
(295,-149,c),
(299,-124,o),
(305,-97,o),
(324,-62,cs),
(343,-27,o),
(375,15,o),
(424,71,c),
(409,86,l),
(362,31,o),
(328,-15,o),
(306,-52,c),
(283,-88,o),
(270,-123,o),
(265,-156,cs),
(262,-180,o),
(264,-201,o),
(275,-216,cs),
(286,-231,o),
(302,-240,o),
(331,-240,cs)
);
},
{
closed = 1;
nodes = (
(278,-8,o),
(309,-2,o),
(340,10,cs),
(371,22,o),
(400,43,o),
(424,71,c),
(403,91,l),
(371,48,o),
(311,21,o),
(255,21,cs),
(208,21,o),
(164,40,o),
(133,76,c),
(101,111,o),
(83,159,o),
(90,215,cs),
(104,324,o),
(181,406,o),
(292,406,cs),
(337,406,o),
(379,384,o),
(407,352,cs),
(434,320,o),
(448,276,o),
(443,233,cs),
(442,222,l),
(452,242,l),
(93,242,l),
(89,211,l),
(470,211,l),
(474,240,ls),
(479,284,o),
(463,333,o),
(430,371,cs),
(397,409,o),
(348,435,o),
(291,435,cs),
(162,435,o),
(78,346,o),
(61,220,cs),
(52,153,o),
(72,96,o),
(108,56,c),
(143,15,o),
(195,-8,o),
(251,-8,cs)
);
}
);
width = 545;
},
{
layerId = "082E40FD-8E35-4556-8ECC-8D6EB191F145";
shapes = (
{
closed = 1;
nodes = (
(470,-243,o),
(494,-234,o),
(510,-227,c),
(510,-133,l),
(495,-140,o),
(482,-142,o),
(467,-142,cs),
(438,-142,o),
(411,-128,o),
(411,-85,cs),
(411,-64,o),
(419,-42,o),
(436,-15,cs),
(452,12,o),
(479,44,o),
(518,88,c),
(487,88,l),
(431,56,o),
(387,23,o),
(356,-13,c),
(324,-48,o),
(308,-84,o),
(308,-123,cs),
(308,-154,o),
(319,-184,o),
(340,-206,cs),
(360,-228,o),
(393,-243,o),
(437,-243,cs)
);
},
{
closed = 1;
nodes = (
(339,-7,o),
(382,2,o),
(421,19,cs),
(460,35,o),
(493,59,o),
(518,88,c),
(431,168,l),
(399,135,o),
(354,117,o),
(303,117,cs),
(264,117,o),
(233,128,o),
(213,149,cs),
(192,170,o),
(180,200,o),
(180,240,cs),
(180,304,o),
(209,350,o),
(277,350,cs),
(308,350,o),
(330,341,o),
(345,327,cs),
(360,313,o),
(367,294,o),
(367,274,cs),
(367,227,l),
(469,281,l),
(114,281,l),
(114,195,l),
(521,195,l),
(521,221,ls),
(521,297,o),
(498,362,o),
(457,407,cs),
(416,451,o),
(356,477,o),
(280,477,cs),
(135,477,o),
(24,377,o),
(24,229,cs),
(24,161,o),
(51,103,o),
(97,61,cs),
(143,19,o),
(208,-7,o),
(288,-7,cs)
);
}
);
width = 545;
},
{
layerId = "0E2BF6D7-5696-44D4-BEAE-B9A848D3BB08";
shapes = (
{
closed = 1;
nodes = (
(431,-243,o),
(450,-241,o),
(470,-230,c),
(470,-191,l),
(457,-195,o),
(444,-197,o),
(433,-197,cs),
(389,-197,o),
(365,-165,o),
(365,-118,cs),
(365,-85,o),
(378,-51,o),
(398,-19,cs),
(417,13,o),
(443,45,o),
(470,76,c),
(433,74,l),
(393,43,o),
(362,9,o),
(340,-29,cs),
(318,-66,o),
(307,-102,o),
(307,-137,cs),
(307,-166,o),
(316,-193,o),
(333,-212,cs),
(349,-231,o),
(376,-243,o),
(412,-243,cs)
);
},
{
closed = 1;
nodes = (
(318,-8,o),
(355,-2,o),
(388,13,cs),
(420,27,o),
(449,48,o),
(470,76,c),
(423,119,l),
(394,80,o),
(342,57,o),
(286,57,cs),
(241,57,o),
(200,73,o),
(172,102,c),
(143,130,o),
(126,171,o),
(126,222,cs),
(126,309,o),
(180,383,o),
(272,383,cs),
(315,383,o),
(350,367,o),
(377,341,cs),
(404,315,o),
(419,278,o),
(419,237,cs),
(419,215,l),
(460,267,l),
(102,267,l),
(102,206,l),
(491,206,l),
(491,231,ls),
(491,286,o),
(472,339,o),
(436,380,cs),
(400,421,o),
(347,448,o),
(279,448,cs),
(147,448,o),
(54,351,o),
(54,220,cs),
(54,149,o),
(79,93,o),
(120,54,cs),
(160,14,o),
(217,-8,o),
(282,-8,cs)
);
}
);
width = 545;
},
{
layerId = "B8F76C44-C3C5-4DD7-B95D-04ADE237D0F5";
shapes = (
{
closed = 1;
nodes = (
(411,-240,o),
(431,-237,o),
(447,-229,c),
(447,-196,l),
(428,-205,o),
(413,-210,o),
(394,-210,cs),
(358,-210,o),
(348,-186,o),
(348,-149,cs),
(348,-124,o),
(351,-97,o),
(366,-62,cs),
(381,-27,o),
(406,15,o),
(449,71,c),
(432,86,l),
(393,31,o),
(364,-15,o),
(346,-52,cs),
(328,-88,o),
(319,-123,o),
(319,-156,cs),
(319,-180,o),
(324,-201,o),
(336,-216,cs),
(348,-231,o),
(366,-240,o),
(395,-240,cs)
);
},
{
closed = 1;
nodes = (
(313,-8,o),
(344,-2,o),
(373,10,cs),
(402,22,o),
(429,43,o),
(449,71,c),
(426,91,l),
(399,48,o),
(342,21,o),
(286,21,cs),
(239,21,o),
(193,40,o),
(157,76,cs),
(121,111,o),
(97,159,o),
(97,215,cs),
(97,314,o),
(173,406,o),
(275,406,cs),
(320,406,o),
(365,384,o),
(397,352,cs),
(428,320,o),
(448,276,o),
(448,233,cs),
(448,222,l),
(456,242,l),
(97,242,l),
(97,211,l),
(478,211,l),
(478,240,ls),
(478,284,o),
(456,333,o),
(418,371,cs),
(380,409,o),
(328,435,o),
(271,435,cs),
(153,435,o),
(67,335,o),
(67,220,cs),
(67,153,o),
(94,96,o),
(135,56,cs),
(175,15,o),
(230,-8,o),
(286,-8,cs)
);
}
);
width = 545;
}
);
leftKerningGroup = a2;
rightKerningGroup = b;
unicode = 281;
},
{
glyphname = eturned;
layers = (
{
layerId = "E41D3D0D-E289-4871-BF0D-3D9777C34E64";
name = "#instance";
shapes = (
{
closed = 1;
nodes = (
(398,-9,o),
(479,95,o),
(479,232,cs),
(479,311,o),
(457,374,o),
(417,416,cs),
(378,458,o),
(323,479,o),
(258,479,cs),
(201,479,o),
(137,460,o),
(81,402,c),
(105,378,l),
(150,417,o),
(194,447,o),
(257,447,cs),
(311,447,o),
(358,426,o),
(392,391,cs),
(426,356,o),
(447,303,o),
(447,238,cs),
(447,125,o),
(377,23,o),
(257,23,cs),
(205,23,o),
(160,42,o),
(128,79,cs),
(96,117,o),
(77,170,o),
(77,241,c),
(59,209,l),
(457,209,l),
(457,242,l),
(46,242,l),
(46,232,ls),
(46,157,o),
(65,98,o),
(100,56,cs),
(136,14,o),
(188,-9,o),
(254,-9,cs)
);
}
);
width = 521;
},
{
layerId = "B0F09294-F33C-4320-A79E-9223B78F399B";
shapes = (
{
closed = 1;
nodes = (
(379,-7,o),
(481,85,o),
(501,247,cs),
(510,316,o),
(495,374,o),
(457,414,cs),
(419,454,o),
(361,477,o),
(282,477,cs),
(185,477,o),
(112,442,o),
(64,402,c),
(123,291,l),
(155,324,o),
(193,340,o),
(244,340,cs),
(281,340,o),
(308,332,o),
(323,314,cs),
(339,296,o),
(344,268,o),
(339,232,cs),
(331,168,o),
(305,125,o),
(237,125,cs),
(208,125,o),
(190,134,o),
(180,150,cs),
(170,165,o),
(167,186,o),
(170,210,c),
(61,193,l),
(405,193,l),
(416,278,l),
(10,278,l),
(5,243,ls),
(-4,171,o),
(13,108,o),
(49,64,cs),
(86,20,o),
(142,-7,o),
(217,-7,cs)
);
}
);
width = 521;
},
{
layerId = "84E89F29-712A-4FA0-8D04-7033136CE2AB";
shapes = (
{
closed = 1;
nodes = (
(369,-9,o),
(455,80,o),
(475,237,cs),
(484,314,o),
(468,374,o),
(432,415,cs),
(394,457,o),
(336,479,o),
(259,479,cs),
(183,479,o),
(125,458,o),
(67,412,c),
(91,349,l),
(139,387,o),
(195,409,o),
(256,409,cs),
(306,409,o),
(345,394,o),
(370,364,cs),
(395,334,o),
(405,292,o),
(398,236,cs),
(385,132,o),
(330,61,o),
(221,61,cs),
(177,61,o),
(143,76,o),
(120,103,cs),
(98,128,o),
(89,167,o),
(95,214,c),
(76,204,l),
(419,204,l),
(427,269,l),
(25,269,l),
(19,226,ls),
(10,154,o),
(23,95,o),
(57,54,cs),
(89,14,o),
(141,-9,o),
(210,-9,cs)
);
}
);
width = 521;
},
{
layerId = "947D3E97-14BA-4793-BB0D-B2B2C86BF4D4";
shapes = (
{
closed = 1;
nodes = (
(369,-9,o),
(452,81,o),
(470,232,cs),
(480,311,o),
(467,374,o),
(433,416,cs),
(398,458,o),
(345,479,o),
(280,479,cs),
(223,479,o),
(157,460,o),
(94,402,c),
(115,378,l),
(164,417,o),
(213,447,o),
(276,447,cs),
(330,447,o),
(374,426,o),
(403,391,cs),
(433,356,o),
(448,303,o),
(440,238,cs),
(423,113,o),
(352,23,o),
(223,23,cs),
(171,23,o),
(128,42,o),
(101,79,cs),
(73,117,o),
(61,170,o),
(70,241,c),
(48,209,l),
(446,209,l),
(451,242,l),
(40,242,l),
(38,232,l),
(29,157,o),
(40,98,o),
(71,56,cs),
(101,14,o),
(150,-9,o),
(216,-9,cs)
);
}
);
width = 521;
},
{
layerId = "082E40FD-8E35-4556-8ECC-8D6EB191F145";
shapes = (
{
closed = 1;
nodes = (
(402,-7,o),
(504,98,o),
(504,247,cs),
(504,316,o),
(482,374,o),
(439,414,cs),
(396,454,o),
(335,477,o),
(256,477,cs),
(159,477,o),
(91,442,o),
(48,402,c),
(121,291,l),
(148,324,o),
(184,340,o),
(235,340,cs),
(272,340,o),
(300,332,o),
(318,314,cs),
(336,296,o),
(344,268,o),
(344,232,cs),
(344,172,o),
(321,125,o),
(255,125,cs),
(226,125,o),
(207,134,o),
(195,150,cs),
(183,165,o),
(178,186,o),
(178,210,c),
(71,193,l),
(415,193,l),
(415,278,l),
(9,278,l),
(9,243,ls),
(9,171,o),
(33,108,o),
(75,64,cs),
(117,20,o),
(177,-7,o),
(252,-7,cs)
);
}
);
width = 521;
},
{
layerId = "0E2BF6D7-5696-44D4-BEAE-B9A848D3BB08";
shapes = (
{
closed = 1;
nodes = (
(397,-9,o),
(481,92,o),
(481,237,cs),
(481,314,o),
(457,374,o),
(416,415,cs),
(373,457,o),
(312,479,o),
(235,479,cs),
(159,479,o),
(104,458,o),
(52,412,c),
(84,349,l),
(126,387,o),
(180,409,o),
(241,409,cs),
(291,409,o),
(331,394,o),
(360,364,cs),
(389,334,o),
(404,292,o),
(404,236,cs),
(404,140,o),
(353,61,o),
(249,61,cs),
(205,61,o),
(169,76,o),
(143,103,cs),
(118,128,o),
(104,167,o),
(104,214,c),
(87,204,l),
(430,204,l),
(430,269,l),
(27,269,l),
(27,226,ls),
(27,154,o),
(47,95,o),
(86,54,cs),
(123,14,o),
(178,-9,o),
(247,-9,cs)
);
}
);
width = 521;
},
{
layerId = "B8F76C44-C3C5-4DD7-B95D-04ADE237D0F5";
shapes = (
{
closed = 1;
nodes = (
(398,-9,o),
(479,95,o),
(479,232,cs),
(479,311,o),
(457,374,o),
(417,416,cs),
(378,458,o),
(323,479,o),
(258,479,cs),
(201,479,o),
(137,460,o),
(81,402,c),
(105,378,l),
(150,417,o),
(194,447,o),
(257,447,cs),
(311,447,o),
(358,426,o),
(392,391,cs),
(426,356,o),
(447,303,o),
(447,238,cs),
(447,125,o),
(377,23,o),
(257,23,cs),
(205,23,o),
(160,42,o),
(128,79,cs),
(96,117,o),
(77,170,o),
(77,241,c),
(59,209,l),
(457,209,l),
(457,242,l),
(46,242,l),
(46,232,ls),
(46,157,o),
(65,98,o),
(100,56,cs),
(136,14,o),
(188,-9,o),
(254,-9,cs)
);
}
);
width = 521;
}
);
leftKerningGroup = a2;
rightKerningGroup = b;
unicode = 477;
},
{
glyphname = f;
layers = (
{
layerId = "B0F09294-F33C-4320-A79E-9223B78F399B";
shapes = (
{
closed = 1;
nodes = (
(32,0,l),
(197,0,l),
(259,498,l),
(262,517,o),
(275,540,o),
(295,553,o),
(323,557,o),
(339,557,qs),
(348,557,o),
(374,556,o),
(382,555,q),
(400,699,l),
(386,702,o),
(348,706,o),
(329,706,qs),
(278,706,o),
(198,685,o),
(139,641,o),
(103,571,o),
(97,523,qs)
);
},
{
closed = 1;
nodes = (
(3,327,l),
(352,327,l),
(370,470,l),
(21,470,l)
);
}
);
width = 341;
},
{
layerId = "84E89F29-712A-4FA0-8D04-7033136CE2AB";
shapes = (
{
closed = 1;
nodes = (
(86,0,l),
(158,0,l),
(225,534,ls),
(229,564,o),
(247,603,o),
(275,626,o),
(312,635,o),
(334,635,qs),
(339,635,o),
(347,635,o),
(352,634,q),
(361,702,l),
(357,703,o),
(343,705,o),
(330,705,qs),
(296,705,o),
(237,686,o),
(190,646,o),
(159,583,o),
(153,539,qs)
);
},
{
closed = 1;
nodes = (
(63,405,l),
(319,405,l),
(327,470,l),
(71,470,l)
);
}
);
width = 341;
},
{
layerId = "947D3E97-14BA-4793-BB0D-B2B2C86BF4D4";
shapes = (
{
closed = 1;
nodes = (
(102,0,l),
(133,0,l),
(202,550,ls),
(206,585,o),
(227,632,o),
(259,661,o),
(300,672,o),
(324,672,qs),
(327,672,o),
(327,672,o),
(330,673,q),
(334,706,l),
(332,706,o),
(328,705,o),
(322,705,qs),
(296,705,o),
(245,686,o),
(205,647,o),
(175,587,o),
(170,546,qs)
);
},
{
closed = 1;
nodes = (
(83,439,l),
(295,439,l),
(298,470,l),
(86,470,l)
);
}
);
width = 341;
},
{
layerId = "082E40FD-8E35-4556-8ECC-8D6EB191F145";
shapes = (
{
closed = 1;
nodes = (
(66,0,l),
(231,0,l),
(231,498,ls),
(231,517,o),
(241,540,o),
(260,553,o),
(287,557,o),
(303,557,qs),
(312,557,o),
(338,556,o),
(347,555,q),
(347,699,l),
(332,702,o),
(294,706,o),
(275,706,qs),
(224,706,o),
(146,685,o),
(93,641,o),
(66,571,o),
(66,523,qs)
);
},
{
closed = 1;
nodes = (
(-4,327,l),
(345,327,l),
(345,470,l),
(-4,470,l)
);
}
);
width = 341;
},
{
layerId = "0E2BF6D7-5696-44D4-BEAE-B9A848D3BB08";
shapes = (
{
closed = 1;
nodes = (
(120,0,l),
(192,0,l),
(192,534,ls),
(192,564,o),
(206,603,o),
(231,626,o),
(267,635,o),
(289,635,qs),
(294,635,o),
(302,635,o),
(307,634,q),
(307,702,l),
(303,703,o),
(289,705,o),
(276,705,qs),
(242,705,o),
(185,686,o),
(143,646,o),
(120,583,o),
(120,539,qs)
);
},
{
closed = 1;
nodes = (
(45,405,l),
(301,405,l),
(301,470,l),
(45,470,l)
);
}
);
width = 341;
},
{
layerId = "B8F76C44-C3C5-4DD7-B95D-04ADE237D0F5";
shapes = (
{
closed = 1;
nodes = (
(136,0,l),
(167,0,l),
(167,550,ls),
(167,585,o),
(182,632,o),
(210,661,o),
(250,672,o),
(274,672,qs),
(277,672,o),
(277,672,o),
(280,673,q),
(280,706,l),
(278,706,o),
(274,705,o),
(268,705,qs),
(242,705,o),
(193,686,o),
(158,647,o),
(136,587,o),
(136,546,qs)
);
},
{
closed = 1;
nodes = (
(61,439,l),
(273,439,l),
(273,470,l),
(61,470,l)
);
}
);
width = 341;
}
);
leftKerningGroup = f2;
rightKerningGroup = f;
unicode = 102;
},
{
glyphname = g;
layers = (
{
layerId = "B0F09294-F33C-4320-A79E-9223B78F399B";
shapes = (
{
closed = 1;
nodes = (
(378,-250,o),
(481,-172,o),
(505,0,c),
(564,470,l),
(408,470,l),
(392,346,l),
(382,339,l),
(342,13,ls),
(331,-70,o),
(301,-110,o),
(215,-110,cs),
(186,-110,o),
(164,-104,o),
(145,-93,cs),
(126,-82,o),
(108,-67,o),
(89,-47,c),
(-5,-156,l),
(15,-187,o),
(45,-210,o),
(83,-226,cs),
(120,-242,o),
(164,-250,o),
(209,-250,cs)
);
},
{
closed = 1;
nodes = (
(287,-7,o),
(348,36,o),
(377,129,c),
(390,234,l),
(369,234,l),
(362,177,o),
(333,131,o),
(271,131,cs),
(247,131,o),
(226,141,o),
(212,158,cs),
(197,175,o),
(189,202,o),
(193,235,cs),
(201,293,o),
(235,336,o),
(296,336,cs),
(319,336,o),
(339,328,o),
(353,312,cs),
(367,296,o),
(374,272,o),
(370,240,c),
(386,240,l),
(398,339,l),
(402,376,o),
(388,411,o),
(364,436,cs),
(339,461,o),
(300,477,o),
(252,477,cs),
(110,477,o),
(34,370,o),
(18,236,cs),
(9,167,o),
(21,105,o),
(52,62,cs),
(82,19,o),
(130,-7,o),
(191,-7,cs)
);
}
);
width = 582;
},
{
layerId = "84E89F29-712A-4FA0-8D04-7033136CE2AB";
shapes = (
{
closed = 1;
nodes = (
(354,-241,o),
(451,-178,o),
(471,-18,cs),
(532,470,l),
(459,470,l),
(442,338,l),
(437,330,l),
(396,2,ls),
(382,-114,o),
(330,-168,o),
(208,-168,cs),
(173,-168,o),
(145,-159,o),
(122,-147,cs),
(98,-134,o),
(80,-116,o),
(66,-94,c),
(9,-151,l),
(30,-181,o),
(56,-203,o),
(87,-218,cs),
(119,-233,o),
(155,-241,o),
(195,-241,cs)
);
},
{
closed = 1;
nodes = (
(316,-9,o),
(397,31,o),
(426,119,c),
(440,232,l),
(425,232,l),
(411,132,o),
(347,63,o),
(245,63,cs),
(199,63,o),
(161,80,o),
(139,111,c),
(116,141,o),
(105,185,o),
(111,236,cs),
(125,341,o),
(182,407,o),
(290,407,cs),
(341,407,o),
(378,387,o),
(401,357,cs),
(423,327,o),
(432,285,o),
(426,242,c),
(436,242,l),
(452,368,l),
(451,394,o),
(435,422,o),
(408,443,cs),
(380,465,o),
(340,479,o),
(289,479,cs),
(139,479,o),
(50,382,o),
(31,235,cs),
(22,159,o),
(41,98,o),
(77,57,cs),
(114,14,o),
(168,-9,o),
(228,-9,cs)
);
}
);
width = 582;
},
{
layerId = "947D3E97-14BA-4793-BB0D-B2B2C86BF4D4";
shapes = (
{
closed = 1;
nodes = (
(369,-241,o),
(454,-152,o),
(469,-29,cs),
(530,470,l),
(497,470,l),
(481,334,l),
(479,326,l),
(438,-3,ls),
(425,-109,o),
(363,-210,o),
(226,-210,cs),
(189,-210,o),
(157,-200,o),
(132,-184,cs),
(106,-167,o),
(87,-143,o),
(74,-120,c),
(45,-138,l),
(66,-169,o),
(88,-195,o),
(116,-214,cs),
(143,-231,o),
(178,-241,o),
(219,-241,cs)
);
},
{
closed = 1;
nodes = (
(365,-9,o),
(436,64,o),
(474,179,c),
(472,230,l),
(467,230,l),
(453,121,o),
(360,22,o),
(246,22,cs),
(189,22,o),
(145,44,o),
(119,83,c),
(91,121,o),
(79,173,o),
(87,238,cs),
(102,368,o),
(168,447,o),
(303,447,cs),
(368,447,o),
(413,422,o),
(439,383,c),
(464,343,o),
(474,294,o),
(469,244,c),
(469,244,l),
(491,296,l),
(486,345,o),
(470,389,o),
(440,423,cs),
(410,457,o),
(368,479,o),
(309,479,cs),
(162,479,o),
(70,379,o),
(53,234,cs),
(43,155,o),
(64,96,o),
(101,54,cs),
(139,12,o),
(188,-9,o),
(244,-9,cs)
);
}
);
width = 582;
},
{
layerId = "082E40FD-8E35-4556-8ECC-8D6EB191F145";
shapes = (
{
closed = 1;
nodes = (
(431,-250,o),
(537,-161,o),
(539,0,c),
(539,470,l),
(383,470,l),
(383,346,l),
(374,339,l),
(374,13,ls),
(374,-64,o),
(345,-110,o),
(263,-110,cs),
(234,-110,o),
(211,-104,o),
(191,-93,cs),
(170,-82,o),
(150,-67,o),
(129,-47,c),
(49,-156,l),
(72,-187,o),
(105,-210,o),
(145,-226,cs),
(184,-242,o),
(229,-250,o),
(274,-250,cs)
);
},
{
closed = 1;
nodes = (
(313,-7,o),
(379,43,o),
(395,129,c),
(395,234,l),
(374,234,l),
(374,181,o),
(348,131,o),
(289,131,cs),
(265,131,o),
(242,141,o),
(226,158,cs),
(209,175,o),
(198,202,o),
(198,235,cs),
(198,289,o),
(230,336,o),
(288,336,cs),
(311,336,o),
(332,328,o),
(348,312,cs),
(364,296,o),
(374,272,o),
(374,240,c),
(390,240,l),
(390,339,l),
(389,376,o),
(371,411,o),
(343,436,cs),
(315,461,o),
(274,477,o),
(226,477,cs),
(90,477,o),
(22,360,o),
(22,236,cs),
(22,167,o),
(42,105,o),
(78,62,cs),
(114,19,o),
(165,-7,o),
(226,-7,cs)
);
}
);
width = 582;
},
{
layerId = "0E2BF6D7-5696-44D4-BEAE-B9A848D3BB08";
shapes = (
{
closed = 1;
nodes = (
(410,-241,o),
(509,-167,o),
(509,-18,cs),
(509,470,l),
(436,470,l),
(436,338,l),
(432,330,l),
(432,2,ls),
(432,-106,o),
(385,-168,o),
(268,-168,cs),
(232,-168,o),
(203,-159,o),
(179,-147,cs),
(153,-134,o),
(133,-116,o),
(116,-94,c),
(67,-151,l),
(91,-181,o),
(120,-203,o),
(153,-218,cs),
(186,-233,o),
(224,-241,o),
(263,-241,cs)
);
},
{
closed = 1;
nodes = (
(344,-9,o),
(430,36,o),
(447,119,c),
(447,232,l),
(432,232,l),
(432,140,o),
(368,63,o),
(273,63,cs),
(227,63,o),
(187,80,o),
(161,111,c),
(134,141,o),
(118,185,o),
(118,236,cs),
(118,333,o),
(174,407,o),
(275,407,cs),
(326,407,o),
(366,387,o),
(392,357,cs),
(418,327,o),
(432,285,o),
(432,242,c),
(442,242,l),
(442,368,l),
(437,394,o),
(418,422,o),
(388,443,cs),
(358,465,o),
(317,479,o),
(265,479,cs),
(124,479,o),
(38,371,o),
(38,235,cs),
(38,159,o),
(65,98,o),
(106,57,cs),
(148,14,o),
(206,-9,o),
(265,-9,cs)
);
}
);
width = 582;
},
{
layerId = "B8F76C44-C3C5-4DD7-B95D-04ADE237D0F5";
shapes = (
{
closed = 1;
nodes = (
(431,-241,o),
(510,-140,o),
(510,-29,cs),
(510,470,l),
(477,470,l),
(477,334,l),
(476,326,l),
(476,-3,ls),
(476,-96,o),
(426,-210,o),
(294,-210,cs),
(257,-210,o),
(223,-200,o),
(196,-184,cs),
(168,-167,o),
(146,-143,o),
(130,-120,c),
(103,-138,l),
(128,-168,o),
(153,-195,o),
(183,-214,c),
(214,-231,o),
(249,-241,o),
(290,-241,cs)
);
},
{
closed = 1;
nodes = (
(396,-9,o),
(470,75,o),
(491,179,c),
(482,230,l),
(476,230,l),
(476,119,o),
(397,22,o),
(281,22,cs),
(224,22,o),
(178,44,o),
(146,83,cs),
(114,121,o),
(95,173,o),
(95,238,cs),
(95,356,o),
(160,447,o),
(285,447,cs),
(350,447,o),
(398,422,o),
(429,383,cs),
(460,343,o),
(476,294,o),
(476,244,c),
(476,244,l),
(492,296,l),
(482,345,o),
(460,389,o),
(426,423,cs),
(391,457,o),
(346,479,o),
(288,479,cs),
(152,479,o),
(61,367,o),
(61,234,cs),
(61,155,o),
(89,96,o),
(132,54,cs),
(175,12,o),
(227,-9,o),
(284,-9,cs)
);
}
);
width = 582;
}
);
leftKerningGroup = a2;
rightKerningGroup = a;
unicode = 103;
},
{
glyphname = h;
layers = (
{
layerId = "E41D3D0D-E289-4871-BF0D-3D9777C34E64";
name = "#instance";
shapes = (
{
closed = 1;
nodes = (
(91,0,l),
(125,0,l),
(125,326,l),
(125,334,l),
(125,700,l),
(91,700,l),
(91,334,l),
(91,326,l),
(91,139,l),
(91,122,l)
);
},
{
closed = 1;
nodes = (
(423,0,l),
(456,0,l),
(456,258,l),
(456,265,ls),
(456,335,o),
(436,387,o),
(404,424,cs),
(373,459,o),
(330,477,o),
(284,477,cs),
(196,477,o),
(115,406,o),
(105,318,c),
(105,258,l),
(125,258,l),
(125,352,o),
(178,446,o),
(282,446,cs),
(322,446,o),
(356,433,o),
(382,403,cs),
(408,373,o),
(423,328,o),
(423,263,cs)
);
}
);
width = 544;
},
{
layerId = "B0F09294-F33C-4320-A79E-9223B78F399B";
shapes = (
{
closed = 1;
nodes = (
(-1,0,l),
(164,0,l),
(206,339,l),
(207,346,l),
(252,700,l),
(87,700,l),
(42,346,l),
(41,339,l),
(15,126,l),
(13,111,l)
);
},
{
closed = 1;
nodes = (
(317,0,l),
(482,0,l),
(516,270,l),
(517,281,ls),
(526,348,o),
(515,397,o),
(490,429,cs),
(465,461,o),
(423,477,o),
(370,477,cs),
(273,477,o),
(212,435,o),
(180,341,c),
(166,232,l),
(193,232,l),
(200,284,o),
(228,336,o),
(286,336,cs),
(306,336,o),
(324,329,o),
(335,313,cs),
(345,297,o),
(351,272,o),
(347,236,cs)
);
}
);
width = 544;
},
{
layerId = "84E89F29-712A-4FA0-8D04-7033136CE2AB";
shapes = (
{
closed = 1;
nodes = (
(38,0,l),
(115,0,l),
(156,330,l),
(157,338,l),
(202,700,l),
(125,700,l),
(80,338,l),
(79,330,l),
(55,135,l),
(53,119,l)
);
},
{
closed = 1;
nodes = (
(366,0,l),
(443,0,l),
(478,281,l),
(479,291,l),
(487,349,o),
(473,395,o),
(446,427,cs),
(419,459,o),
(378,476,o),
(327,476,cs),
(245,476,o),
(158,432,o),
(137,347,c),
(124,241,l),
(145,241,l),
(156,329,o),
(206,402,o),
(300,402,cs),
(331,402,o),
(360,392,o),
(378,372,cs),
(397,350,o),
(406,319,o),
(400,273,cs)
);
}
);
width = 544;
},
{
layerId = "947D3E97-14BA-4793-BB0D-B2B2C86BF4D4";
shapes = (
{
closed = 1;
nodes = (
(53,0,l),
(87,0,l),
(127,326,l),
(129,334,l),
(175,700,l),
(140,700,l),
(94,334,l),
(93,326,l),
(70,139,l),
(68,122,l)
);
},
{
closed = 1;
nodes = (
(385,0,l),
(418,0,l),
(450,258,l),
(451,265,ls),
(460,335,o),
(447,387,o),
(419,424,cs),
(392,459,o),
(351,477,o),
(306,477,cs),
(207,477,o),
(129,415,o),
(107,318,c),
(99,258,l),
(119,258,l),
(133,363,o),
(189,446,o),
(300,446,cs),
(340,446,o),
(372,433,o),
(394,403,cs),
(416,373,o),
(426,328,o),
(418,263,cs)
);
}
);
width = 544;
},
{
layerId = "082E40FD-8E35-4556-8ECC-8D6EB191F145";
shapes = (
{
closed = 1;
nodes = (
(33,0,l),
(198,0,l),
(198,339,l),
(198,346,l),
(198,700,l),
(33,700,l),
(33,346,l),
(33,339,l),
(33,126,l),
(33,111,l)
);
},
{
closed = 1;
nodes = (
(351,0,l),
(516,0,l),
(516,270,l),
(516,281,ls),
(516,348,o),
(499,397,o),
(470,429,cs),
(441,461,o),
(397,477,o),
(344,477,cs),
(256,477,o),
(190,427,o),
(171,341,c),
(171,232,l),
(198,232,l),
(198,280,o),
(222,336,o),
(278,336,cs),
(298,336,o),
(317,329,o),
(330,313,cs),
(342,297,o),
(351,272,o),
(351,236,cs)
);
}
);
width = 544;
},
{
layerId = "0E2BF6D7-5696-44D4-BEAE-B9A848D3BB08";
shapes = (
{
closed = 1;
nodes = (
(74,0,l),
(151,0,l),
(151,330,l),
(151,338,l),
(151,700,l),
(74,700,l),
(74,338,l),
(74,330,l),
(74,135,l),
(74,119,l)
);
},
{
closed = 1;
nodes = (
(402,0,l),
(479,0,l),
(479,281,l),
(479,291,ls),
(479,349,o),
(460,395,o),
(429,427,cs),
(398,459,o),
(354,476,o),
(304,476,cs),
(230,476,o),
(140,427,o),
(130,347,c),
(130,241,l),
(151,241,l),
(151,323,o),
(196,402,o),
(286,402,cs),
(317,402,o),
(346,392,o),
(368,372,c),
(389,350,o),
(402,319,o),
(402,273,cs)
);
}
);
width = 544;
},
{
layerId = "B8F76C44-C3C5-4DD7-B95D-04ADE237D0F5";
shapes = (
{
closed = 1;
nodes = (
(91,0,l),
(125,0,l),
(125,326,l),
(125,334,l),
(125,700,l),
(91,700,l),
(91,334,l),
(91,326,l),
(91,139,l),
(91,122,l)
);
},
{
closed = 1;
nodes = (
(423,0,l),
(456,0,l),
(456,258,l),
(456,265,ls),
(456,335,o),
(436,387,o),
(404,424,cs),
(373,459,o),
(330,477,o),
(284,477,cs),
(196,477,o),
(115,406,o),
(105,318,c),
(105,258,l),
(125,258,l),
(125,352,o),
(178,446,o),
(282,446,cs),
(322,446,o),
(356,433,o),
(382,403,cs),
(408,373,o),
(423,328,o),
(423,263,cs)
);
}
);
width = 544;
}
);
leftKerningGroup = b2;
rightKerningGroup = h;
unicode = 104;
},
{
glyphname = hbar;
layers = (
{
layerId = "E41D3D0D-E289-4871-BF0D-3D9777C34E64";
name = "#instance";
shapes = (
{
closed = 1;
nodes = (
(349,623,l),
(47,623,l),
(47,588,l),
(349,588,l)
);
},
{
closed = 1;
nodes = (
(91,0,l),
(125,0,l),
(125,326,l),
(125,334,l),
(125,700,l),
(91,700,l),
(91,334,l),
(91,326,l),
(91,139,l),
(91,122,l)
);
},
{
closed = 1;
nodes = (
(423,0,l),
(456,0,l),
(456,258,l),
(456,265,ls),
(456,335,o),
(436,387,o),
(404,424,cs),
(373,459,o),
(330,477,o),
(284,477,cs),
(196,477,o),
(115,406,o),
(105,318,c),
(105,258,l),
(125,258,l),
(125,352,o),
(178,446,o),
(282,446,cs),
(322,446,o),
(356,433,o),
(382,403,cs),
(408,373,o),
(423,328,o),
(423,263,cs)
);
}
);
width = 544;
},
{
layerId = "B0F09294-F33C-4320-A79E-9223B78F399B";
shapes = (
{
closed = 1;
nodes = (
(389,643,l),
(9,643,l),
(-7,513,l),
(373,513,l)
);
},
{
closed = 1;
nodes = (
(-1,0,l),
(164,0,l),
(206,339,l),
(207,346,l),
(252,700,l),
(87,700,l),
(42,346,l),
(41,339,l),
(15,126,l),
(13,111,l)
);
},
{
closed = 1;
nodes = (
(317,0,l),
(482,0,l),
(516,270,l),
(517,281,l),
(525,348,o),
(515,397,o),
(490,429,cs),
(465,461,o),
(423,477,o),
(370,477,cs),
(282,477,o),
(207,426,o),
(180,341,c),
(166,232,l),
(193,232,l),
(200,281,o),
(229,336,o),
(286,336,cs),
(306,336,o),
(324,329,o),
(335,313,cs),
(346,297,o),
(351,272,o),
(347,236,cs)
);
}
);
width = 544;
},
{
layerId = "84E89F29-712A-4FA0-8D04-7033136CE2AB";
shapes = (
{
closed = 1;
nodes = (
(386,631,l),
(37,631,l),
(28,562,l),
(377,562,l)
);
},
{
closed = 1;
nodes = (
(38,0,l),
(115,0,l),
(156,330,l),
(157,338,l),
(203,700,l),
(126,700,l),
(81,338,l),
(79,330,l),
(55,135,l),
(53,119,l)
);
},
{
closed = 1;
nodes = (
(366,0,l),
(443,0,l),
(478,281,l),
(479,291,ls),
(486,349,o),
(473,395,o),
(446,427,cs),
(419,459,o),
(377,476,o),
(327,476,cs),
(250,476,o),
(157,426,o),
(137,347,c),
(123,241,l),
(145,241,l),
(154,324,o),
(210,402,o),
(299,402,cs),
(330,402,o),
(359,392,o),
(379,372,cs),
(398,350,o),
(405,319,o),
(400,273,cs)
);
}
);
width = 544;
},
{
layerId = "947D3E97-14BA-4793-BB0D-B2B2C86BF4D4";
shapes = (
{
closed = 1;
nodes = (
(390,623,l),
(87,623,l),
(83,588,l),
(386,588,l)
);
},
{
closed = 1;
nodes = (
(53,0,l),
(87,0,l),
(128,326,l),
(129,334,l),
(175,700,l),
(141,700,l),
(95,334,l),
(94,326,l),
(71,139,l),
(69,122,l)
);
},
{
closed = 1;
nodes = (
(386,0,l),
(419,0,l),
(450,258,l),
(452,265,l),
(460,335,o),
(447,387,o),
(420,424,c),
(392,459,o),
(351,477,o),
(306,477,cs),
(217,477,o),
(127,405,o),
(107,318,c),
(99,258,l),
(119,258,l),
(132,353,o),
(195,446,o),
(301,446,cs),
(340,446,o),
(372,433,o),
(394,403,cs),
(416,373,o),
(426,328,o),
(419,263,cs)
);
}
);
width = 544;
},
{
layerId = "082E40FD-8E35-4556-8ECC-8D6EB191F145";
shapes = (
{
closed = 1;
nodes = (
(343,643,l),
(-37,643,l),
(-37,513,l),
(343,513,l)
);
},
{
closed = 1;
nodes = (
(33,0,l),
(198,0,l),
(198,339,l),
(198,346,l),
(198,700,l),
(33,700,l),
(33,346,l),
(33,339,l),
(33,126,l),
(33,111,l)
);
},
{
closed = 1;
nodes = (
(351,0,l),
(516,0,l),
(516,270,l),
(516,281,ls),
(516,348,o),
(499,397,o),
(470,429,cs),
(441,461,o),
(397,477,o),
(344,477,cs),
(256,477,o),
(190,427,o),
(171,341,c),
(171,232,l),
(198,232,l),
(198,280,o),
(222,336,o),
(278,336,cs),
(298,336,o),
(317,329,o),
(330,313,cs),
(342,297,o),
(351,272,o),
(351,236,cs)
);
}
);
width = 544;
},
{
layerId = "0E2BF6D7-5696-44D4-BEAE-B9A848D3BB08";
shapes = (
{
closed = 1;
nodes = (
(343,631,l),
(-6,631,l),
(-6,562,l),
(343,562,l)
);
},
{
closed = 1;
nodes = (
(74,0,l),
(151,0,l),
(151,330,l),
(151,338,l),
(151,700,l),
(74,700,l),
(74,338,l),
(74,330,l),
(74,135,l),
(74,119,l)
);
},
{
closed = 1;
nodes = (
(402,0,l),
(479,0,l),
(479,281,l),
(479,291,ls),
(479,349,o),
(460,395,o),
(429,427,cs),
(398,459,o),
(354,476,o),
(304,476,cs),
(230,476,o),
(140,427,o),
(130,347,c),
(130,241,l),
(151,241,l),
(151,323,o),
(196,402,o),
(286,402,cs),
(317,402,o),
(346,392,o),
(368,372,cs),
(389,350,o),
(402,319,o),
(402,273,cs)
);
}
);
width = 544;
},
{
layerId = "B8F76C44-C3C5-4DD7-B95D-04ADE237D0F5";
shapes = (
{
closed = 1;
nodes = (
(349,623,l),
(47,623,l),
(47,588,l),
(349,588,l)
);
},
{
closed = 1;
nodes = (
(91,0,l),
(125,0,l),
(125,326,l),
(125,334,l),
(125,700,l),
(91,700,l),
(91,334,l),
(91,326,l),
(91,139,l),
(91,122,l)
);
},
{
closed = 1;
nodes = (
(423,0,l),
(456,0,l),
(456,258,l),
(456,265,ls),
(456,335,o),
(436,387,o),
(404,424,cs),
(373,459,o),
(330,477,o),
(284,477,cs),
(196,477,o),
(115,406,o),
(105,318,c),
(105,258,l),
(125,258,l),
(125,352,o),
(178,446,o),
(282,446,cs),
(322,446,o),
(356,433,o),
(382,403,cs),
(408,373,o),
(423,328,o),
(423,263,cs)
);
}
);
width = 544;
}
);
leftKerningGroup = b2;
rightKerningGroup = h;
unicode = 295;
},
{
glyphname = dotlessi;
layers = (
{
layerId = "E41D3D0D-E289-4871-BF0D-3D9777C34E64";
name = "#instance";
shapes = (
{
closed = 1;
nodes = (
(105.567,0,l),
(139.688,0,l),
(139.688,469.999,l),
(105.567,469.999,l)
);
}
);
width = 246;
},
{
layerId = "B0F09294-F33C-4320-A79E-9223B78F399B";
shapes = (
{
closed = 1;
nodes = (
(6,0,l),
(171,0,l),
(230,470,l),
(65,470,l)
);
}
);
width = 246;
},
{
layerId = "84E89F29-712A-4FA0-8D04-7033136CE2AB";
shapes = (
{
closed = 1;
nodes = (
(53,0,l),
(125,0,l),
(185,470,l),
(113,470,l)
);
}
);
width = 246;
},
{
layerId = "947D3E97-14BA-4793-BB0D-B2B2C86BF4D4";
shapes = (
{
closed = 1;
nodes = (
(68,0,l),
(102,0,l),
(160,470,l),
(126,470,l)
);
}
);
width = 246;
},
{
layerId = "082E40FD-8E35-4556-8ECC-8D6EB191F145";
shapes = (
{
closed = 1;
nodes = (
(40,0,l),
(205,0,l),
(205,470,l),
(40,470,l)
);
}
);
width = 246;
},
{
layerId = "0E2BF6D7-5696-44D4-BEAE-B9A848D3BB08";
shapes = (
{
closed = 1;
nodes = (
(87,0,l),
(159,0,l),
(159,470,l),
(87,470,l)
);
}
);
width = 246;
},
{
layerId = "B8F76C44-C3C5-4DD7-B95D-04ADE237D0F5";
shapes = (
{
closed = 1;
nodes = (
(106,0,l),
(140,0,l),
(140,470,l),
(106,470,l)
);
}
);
width = 246;
}
);
leftKerningGroup = m;
rightKerningGroup = a;
unicode = 305;
},
{
glyphname = dotlessj;
layers = (
{
layerId = "E41D3D0D-E289-4871-BF0D-3D9777C34E64";
name = "#instance";
shapes = (
{
closed = 1;
nodes = (
(84,-238,o),
(138,-164,o),
(138,-93,qs),
(138,470,l),
(107,470,l),
(107,-71,ls),
(107,-102,o),
(101,-154,o),
(81,-191,o),
(45,-210,o),
(16,-210,qs),
(11,-210,o),
(10,-210,o),
(7,-211,q),
(7,-238,l),
(9,-238,o),
(22,-238,o),
(22,-238,q)
);
}
);
width = 246;
},
{
layerId = "B0F09294-F33C-4320-A79E-9223B78F399B";
shapes = (
{
closed = 1;
nodes = (
(42,-271,o),
(149,-176,o),
(160,-86,qs),
(230,470,l),
(65,470,l),
(1,-42,ls),
(-2,-66,o),
(-13,-97,o),
(-27,-115,o),
(-46,-122,o),
(-58,-122,qs),
(-63,-122,o),
(-77,-121,o),
(-85,-119,q),
(-104,-268,l),
(-96,-270,o),
(-81,-271,o),
(-67,-271,qs)
);
}
);
width = 246;
},
{
layerId = "84E89F29-712A-4FA0-8D04-7033136CE2AB";
shapes = (
{
closed = 1;
nodes = (
(26,-246,o),
(105,-160,o),
(115,-78,qs),
(185,470,l),
(113,470,l),
(42,-88,ls),
(39,-114,o),
(24,-149,o),
(2,-171,o),
(-28,-181,o),
(-45,-181,qs),
(-50,-181,o),
(-58,-181,o),
(-63,-180,q),
(-71,-245,l),
(-67,-246,o),
(-59,-246,o),
(-55,-246,qs)
);
}
);
width = 246;
},
{
layerId = "947D3E97-14BA-4793-BB0D-B2B2C86BF4D4";
shapes = (
{
closed = 1;
nodes = (
(20,-238,o),
(83,-164,o),
(92,-93,qs),
(162,470,l),
(131,470,l),
(64,-71,ls),
(60,-102,o),
(48,-154,o),
(23,-191,o),
(-15,-210,o),
(-44,-210,qs),
(-49,-210,o),
(-50,-210,o),
(-53,-211,q),
(-57,-238,l),
(-55,-238,o),
(-42,-238,o),
(-42,-238,q)
);
}
);
width = 246;
},
{
layerId = "082E40FD-8E35-4556-8ECC-8D6EB191F145";
shapes = (
{
closed = 1;
nodes = (
(110,-271,o),
(205,-176,o),
(205,-86,qs),
(205,470,l),
(40,470,l),
(40,-42,ls),
(40,-66,o),
(33,-97,o),
(21,-115,o),
(3,-122,o),
(-9,-122,qs),
(-14,-122,o),
(-28,-121,o),
(-36,-119,q),
(-36,-268,l),
(-28,-270,o),
(-13,-271,o),
(1,-271,qs)
);
}
);
width = 246;
},
{
layerId = "0E2BF6D7-5696-44D4-BEAE-B9A848D3BB08";
shapes = (
{
closed = 1;
nodes = (
(91,-246,o),
(159,-160,o),
(159,-78,qs),
(159,470,l),
(87,470,l),
(87,-88,ls),
(87,-114,o),
(77,-149,o),
(57,-171,o),
(29,-181,o),
(12,-181,qs),
(7,-181,o),
(-1,-181,o),
(-6,-180,q),
(-6,-245,l),
(-2,-246,o),
(6,-246,o),
(10,-246,qs)
);
}
);
width = 246;
},
{
layerId = "B8F76C44-C3C5-4DD7-B95D-04ADE237D0F5";
shapes = (
{
closed = 1;
nodes = (
(84,-238,o),
(138,-164,o),
(138,-93,qs),
(138,470,l),
(107,470,l),
(107,-71,ls),
(107,-102,o),
(101,-154,o),
(81,-191,o),
(45,-210,o),
(16,-210,qs),
(11,-210,o),
(10,-210,o),
(7,-211,q),
(7,-238,l),
(9,-238,o),
(22,-238,o),
(22,-238,q)
);
}
);
width = 246;
}
);
leftKerningGroup = m;
rightKerningGroup = a;
unicode = 567;
},
{
glyphname = k;
layers = (
{
layerId = "B0F09294-F33C-4320-A79E-9223B78F399B";
shapes = (
{
closed = 1;
nodes = (
(277,0,l),
(457,0,l),
(460,22,l),
(340,286,l),
(332,209,l),
(472,448,l),
(475,470,l),
(301,470,l),
(182,235,l)
);
},
{
closed = 1;
nodes = (
(87,187,l),
(253,187,l),
(266,288,l),
(100,288,l)
);
},
{
closed = 1;
nodes = (
(-9,0,l),
(156,0,l),
(198,339,l),
(199,346,l),
(244,700,l),
(79,700,l),
(34,346,l),
(33,339,l),
(7,126,l),
(5,111,l)
);
}
);
width = 464;
},
{
layerId = "84E89F29-712A-4FA0-8D04-7033136CE2AB";
shapes = (
{
closed = 1;
nodes = (
(337,0,l),
(426,0,l),
(427,11,l),
(220,289,l),
(211,218,l),
(440,459,l),
(442,470,l),
(359,470,l),
(155,246,l)
);
},
{
closed = 1;
nodes = (
(122,219,l),
(214,219,l),
(222,284,l),
(130,284,l)
);
},
{
closed = 1;
nodes = (
(41,0,l),
(118,0,l),
(159,330,l),
(160,338,l),
(206,700,l),
(129,700,l),
(83,338,l),
(82,330,l),
(58,135,l),
(56,119,l)
);
}
);
width = 464;
},
{
layerId = "947D3E97-14BA-4793-BB0D-B2B2C86BF4D4";
shapes = (
{
closed = 1;
nodes = (
(349,0,l),
(392,0,l),
(393,6,l),
(157,267,l),
(157,242,l),
(409,464,l),
(409,470,l),
(370,470,l),
(125,250,l)
);
},
{
closed = 1;
nodes = (
(97,231,l),
(170,231,l),
(174,265,l),
(102,265,l)
);
},
{
closed = 1;
nodes = (
(48,0,l),
(82,0,l),
(123,326,l),
(124,334,l),
(170,700,l),
(136,700,l),
(90,334,l),
(88,326,l),
(65,139,l),
(63,122,l)
);
}
);
width = 464;
},
{
layerId = "082E40FD-8E35-4556-8ECC-8D6EB191F145";
shapes = (
{
closed = 1;
nodes = (
(311,0,l),
(491,0,l),
(491,22,l),
(338,286,l),
(340,209,l),
(450,448,l),
(450,470,l),
(276,470,l),
(187,235,l)
);
},
{
closed = 1;
nodes = (
(98,187,l),
(264,187,l),
(264,288,l),
(98,288,l)
);
},
{
closed = 1;
nodes = (
(25,0,l),
(190,0,l),
(190,339,l),
(190,346,l),
(190,700,l),
(25,700,l),
(25,346,l),
(25,339,l),
(25,126,l),
(25,111,l)
);
}
);
width = 464;
},
{
layerId = "0E2BF6D7-5696-44D4-BEAE-B9A848D3BB08";
shapes = (
{
closed = 1;
nodes = (
(373,0,l),
(462,0,l),
(462,11,l),
(220,289,l),
(220,218,l),
(419,459,l),
(419,470,l),
(337,470,l),
(160,246,l)
);
},
{
closed = 1;
nodes = (
(131,219,l),
(222,219,l),
(222,284,l),
(131,284,l)
);
},
{
closed = 1;
nodes = (
(77,0,l),
(154,0,l),
(154,330,l),
(154,338,l),
(154,700,l),
(77,700,l),
(77,338,l),
(77,330,l),
(77,135,l),
(77,119,l)
);
}
);
width = 464;
},
{
layerId = "B8F76C44-C3C5-4DD7-B95D-04ADE237D0F5";
shapes = (
{
closed = 1;
nodes = (
(387,0,l),
(430,0,l),
(430,6,l),
(162,267,l),
(164,242,l),
(388,464,l),
(388,470,l),
(350,470,l),
(132,250,l)
);
},
{
closed = 1;
nodes = (
(107,231,l),
(179,231,l),
(179,265,l),
(107,265,l)
);
},
{
closed = 1;
nodes = (
(86,0,l),
(120,0,l),
(120,326,l),
(120,334,l),
(120,700,l),
(86,700,l),
(86,334,l),
(86,326,l),
(86,139,l),
(86,122,l)
);
}
);
width = 464;
}
);
leftKerningGroup = b2;
rightKerningGroup = k;
unicode = 107;
},
{
glyphname = l;
layers = (
{
layerId = "B0F09294-F33C-4320-A79E-9223B78F399B";
shapes = (
{
closed = 1;
nodes = (
(6,0,l),
(171,0,l),
(213,339,l),
(214,346,l),
(259,700,l),
(94,700,l),
(49,346,l),
(48,339,l),
(22,126,l),
(20,111,l)
);
}
);
width = 246;
},
{
layerId = "84E89F29-712A-4FA0-8D04-7033136CE2AB";
shapes = (
{
closed = 1;
nodes = (
(53,0,l),
(125,0,l),
(164,309,l),
(165,316,l),
(213,700,l),
(141,700,l),
(93,316,l),
(92,309,l),
(69,126,l),
(67,111,l)
);
}
);
width = 246;
},
{
layerId = "947D3E97-14BA-4793-BB0D-B2B2C86BF4D4";
shapes = (
{
closed = 1;
nodes = (
(73,0,l),
(104,0,l),
(141,296,l),
(142,303,l),
(192,700,l),
(161,700,l),
(111,303,l),
(110,296,l),
(89,126,l),
(87,111,l)
);
}
);
width = 246;
},
{
layerId = "082E40FD-8E35-4556-8ECC-8D6EB191F145";
shapes = (
{
closed = 1;
nodes = (
(40,0,l),
(205,0,l),
(205,339,l),
(205,346,l),
(205,700,l),
(40,700,l),
(40,346,l),
(40,339,l),
(40,126,l),
(40,111,l)
);
}
);
width = 246;
},
{
layerId = "0E2BF6D7-5696-44D4-BEAE-B9A848D3BB08";
shapes = (
{
closed = 1;
nodes = (
(87,0,l),
(159,0,l),
(159,309,l),
(159,316,l),
(159,700,l),
(87,700,l),
(87,316,l),
(87,309,l),
(87,126,l),
(87,111,l)
);
}
);
width = 246;
},
{
layerId = "B8F76C44-C3C5-4DD7-B95D-04ADE237D0F5";
shapes = (
{
closed = 1;
nodes = (
(107,0,l),
(138,0,l),
(138,296,l),
(138,303,l),
(138,700,l),
(107,700,l),
(107,303,l),
(107,296,l),
(107,126,l),
(107,111,l)
);
}
);
width = 246;
}
);
leftKerningGroup = b2;
rightKerningGroup = d;
unicode = 108;
},
{
glyphname = lslash;
layers = (
{
layerId = "B0F09294-F33C-4320-A79E-9223B78F399B";
shapes = (
{
closed = 1;
nodes = (
(-6,167,l),
(298,409,l),
(317,558,l),
(13,316,l)
);
},
{
closed = 1;
nodes = (
(25,0,l),
(190,0,l),
(232,339,l),
(233,346,l),
(278,700,l),
(113,700,l),
(68,346,l),
(67,339,l),
(41,126,l),
(39,111,l)
);
}
);
width = 288;
},
{
layerId = "84E89F29-712A-4FA0-8D04-7033136CE2AB";
shapes = (
{
closed = 1;
nodes = (
(23,220,l),
(274,418,l),
(284,493,l),
(32,296,l)
);
},
{
closed = 1;
nodes = (
(70,0,l),
(142,0,l),
(181,309,l),
(182,316,l),
(230,700,l),
(158,700,l),
(110,316,l),
(109,309,l),
(86,126,l),
(84,111,l)
);
}
);
width = 288;
},
{
layerId = "947D3E97-14BA-4793-BB0D-B2B2C86BF4D4";
shapes = (
{
closed = 1;
nodes = (
(31,244,l),
(260,422,l),
(264,458,l),
(35,281,l)
);
},
{
closed = 1;
nodes = (
(85,0,l),
(115,0,l),
(152,296,l),
(153,303,l),
(203,700,l),
(173,700,l),
(123,303,l),
(122,296,l),
(101,126,l),
(99,111,l)
);
}
);
width = 288;
},
{
layerId = "082E40FD-8E35-4556-8ECC-8D6EB191F145";
shapes = (
{
closed = 1;
nodes = (
(7,167,l),
(281,409,l),
(281,558,l),
(7,316,l)
);
},
{
closed = 1;
nodes = (
(59,0,l),
(224,0,l),
(224,339,l),
(224,346,l),
(224,700,l),
(59,700,l),
(59,346,l),
(59,339,l),
(59,126,l),
(59,111,l)
);
}
);
width = 288;
},
{
layerId = "0E2BF6D7-5696-44D4-BEAE-B9A848D3BB08";
shapes = (
{
closed = 1;
nodes = (
(29,220,l),
(256,418,l),
(256,493,l),
(29,296,l)
);
},
{
closed = 1;
nodes = (
(104,0,l),
(176,0,l),
(176,309,l),
(176,316,l),
(176,700,l),
(104,700,l),
(104,316,l),
(104,309,l),
(104,126,l),
(104,111,l)
);
}
);
width = 288;
},
{
layerId = "B8F76C44-C3C5-4DD7-B95D-04ADE237D0F5";
shapes = (
{
closed = 1;
nodes = (
(34,244,l),
(241,422,l),
(241,458,l),
(34,281,l)
);
},
{
closed = 1;
nodes = (
(119,0,l),
(149,0,l),
(149,296,l),
(149,303,l),
(149,700,l),
(119,700,l),
(119,303,l),
(119,296,l),
(119,126,l),
(119,111,l)
);
}
);
width = 288;
}
);
leftKerningGroup = b2;
rightKerningGroup = d;
unicode = 322;
},
